<ttFont>
    <TTGlyph name="A" xMin="20" yMin="0" xMax="580" yMax="685">
      <contour>
        <pt x="20" y="0" on="1"/>
        <pt x="189" y="685" on="1"/>
        <pt x="410" y="685" on="1"/>
        <pt x="580" y="0" on="1"/>
        <pt x="468" y="0" on="1"/>
        <pt x="431" y="147" on="1"/>
        <pt x="168" y="147" on="1"/>
        <pt x="131" y="0" on="1"/>
      </contour>
      <contour>
        <pt x="275" y="592" on="1"/>
        <pt x="190" y="245" on="1"/>
        <pt x="409" y="245" on="1"/>
        <pt x="325" y="592" on="1"/>
      </contour>
    </TTGlyph>
    <TTGlyph name="AE" xMin="15" yMin="0" xMax="829" yMax="693">
      <contour>
        <pt x="399" y="0" on="1"/>
        <pt x="399" y="142" on="1"/>
        <pt x="170" y="142" on="1"/>
        <pt x="128" y="0" on="1"/>
        <pt x="15" y="0" on="1"/>
        <pt x="217" y="693" on="1"/>
        <pt x="829" y="693" on="1"/>
        <pt x="829" y="586" on="1"/>
        <pt x="509" y="586" on="1"/>
        <pt x="509" y="405" on="1"/>
        <pt x="769" y="405" on="1"/>
        <pt x="769" y="300" on="1"/>
        <pt x="509" y="300" on="1"/>
        <pt x="509" y="107" on="1"/>
        <pt x="829" y="107" on="1"/>
        <pt x="829" y="0" on="1"/>
      </contour>
      <contour>
        <pt x="296" y="586" on="1"/>
        <pt x="198" y="249" on="1"/>
        <pt x="399" y="249" on="1"/>
        <pt x="400" y="586" on="1"/>
      </contour>
    </TTGlyph>
    <TTGlyph name="AEacute" xMin="16" yMin="0" xMax="830" yMax="939">
      <contour>
        <pt x="400" y="0" on="1"/>
        <pt x="400" y="142" on="1"/>
        <pt x="171" y="142" on="1"/>
        <pt x="129" y="0" on="1"/>
        <pt x="16" y="0" on="1"/>
        <pt x="218" y="693" on="1"/>
        <pt x="830" y="693" on="1"/>
        <pt x="830" y="586" on="1"/>
        <pt x="510" y="586" on="1"/>
        <pt x="510" y="405" on="1"/>
        <pt x="770" y="405" on="1"/>
        <pt x="770" y="300" on="1"/>
        <pt x="510" y="300" on="1"/>
        <pt x="510" y="107" on="1"/>
        <pt x="830" y="107" on="1"/>
        <pt x="830" y="0" on="1"/>
      </contour>
      <contour>
        <pt x="297" y="586" on="1"/>
        <pt x="199" y="249" on="1"/>
        <pt x="400" y="249" on="1"/>
        <pt x="401" y="586" on="1"/>
      </contour>
      <contour>
        <pt x="386" y="836" on="1"/>
        <pt x="622" y="939" on="1"/>
        <pt x="657" y="842" on="1"/>
        <pt x="414" y="760" on="1"/>
      </contour>
    </TTGlyph>
    <TTGlyph name="Aacute" xMin="20" yMin="0" xMax="580" yMax="939">
      <contour>
        <pt x="20" y="0" on="1"/>
        <pt x="189" y="685" on="1"/>
        <pt x="410" y="685" on="1"/>
        <pt x="580" y="0" on="1"/>
        <pt x="468" y="0" on="1"/>
        <pt x="431" y="147" on="1"/>
        <pt x="168" y="147" on="1"/>
        <pt x="131" y="0" on="1"/>
      </contour>
      <contour>
        <pt x="275" y="592" on="1"/>
        <pt x="190" y="245" on="1"/>
        <pt x="409" y="245" on="1"/>
        <pt x="325" y="592" on="1"/>
      </contour>
      <contour>
        <pt x="172" y="836" on="1"/>
        <pt x="408" y="939" on="1"/>
        <pt x="443" y="842" on="1"/>
        <pt x="200" y="760" on="1"/>
      </contour>
    </TTGlyph>
    <TTGlyph name="Abreve" xMin="20" yMin="0" xMax="580" yMax="914">
      <contour>
        <pt x="20" y="0" on="1"/>
        <pt x="189" y="685" on="1"/>
        <pt x="410" y="685" on="1"/>
        <pt x="580" y="0" on="1"/>
        <pt x="468" y="0" on="1"/>
        <pt x="431" y="147" on="1"/>
        <pt x="168" y="147" on="1"/>
        <pt x="131" y="0" on="1"/>
      </contour>
      <contour>
        <pt x="275" y="592" on="1"/>
        <pt x="190" y="245" on="1"/>
        <pt x="409" y="245" on="1"/>
        <pt x="325" y="592" on="1"/>
      </contour>
      <contour>
        <pt x="224" y="885" on="0"/>
        <pt x="265" y="849" on="0"/>
        <pt x="329" y="849" on="0"/>
        <pt x="370" y="885" on="0"/>
        <pt x="372" y="914" on="1"/>
        <pt x="471" y="914" on="1"/>
        <pt x="465" y="849" on="0"/>
        <pt x="375" y="771" on="0"/>
        <pt x="218" y="771" on="0"/>
        <pt x="128" y="849" on="0"/>
        <pt x="123" y="914" on="1"/>
        <pt x="222" y="914" on="1"/>
      </contour>
    </TTGlyph>
    <TTGlyph name="Acircumflex" xMin="20" yMin="0" xMax="580" yMax="919">
      <contour>
        <pt x="20" y="0" on="1"/>
        <pt x="189" y="685" on="1"/>
        <pt x="410" y="685" on="1"/>
        <pt x="580" y="0" on="1"/>
        <pt x="468" y="0" on="1"/>
        <pt x="431" y="147" on="1"/>
        <pt x="168" y="147" on="1"/>
        <pt x="131" y="0" on="1"/>
      </contour>
      <contour>
        <pt x="275" y="592" on="1"/>
        <pt x="190" y="245" on="1"/>
        <pt x="409" y="245" on="1"/>
        <pt x="325" y="592" on="1"/>
      </contour>
      <contour>
        <pt x="117" y="776" on="1"/>
        <pt x="251" y="919" on="1"/>
        <pt x="345" y="919" on="1"/>
        <pt x="479" y="776" on="1"/>
        <pt x="363" y="776" on="1"/>
        <pt x="299" y="843" on="1"/>
        <pt x="234" y="776" on="1"/>
      </contour>
    </TTGlyph>
    <TTGlyph name="Adieresis" xMin="20" yMin="0" xMax="580" yMax="897">
      <contour>
        <pt x="20" y="0" on="1"/>
        <pt x="189" y="685" on="1"/>
        <pt x="410" y="685" on="1"/>
        <pt x="580" y="0" on="1"/>
        <pt x="468" y="0" on="1"/>
        <pt x="431" y="147" on="1"/>
        <pt x="168" y="147" on="1"/>
        <pt x="131" y="0" on="1"/>
      </contour>
      <contour>
        <pt x="275" y="592" on="1"/>
        <pt x="190" y="245" on="1"/>
        <pt x="409" y="245" on="1"/>
        <pt x="325" y="592" on="1"/>
      </contour>
      <contour>
        <pt x="142" y="783" on="1"/>
        <pt x="142" y="897" on="1"/>
        <pt x="246" y="897" on="1"/>
        <pt x="246" y="783" on="1"/>
      </contour>
      <contour>
        <pt x="351" y="783" on="1"/>
        <pt x="351" y="897" on="1"/>
        <pt x="455" y="897" on="1"/>
        <pt x="455" y="783" on="1"/>
      </contour>
    </TTGlyph>
    <TTGlyph name="Agrave" xMin="20" yMin="0" xMax="580" yMax="939">
      <contour>
        <pt x="20" y="0" on="1"/>
        <pt x="189" y="685" on="1"/>
        <pt x="410" y="685" on="1"/>
        <pt x="580" y="0" on="1"/>
        <pt x="468" y="0" on="1"/>
        <pt x="431" y="147" on="1"/>
        <pt x="168" y="147" on="1"/>
        <pt x="131" y="0" on="1"/>
      </contour>
      <contour>
        <pt x="275" y="592" on="1"/>
        <pt x="190" y="245" on="1"/>
        <pt x="409" y="245" on="1"/>
        <pt x="325" y="592" on="1"/>
      </contour>
      <contour>
        <pt x="186" y="939" on="1"/>
        <pt x="422" y="836" on="1"/>
        <pt x="394" y="760" on="1"/>
        <pt x="151" y="842" on="1"/>
      </contour>
    </TTGlyph>
    <TTGlyph name="Amacron" xMin="20" yMin="0" xMax="580" yMax="876">
      <contour>
        <pt x="20" y="0" on="1"/>
        <pt x="189" y="685" on="1"/>
        <pt x="410" y="685" on="1"/>
        <pt x="580" y="0" on="1"/>
        <pt x="468" y="0" on="1"/>
        <pt x="431" y="147" on="1"/>
        <pt x="168" y="147" on="1"/>
        <pt x="131" y="0" on="1"/>
      </contour>
      <contour>
        <pt x="275" y="592" on="1"/>
        <pt x="190" y="245" on="1"/>
        <pt x="409" y="245" on="1"/>
        <pt x="325" y="592" on="1"/>
      </contour>
      <contour>
        <pt x="131" y="795" on="1"/>
        <pt x="131" y="876" on="1"/>
        <pt x="463" y="876" on="1"/>
        <pt x="463" y="795" on="1"/>
      </contour>
    </TTGlyph>
    <TTGlyph name="Aogonek" xMin="20" yMin="-212" xMax="595" yMax="685">
      <contour>
        <pt x="504" y="-76" on="0"/>
        <pt x="504" y="-107" on="0"/>
        <pt x="524" y="-128" on="0"/>
        <pt x="540" y="-128" on="1"/>
        <pt x="585" y="-123" on="1"/>
        <pt x="595" y="-202" on="1"/>
        <pt x="542" y="-212" on="0"/>
        <pt x="459" y="-212" on="0"/>
        <pt x="402" y="-162" on="0"/>
        <pt x="402" y="-119" on="1"/>
        <pt x="402" y="-59" on="0"/>
        <pt x="470" y="0" on="1"/>
        <pt x="468" y="0" on="1"/>
        <pt x="431" y="147" on="1"/>
        <pt x="168" y="147" on="1"/>
        <pt x="131" y="0" on="1"/>
        <pt x="20" y="0" on="1"/>
        <pt x="189" y="685" on="1"/>
        <pt x="410" y="685" on="1"/>
        <pt x="580" y="0" on="1"/>
        <pt x="566" y="0" on="1"/>
        <pt x="544" y="-15" on="0"/>
      </contour>
      <contour>
        <pt x="275" y="592" on="1"/>
        <pt x="190" y="245" on="1"/>
        <pt x="409" y="245" on="1"/>
        <pt x="325" y="592" on="1"/>
      </contour>
    </TTGlyph>
    <TTGlyph name="Aring" xMin="20" yMin="0" xMax="580" yMax="848">
      <contour>
        <pt x="436" y="731" on="1"/>
        <pt x="436" y="693" on="0"/>
        <pt x="415" y="664" on="1"/>
        <pt x="580" y="0" on="1"/>
        <pt x="468" y="0" on="1"/>
        <pt x="431" y="147" on="1"/>
        <pt x="168" y="147" on="1"/>
        <pt x="131" y="0" on="1"/>
        <pt x="20" y="0" on="1"/>
        <pt x="184" y="664" on="1"/>
        <pt x="163" y="693" on="0"/>
        <pt x="163" y="731" on="1"/>
        <pt x="163" y="785" on="0"/>
        <pt x="241" y="848" on="0"/>
        <pt x="358" y="848" on="0"/>
        <pt x="436" y="785" on="0"/>
      </contour>
      <contour>
        <pt x="275" y="592" on="1"/>
        <pt x="190" y="245" on="1"/>
        <pt x="409" y="245" on="1"/>
        <pt x="325" y="592" on="1"/>
      </contour>
      <contour>
        <pt x="239" y="753" on="0"/>
        <pt x="239" y="709" on="0"/>
        <pt x="271" y="685" on="0"/>
        <pt x="327" y="685" on="0"/>
        <pt x="360" y="709" on="0"/>
        <pt x="360" y="753" on="0"/>
        <pt x="327" y="778" on="0"/>
        <pt x="271" y="778" on="0"/>
      </contour>
    </TTGlyph>
    <TTGlyph name="Aringacute" xMin="20" yMin="0" xMax="580" yMax="1036">
      <contour>
        <pt x="435" y="731" on="1"/>
        <pt x="435" y="693" on="0"/>
        <pt x="415" y="665" on="1"/>
        <pt x="580" y="0" on="1"/>
        <pt x="468" y="0" on="1"/>
        <pt x="431" y="147" on="1"/>
        <pt x="168" y="147" on="1"/>
        <pt x="131" y="0" on="1"/>
        <pt x="20" y="0" on="1"/>
        <pt x="183" y="663" on="1"/>
        <pt x="162" y="692" on="0"/>
        <pt x="162" y="785" on="0"/>
        <pt x="240" y="848" on="0"/>
        <pt x="357" y="848" on="0"/>
        <pt x="435" y="785" on="0"/>
      </contour>
      <contour>
        <pt x="275" y="592" on="1"/>
        <pt x="190" y="245" on="1"/>
        <pt x="409" y="245" on="1"/>
        <pt x="325" y="592" on="1"/>
      </contour>
      <contour>
        <pt x="155" y="933" on="1"/>
        <pt x="391" y="1036" on="1"/>
        <pt x="426" y="939" on="1"/>
        <pt x="183" y="857" on="1"/>
      </contour>
      <contour>
        <pt x="238" y="753" on="0"/>
        <pt x="238" y="709" on="0"/>
        <pt x="270" y="685" on="0"/>
        <pt x="298" y="685" on="1"/>
        <pt x="303" y="685" on="1"/>
        <pt x="329" y="686" on="0"/>
        <pt x="359" y="710" on="0"/>
        <pt x="359" y="753" on="0"/>
        <pt x="326" y="778" on="0"/>
        <pt x="270" y="778" on="0"/>
      </contour>
    </TTGlyph>
    <TTGlyph name="Atilde" xMin="20" yMin="0" xMax="580" yMax="923">
      <contour>
        <pt x="20" y="0" on="1"/>
        <pt x="189" y="685" on="1"/>
        <pt x="410" y="685" on="1"/>
        <pt x="580" y="0" on="1"/>
        <pt x="468" y="0" on="1"/>
        <pt x="431" y="147" on="1"/>
        <pt x="168" y="147" on="1"/>
        <pt x="131" y="0" on="1"/>
      </contour>
      <contour>
        <pt x="275" y="592" on="1"/>
        <pt x="190" y="245" on="1"/>
        <pt x="409" y="245" on="1"/>
        <pt x="325" y="592" on="1"/>
      </contour>
      <contour>
        <pt x="400" y="777" on="0"/>
        <pt x="352" y="777" on="0"/>
        <pt x="226" y="827" on="0"/>
        <pt x="213" y="827" on="1"/>
        <pt x="188" y="827" on="0"/>
        <pt x="149" y="794" on="1"/>
        <pt x="136" y="783" on="1"/>
        <pt x="112" y="861" on="1"/>
        <pt x="118" y="868" on="0"/>
        <pt x="137" y="889" on="0"/>
        <pt x="190" y="923" on="0"/>
        <pt x="242" y="923" on="0"/>
        <pt x="365" y="873" on="0"/>
        <pt x="376" y="873" on="1"/>
        <pt x="398" y="873" on="0"/>
        <pt x="438" y="906" on="1"/>
        <pt x="452" y="917" on="1"/>
        <pt x="476" y="838" on="1"/>
        <pt x="461" y="817" on="0"/>
      </contour>
    </TTGlyph>
    <TTGlyph name="B" xMin="79" yMin="0" xMax="565" yMax="685">
      <contour>
        <pt x="79" y="685" on="1"/>
        <pt x="339" y="685" on="1"/>
        <pt x="444" y="685" on="0"/>
        <pt x="548" y="600" on="0"/>
        <pt x="548" y="507" on="1"/>
        <pt x="548" y="446" on="0"/>
        <pt x="509" y="376" on="0"/>
        <pt x="467" y="353" on="1"/>
        <pt x="565" y="315" on="0"/>
        <pt x="565" y="194" on="1"/>
        <pt x="565" y="0" on="0"/>
        <pt x="347" y="0" on="1"/>
        <pt x="79" y="0" on="1"/>
      </contour>
      <contour>
        <pt x="339" y="299" on="1"/>
        <pt x="190" y="299" on="1"/>
        <pt x="190" y="96" on="1"/>
        <pt x="341" y="96" on="1"/>
        <pt x="396" y="96" on="0"/>
        <pt x="451" y="142" on="0"/>
        <pt x="451" y="254" on="0"/>
        <pt x="387" y="299" on="0"/>
      </contour>
      <contour>
        <pt x="333" y="589" on="1"/>
        <pt x="190" y="589" on="1"/>
        <pt x="190" y="393" on="1"/>
        <pt x="337" y="393" on="1"/>
        <pt x="435" y="393" on="0"/>
        <pt x="435" y="494" on="1"/>
        <pt x="435" y="589" on="0"/>
      </contour>
    </TTGlyph>
    <TTGlyph name="C" xMin="52" yMin="-11" xMax="505" yMax="696">
      <contour>
        <pt x="309" y="-11" on="1"/>
        <pt x="159" y="-11" on="0"/>
        <pt x="52" y="155" on="0"/>
        <pt x="52" y="535" on="0"/>
        <pt x="160" y="696" on="0"/>
        <pt x="309" y="696" on="1"/>
        <pt x="398" y="696" on="0"/>
        <pt x="505" y="671" on="1"/>
        <pt x="501" y="581" on="1"/>
        <pt x="411" y="597" on="0"/>
        <pt x="231" y="597" on="0"/>
        <pt x="167" y="490" on="0"/>
        <pt x="167" y="195" on="0"/>
        <pt x="229" y="88" on="0"/>
        <pt x="409" y="88" on="0"/>
        <pt x="501" y="103" on="1"/>
        <pt x="504" y="11" on="1"/>
        <pt x="401" y="-11" on="0"/>
      </contour>
    </TTGlyph>
    <TTGlyph name="Cacute" xMin="52" yMin="-11" xMax="505" yMax="939">
      <contour>
        <pt x="309" y="-11" on="1"/>
        <pt x="159" y="-11" on="0"/>
        <pt x="52" y="155" on="0"/>
        <pt x="52" y="535" on="0"/>
        <pt x="160" y="696" on="0"/>
        <pt x="309" y="696" on="1"/>
        <pt x="398" y="696" on="0"/>
        <pt x="505" y="671" on="1"/>
        <pt x="501" y="581" on="1"/>
        <pt x="411" y="597" on="0"/>
        <pt x="231" y="597" on="0"/>
        <pt x="167" y="490" on="0"/>
        <pt x="167" y="195" on="0"/>
        <pt x="229" y="88" on="0"/>
        <pt x="409" y="88" on="0"/>
        <pt x="501" y="103" on="1"/>
        <pt x="504" y="11" on="1"/>
        <pt x="401" y="-11" on="0"/>
      </contour>
      <contour>
        <pt x="162" y="836" on="1"/>
        <pt x="398" y="939" on="1"/>
        <pt x="433" y="842" on="1"/>
        <pt x="190" y="760" on="1"/>
      </contour>
    </TTGlyph>
    <TTGlyph name="Ccaron" xMin="52" yMin="-11" xMax="505" yMax="919">
      <contour>
        <pt x="309" y="-11" on="1"/>
        <pt x="159" y="-11" on="0"/>
        <pt x="52" y="155" on="0"/>
        <pt x="52" y="535" on="0"/>
        <pt x="160" y="696" on="0"/>
        <pt x="309" y="696" on="1"/>
        <pt x="398" y="696" on="0"/>
        <pt x="505" y="671" on="1"/>
        <pt x="501" y="581" on="1"/>
        <pt x="411" y="597" on="0"/>
        <pt x="231" y="597" on="0"/>
        <pt x="167" y="490" on="0"/>
        <pt x="167" y="195" on="0"/>
        <pt x="229" y="88" on="0"/>
        <pt x="409" y="88" on="0"/>
        <pt x="501" y="103" on="1"/>
        <pt x="504" y="11" on="1"/>
        <pt x="401" y="-11" on="0"/>
      </contour>
      <contour>
        <pt x="259" y="776" on="1"/>
        <pt x="125" y="919" on="1"/>
        <pt x="242" y="919" on="1"/>
        <pt x="307" y="853" on="1"/>
        <pt x="370" y="919" on="1"/>
        <pt x="487" y="919" on="1"/>
        <pt x="353" y="776" on="1"/>
      </contour>
    </TTGlyph>
    <TTGlyph name="Ccedilla" xMin="52" yMin="-231" xMax="505" yMax="696">
      <contour>
        <pt x="381" y="-43" on="0"/>
        <pt x="437" y="-77" on="0"/>
        <pt x="437" y="-179" on="0"/>
        <pt x="382" y="-231" on="0"/>
        <pt x="333" y="-231" on="1"/>
        <pt x="295" y="-231" on="0"/>
        <pt x="256" y="-224" on="1"/>
        <pt x="243" y="-221" on="1"/>
        <pt x="247" y="-156" on="1"/>
        <pt x="281" y="-158" on="0"/>
        <pt x="302" y="-158" on="1"/>
        <pt x="343" y="-158" on="0"/>
        <pt x="343" y="-127" on="1"/>
        <pt x="343" y="-112" on="0"/>
        <pt x="324" y="-100" on="0"/>
        <pt x="302" y="-100" on="1"/>
        <pt x="271" y="-100" on="1"/>
        <pt x="271" y="-9" on="1"/>
        <pt x="145" y="0" on="0"/>
        <pt x="52" y="167" on="0"/>
        <pt x="52" y="535" on="0"/>
        <pt x="160" y="696" on="0"/>
        <pt x="309" y="696" on="1"/>
        <pt x="398" y="696" on="0"/>
        <pt x="505" y="671" on="1"/>
        <pt x="501" y="581" on="1"/>
        <pt x="411" y="597" on="0"/>
        <pt x="231" y="597" on="0"/>
        <pt x="167" y="490" on="0"/>
        <pt x="167" y="195" on="0"/>
        <pt x="229" y="88" on="0"/>
        <pt x="409" y="88" on="0"/>
        <pt x="501" y="103" on="1"/>
        <pt x="504" y="11" on="1"/>
        <pt x="412" y="-9" on="0"/>
        <pt x="318" y="-11" on="1"/>
        <pt x="318" y="-42" on="1"/>
      </contour>
    </TTGlyph>
    <TTGlyph name="Ccircumflex" xMin="52" yMin="-11" xMax="505" yMax="919">
      <contour>
        <pt x="309" y="-11" on="1"/>
        <pt x="159" y="-11" on="0"/>
        <pt x="52" y="155" on="0"/>
        <pt x="52" y="535" on="0"/>
        <pt x="160" y="696" on="0"/>
        <pt x="309" y="696" on="1"/>
        <pt x="398" y="696" on="0"/>
        <pt x="505" y="671" on="1"/>
        <pt x="501" y="581" on="1"/>
        <pt x="411" y="597" on="0"/>
        <pt x="231" y="597" on="0"/>
        <pt x="167" y="490" on="0"/>
        <pt x="167" y="195" on="0"/>
        <pt x="229" y="88" on="0"/>
        <pt x="409" y="88" on="0"/>
        <pt x="501" y="103" on="1"/>
        <pt x="504" y="11" on="1"/>
        <pt x="401" y="-11" on="0"/>
      </contour>
      <contour>
        <pt x="123" y="776" on="1"/>
        <pt x="257" y="919" on="1"/>
        <pt x="351" y="919" on="1"/>
        <pt x="485" y="776" on="1"/>
        <pt x="369" y="776" on="1"/>
        <pt x="305" y="843" on="1"/>
        <pt x="240" y="776" on="1"/>
      </contour>
    </TTGlyph>
    <TTGlyph name="Cdotaccent" xMin="52" yMin="-11" xMax="505" yMax="891">
      <contour>
        <pt x="309" y="-11" on="1"/>
        <pt x="159" y="-11" on="0"/>
        <pt x="52" y="155" on="0"/>
        <pt x="52" y="535" on="0"/>
        <pt x="160" y="696" on="0"/>
        <pt x="309" y="696" on="1"/>
        <pt x="398" y="696" on="0"/>
        <pt x="505" y="671" on="1"/>
        <pt x="501" y="581" on="1"/>
        <pt x="411" y="597" on="0"/>
        <pt x="231" y="597" on="0"/>
        <pt x="167" y="490" on="0"/>
        <pt x="167" y="195" on="0"/>
        <pt x="229" y="88" on="0"/>
        <pt x="409" y="88" on="0"/>
        <pt x="501" y="103" on="1"/>
        <pt x="504" y="11" on="1"/>
        <pt x="401" y="-11" on="0"/>
      </contour>
      <contour>
        <pt x="235" y="777" on="1"/>
        <pt x="235" y="891" on="1"/>
        <pt x="343" y="891" on="1"/>
        <pt x="343" y="777" on="1"/>
      </contour>
    </TTGlyph>
    <TTGlyph name="D" xMin="79" yMin="0" xMax="590" yMax="685">
      <contour>
        <pt x="316" y="0" on="1"/>
        <pt x="79" y="0" on="1"/>
        <pt x="79" y="685" on="1"/>
        <pt x="316" y="685" on="1"/>
        <pt x="474" y="685" on="0"/>
        <pt x="590" y="525" on="0"/>
        <pt x="590" y="354" on="1"/>
        <pt x="590" y="267" on="0"/>
        <pt x="567" y="146" on="0"/>
        <pt x="538" y="97" on="1"/>
        <pt x="481" y="0" on="0"/>
      </contour>
      <contour>
        <pt x="475" y="354" on="1"/>
        <pt x="475" y="478" on="0"/>
        <pt x="413" y="588" on="0"/>
        <pt x="316" y="588" on="1"/>
        <pt x="190" y="588" on="1"/>
        <pt x="190" y="98" on="1"/>
        <pt x="316" y="98" on="1"/>
        <pt x="415" y="98" on="0"/>
        <pt x="448" y="171" on="1"/>
        <pt x="464" y="208" on="0"/>
        <pt x="475" y="292" on="0"/>
      </contour>
    </TTGlyph>
    <TTGlyph name="Dcaron" xMin="79" yMin="0" xMax="590" yMax="919">
      <contour>
        <pt x="316" y="0" on="1"/>
        <pt x="79" y="0" on="1"/>
        <pt x="79" y="685" on="1"/>
        <pt x="316" y="685" on="1"/>
        <pt x="474" y="685" on="0"/>
        <pt x="590" y="525" on="0"/>
        <pt x="590" y="354" on="1"/>
        <pt x="590" y="267" on="0"/>
        <pt x="567" y="146" on="0"/>
        <pt x="538" y="97" on="1"/>
        <pt x="481" y="0" on="0"/>
      </contour>
      <contour>
        <pt x="475" y="354" on="1"/>
        <pt x="475" y="478" on="0"/>
        <pt x="413" y="588" on="0"/>
        <pt x="316" y="588" on="1"/>
        <pt x="190" y="588" on="1"/>
        <pt x="190" y="98" on="1"/>
        <pt x="316" y="98" on="1"/>
        <pt x="415" y="98" on="0"/>
        <pt x="448" y="171" on="1"/>
        <pt x="464" y="208" on="0"/>
        <pt x="475" y="292" on="0"/>
      </contour>
      <contour>
        <pt x="253" y="776" on="1"/>
        <pt x="119" y="919" on="1"/>
        <pt x="236" y="919" on="1"/>
        <pt x="301" y="853" on="1"/>
        <pt x="364" y="919" on="1"/>
        <pt x="481" y="919" on="1"/>
        <pt x="347" y="776" on="1"/>
      </contour>
    </TTGlyph>
    <TTGlyph name="Dcroat" xMin="23" yMin="0" xMax="593" yMax="693">
      <contour>
        <pt x="23" y="292" on="1"/>
        <pt x="23" y="398" on="1"/>
        <pt x="83" y="398" on="1"/>
        <pt x="83" y="693" on="1"/>
        <pt x="318" y="693" on="1"/>
        <pt x="480" y="693" on="0"/>
        <pt x="539" y="606" on="1"/>
        <pt x="569" y="561" on="0"/>
        <pt x="593" y="444" on="0"/>
        <pt x="593" y="271" on="0"/>
        <pt x="570" y="148" on="0"/>
        <pt x="541" y="98" on="1"/>
        <pt x="483" y="0" on="0"/>
        <pt x="318" y="0" on="1"/>
        <pt x="83" y="0" on="1"/>
        <pt x="83" y="292" on="1"/>
      </contour>
      <contour>
        <pt x="478" y="359" on="1"/>
        <pt x="478" y="478" on="0"/>
        <pt x="415" y="587" on="0"/>
        <pt x="318" y="587" on="1"/>
        <pt x="193" y="587" on="1"/>
        <pt x="193" y="398" on="1"/>
        <pt x="335" y="398" on="1"/>
        <pt x="335" y="292" on="1"/>
        <pt x="193" y="292" on="1"/>
        <pt x="193" y="106" on="1"/>
        <pt x="318" y="106" on="1"/>
        <pt x="418" y="106" on="0"/>
        <pt x="450" y="179" on="1"/>
        <pt x="467" y="216" on="0"/>
        <pt x="478" y="298" on="0"/>
      </contour>
    </TTGlyph>
    <TTGlyph name="Delta" xMin="48" yMin="0" xMax="512" yMax="660">
      <contour>
        <pt x="512" y="0" on="1"/>
        <pt x="48" y="0" on="1"/>
        <pt x="48" y="84" on="1"/>
        <pt x="187" y="660" on="1"/>
        <pt x="373" y="660" on="1"/>
        <pt x="512" y="82" on="1"/>
      </contour>
      <contour>
        <pt x="293" y="568" on="1"/>
        <pt x="267" y="568" on="1"/>
        <pt x="157" y="93" on="1"/>
        <pt x="402" y="93" on="1"/>
      </contour>
    </TTGlyph>
    <TTGlyph name="E" xMin="79" yMin="0" xMax="511" yMax="685">
      <contour>
        <pt x="79" y="0" on="1"/>
        <pt x="79" y="685" on="1"/>
        <pt x="511" y="685" on="1"/>
        <pt x="511" y="588" on="1"/>
        <pt x="190" y="588" on="1"/>
        <pt x="190" y="394" on="1"/>
        <pt x="451" y="394" on="1"/>
        <pt x="451" y="298" on="1"/>
        <pt x="190" y="298" on="1"/>
        <pt x="190" y="98" on="1"/>
        <pt x="511" y="98" on="1"/>
        <pt x="511" y="0" on="1"/>
      </contour>
    </TTGlyph>
    <TTGlyph name="Eacute" xMin="79" yMin="0" xMax="511" yMax="939">
      <contour>
        <pt x="79" y="0" on="1"/>
        <pt x="79" y="685" on="1"/>
        <pt x="511" y="685" on="1"/>
        <pt x="511" y="588" on="1"/>
        <pt x="190" y="588" on="1"/>
        <pt x="190" y="394" on="1"/>
        <pt x="451" y="394" on="1"/>
        <pt x="451" y="298" on="1"/>
        <pt x="190" y="298" on="1"/>
        <pt x="190" y="98" on="1"/>
        <pt x="511" y="98" on="1"/>
        <pt x="511" y="0" on="1"/>
      </contour>
      <contour>
        <pt x="164" y="836" on="1"/>
        <pt x="400" y="939" on="1"/>
        <pt x="435" y="842" on="1"/>
        <pt x="192" y="760" on="1"/>
      </contour>
    </TTGlyph>
    <TTGlyph name="Ebreve" xMin="79" yMin="0" xMax="511" yMax="914">
      <contour>
        <pt x="79" y="0" on="1"/>
        <pt x="79" y="685" on="1"/>
        <pt x="511" y="685" on="1"/>
        <pt x="511" y="588" on="1"/>
        <pt x="190" y="588" on="1"/>
        <pt x="190" y="394" on="1"/>
        <pt x="451" y="394" on="1"/>
        <pt x="451" y="298" on="1"/>
        <pt x="190" y="298" on="1"/>
        <pt x="190" y="98" on="1"/>
        <pt x="511" y="98" on="1"/>
        <pt x="511" y="0" on="1"/>
      </contour>
      <contour>
        <pt x="229" y="885" on="0"/>
        <pt x="270" y="849" on="0"/>
        <pt x="334" y="849" on="0"/>
        <pt x="375" y="885" on="0"/>
        <pt x="377" y="914" on="1"/>
        <pt x="476" y="914" on="1"/>
        <pt x="470" y="849" on="0"/>
        <pt x="380" y="771" on="0"/>
        <pt x="223" y="771" on="0"/>
        <pt x="133" y="849" on="0"/>
        <pt x="128" y="914" on="1"/>
        <pt x="227" y="914" on="1"/>
      </contour>
    </TTGlyph>
    <TTGlyph name="Ecaron" xMin="79" yMin="0" xMax="511" yMax="919">
      <contour>
        <pt x="79" y="0" on="1"/>
        <pt x="79" y="685" on="1"/>
        <pt x="511" y="685" on="1"/>
        <pt x="511" y="588" on="1"/>
        <pt x="190" y="588" on="1"/>
        <pt x="190" y="394" on="1"/>
        <pt x="451" y="394" on="1"/>
        <pt x="451" y="298" on="1"/>
        <pt x="190" y="298" on="1"/>
        <pt x="190" y="98" on="1"/>
        <pt x="511" y="98" on="1"/>
        <pt x="511" y="0" on="1"/>
      </contour>
      <contour>
        <pt x="237" y="776" on="1"/>
        <pt x="103" y="919" on="1"/>
        <pt x="220" y="919" on="1"/>
        <pt x="285" y="853" on="1"/>
        <pt x="348" y="919" on="1"/>
        <pt x="465" y="919" on="1"/>
        <pt x="331" y="776" on="1"/>
      </contour>
    </TTGlyph>
    <TTGlyph name="Ecircumflex" xMin="79" yMin="0" xMax="511" yMax="919">
      <contour>
        <pt x="79" y="0" on="1"/>
        <pt x="79" y="685" on="1"/>
        <pt x="511" y="685" on="1"/>
        <pt x="511" y="588" on="1"/>
        <pt x="190" y="588" on="1"/>
        <pt x="190" y="394" on="1"/>
        <pt x="451" y="394" on="1"/>
        <pt x="451" y="298" on="1"/>
        <pt x="190" y="298" on="1"/>
        <pt x="190" y="98" on="1"/>
        <pt x="511" y="98" on="1"/>
        <pt x="511" y="0" on="1"/>
      </contour>
      <contour>
        <pt x="115" y="776" on="1"/>
        <pt x="249" y="919" on="1"/>
        <pt x="343" y="919" on="1"/>
        <pt x="477" y="776" on="1"/>
        <pt x="361" y="776" on="1"/>
        <pt x="297" y="843" on="1"/>
        <pt x="232" y="776" on="1"/>
      </contour>
    </TTGlyph>
    <TTGlyph name="Edieresis" xMin="79" yMin="0" xMax="511" yMax="897">
      <contour>
        <pt x="79" y="0" on="1"/>
        <pt x="79" y="685" on="1"/>
        <pt x="511" y="685" on="1"/>
        <pt x="511" y="588" on="1"/>
        <pt x="190" y="588" on="1"/>
        <pt x="190" y="394" on="1"/>
        <pt x="451" y="394" on="1"/>
        <pt x="451" y="298" on="1"/>
        <pt x="190" y="298" on="1"/>
        <pt x="190" y="98" on="1"/>
        <pt x="511" y="98" on="1"/>
        <pt x="511" y="0" on="1"/>
      </contour>
      <contour>
        <pt x="138" y="783" on="1"/>
        <pt x="138" y="897" on="1"/>
        <pt x="242" y="897" on="1"/>
        <pt x="242" y="783" on="1"/>
      </contour>
      <contour>
        <pt x="347" y="783" on="1"/>
        <pt x="347" y="897" on="1"/>
        <pt x="451" y="897" on="1"/>
        <pt x="451" y="783" on="1"/>
      </contour>
    </TTGlyph>
    <TTGlyph name="Edotaccent" xMin="79" yMin="0" xMax="511" yMax="896">
      <contour>
        <pt x="79" y="0" on="1"/>
        <pt x="79" y="685" on="1"/>
        <pt x="511" y="685" on="1"/>
        <pt x="511" y="588" on="1"/>
        <pt x="190" y="588" on="1"/>
        <pt x="190" y="394" on="1"/>
        <pt x="451" y="394" on="1"/>
        <pt x="451" y="298" on="1"/>
        <pt x="190" y="298" on="1"/>
        <pt x="190" y="98" on="1"/>
        <pt x="511" y="98" on="1"/>
        <pt x="511" y="0" on="1"/>
      </contour>
      <contour>
        <pt x="244" y="782" on="1"/>
        <pt x="244" y="896" on="1"/>
        <pt x="352" y="896" on="1"/>
        <pt x="352" y="782" on="1"/>
      </contour>
    </TTGlyph>
    <TTGlyph name="Egrave" xMin="79" yMin="0" xMax="511" yMax="939">
      <contour>
        <pt x="79" y="0" on="1"/>
        <pt x="79" y="685" on="1"/>
        <pt x="511" y="685" on="1"/>
        <pt x="511" y="588" on="1"/>
        <pt x="190" y="588" on="1"/>
        <pt x="190" y="394" on="1"/>
        <pt x="451" y="394" on="1"/>
        <pt x="451" y="298" on="1"/>
        <pt x="190" y="298" on="1"/>
        <pt x="190" y="98" on="1"/>
        <pt x="511" y="98" on="1"/>
        <pt x="511" y="0" on="1"/>
      </contour>
      <contour>
        <pt x="187" y="939" on="1"/>
        <pt x="423" y="836" on="1"/>
        <pt x="395" y="760" on="1"/>
        <pt x="152" y="842" on="1"/>
      </contour>
    </TTGlyph>
    <TTGlyph name="Emacron" xMin="79" yMin="0" xMax="511" yMax="876">
      <contour>
        <pt x="79" y="0" on="1"/>
        <pt x="79" y="685" on="1"/>
        <pt x="511" y="685" on="1"/>
        <pt x="511" y="588" on="1"/>
        <pt x="190" y="588" on="1"/>
        <pt x="190" y="394" on="1"/>
        <pt x="451" y="394" on="1"/>
        <pt x="451" y="298" on="1"/>
        <pt x="190" y="298" on="1"/>
        <pt x="190" y="98" on="1"/>
        <pt x="511" y="98" on="1"/>
        <pt x="511" y="0" on="1"/>
      </contour>
      <contour>
        <pt x="125" y="795" on="1"/>
        <pt x="125" y="876" on="1"/>
        <pt x="457" y="876" on="1"/>
        <pt x="457" y="795" on="1"/>
      </contour>
    </TTGlyph>
    <TTGlyph name="Eng" xMin="79" yMin="-202" xMax="607" yMax="685">
      <contour>
        <pt x="79" y="0" on="1"/>
        <pt x="79" y="685" on="1"/>
        <pt x="273" y="685" on="1"/>
        <pt x="481" y="98" on="1"/>
        <pt x="496" y="98" on="1"/>
        <pt x="496" y="685" on="1"/>
        <pt x="607" y="685" on="1"/>
        <pt x="607" y="-25" on="1"/>
        <pt x="607" y="-132" on="0"/>
        <pt x="517" y="-202" on="0"/>
        <pt x="404" y="-202" on="1"/>
        <pt x="404" y="-104" on="1"/>
        <pt x="457" y="-104" on="0"/>
        <pt x="496" y="-72" on="0"/>
        <pt x="496" y="-17" on="1"/>
        <pt x="496" y="0" on="1"/>
        <pt x="417" y="0" on="1"/>
        <pt x="204" y="588" on="1"/>
        <pt x="190" y="588" on="1"/>
        <pt x="190" y="0" on="1"/>
      </contour>
    </TTGlyph>
    <TTGlyph name="Eogonek" xMin="79" yMin="-212" xMax="511" yMax="685">
      <contour>
        <pt x="79" y="0" on="1"/>
        <pt x="79" y="685" on="1"/>
        <pt x="511" y="685" on="1"/>
        <pt x="511" y="588" on="1"/>
        <pt x="190" y="588" on="1"/>
        <pt x="190" y="394" on="1"/>
        <pt x="451" y="394" on="1"/>
        <pt x="451" y="298" on="1"/>
        <pt x="190" y="298" on="1"/>
        <pt x="190" y="98" on="1"/>
        <pt x="511" y="98" on="1"/>
        <pt x="511" y="0" on="1"/>
        <pt x="482" y="0" on="1"/>
        <pt x="460" y="-15" on="0"/>
        <pt x="420" y="-76" on="0"/>
        <pt x="420" y="-107" on="0"/>
        <pt x="440" y="-128" on="0"/>
        <pt x="456" y="-128" on="1"/>
        <pt x="501" y="-123" on="1"/>
        <pt x="511" y="-202" on="1"/>
        <pt x="458" y="-212" on="0"/>
        <pt x="375" y="-212" on="0"/>
        <pt x="318" y="-162" on="0"/>
        <pt x="318" y="-119" on="1"/>
        <pt x="318" y="-59" on="0"/>
        <pt x="386" y="0" on="1"/>
      </contour>
    </TTGlyph>
    <TTGlyph name="Eth" xMin="23" yMin="0" xMax="593" yMax="693">
      <contour>
        <pt x="23" y="292" on="1"/>
        <pt x="23" y="398" on="1"/>
        <pt x="83" y="398" on="1"/>
        <pt x="83" y="693" on="1"/>
        <pt x="318" y="693" on="1"/>
        <pt x="480" y="693" on="0"/>
        <pt x="539" y="606" on="1"/>
        <pt x="569" y="561" on="0"/>
        <pt x="593" y="444" on="0"/>
        <pt x="593" y="271" on="0"/>
        <pt x="570" y="148" on="0"/>
        <pt x="541" y="98" on="1"/>
        <pt x="483" y="0" on="0"/>
        <pt x="318" y="0" on="1"/>
        <pt x="83" y="0" on="1"/>
        <pt x="83" y="292" on="1"/>
      </contour>
      <contour>
        <pt x="478" y="359" on="1"/>
        <pt x="478" y="478" on="0"/>
        <pt x="415" y="587" on="0"/>
        <pt x="318" y="587" on="1"/>
        <pt x="193" y="587" on="1"/>
        <pt x="193" y="398" on="1"/>
        <pt x="335" y="398" on="1"/>
        <pt x="335" y="292" on="1"/>
        <pt x="193" y="292" on="1"/>
        <pt x="193" y="106" on="1"/>
        <pt x="318" y="106" on="1"/>
        <pt x="418" y="106" on="0"/>
        <pt x="450" y="179" on="1"/>
        <pt x="467" y="216" on="0"/>
        <pt x="478" y="298" on="0"/>
      </contour>
    </TTGlyph>
    <TTGlyph name="Euro" xMin="28" yMin="-11" xMax="521" yMax="671">
      <contour>
        <pt x="28" y="365" on="1"/>
        <pt x="28" y="449" on="1"/>
        <pt x="90" y="449" on="1"/>
        <pt x="104" y="566" on="0"/>
        <pt x="214" y="671" on="0"/>
        <pt x="332" y="671" on="1"/>
        <pt x="409" y="671" on="0"/>
        <pt x="521" y="647" on="1"/>
        <pt x="517" y="560" on="1"/>
        <pt x="436" y="575" on="0"/>
        <pt x="278" y="575" on="0"/>
        <pt x="212" y="518" on="0"/>
        <pt x="202" y="449" on="1"/>
        <pt x="460" y="449" on="1"/>
        <pt x="460" y="365" on="1"/>
        <pt x="195" y="365" on="1"/>
        <pt x="195" y="286" on="1"/>
        <pt x="460" y="286" on="1"/>
        <pt x="460" y="202" on="1"/>
        <pt x="202" y="202" on="1"/>
        <pt x="213" y="138" on="0"/>
        <pt x="279" y="85" on="0"/>
        <pt x="421" y="85" on="0"/>
        <pt x="517" y="99" on="1"/>
        <pt x="520" y="11" on="1"/>
        <pt x="421" y="-11" on="0"/>
        <pt x="332" y="-11" on="1"/>
        <pt x="216" y="-11" on="0"/>
        <pt x="106" y="92" on="0"/>
        <pt x="91" y="202" on="1"/>
        <pt x="28" y="202" on="1"/>
        <pt x="28" y="286" on="1"/>
        <pt x="85" y="286" on="1"/>
        <pt x="84" y="300" on="0"/>
        <pt x="84" y="330" on="1"/>
        <pt x="84" y="365" on="1"/>
      </contour>
    </TTGlyph>
    <TTGlyph name="F" xMin="79" yMin="0" xMax="504" yMax="685">
      <contour>
        <pt x="79" y="0" on="1"/>
        <pt x="79" y="685" on="1"/>
        <pt x="504" y="685" on="1"/>
        <pt x="504" y="588" on="1"/>
        <pt x="190" y="588" on="1"/>
        <pt x="190" y="357" on="1"/>
        <pt x="451" y="357" on="1"/>
        <pt x="451" y="260" on="1"/>
        <pt x="190" y="260" on="1"/>
        <pt x="190" y="0" on="1"/>
      </contour>
    </TTGlyph>
    <TTGlyph name="G" xMin="50" yMin="-11" xMax="553" yMax="696">
      <contour>
        <pt x="358" y="262" on="1"/>
        <pt x="358" y="360" on="1"/>
        <pt x="553" y="360" on="1"/>
        <pt x="553" y="12" on="1"/>
        <pt x="526" y="5" on="0"/>
        <pt x="361" y="-11" on="0"/>
        <pt x="324" y="-11" on="1"/>
        <pt x="168" y="-11" on="0"/>
        <pt x="50" y="161" on="0"/>
        <pt x="50" y="528" on="0"/>
        <pt x="171" y="696" on="0"/>
        <pt x="320" y="696" on="1"/>
        <pt x="408" y="696" on="0"/>
        <pt x="518" y="676" on="1"/>
        <pt x="553" y="669" on="1"/>
        <pt x="549" y="581" on="1"/>
        <pt x="428" y="597" on="0"/>
        <pt x="236" y="597" on="0"/>
        <pt x="165" y="489" on="0"/>
        <pt x="165" y="197" on="0"/>
        <pt x="232" y="86" on="0"/>
        <pt x="334" y="86" on="1"/>
        <pt x="407" y="86" on="0"/>
        <pt x="443" y="95" on="1"/>
        <pt x="443" y="262" on="1"/>
      </contour>
    </TTGlyph>
    <TTGlyph name="Gbreve" xMin="50" yMin="-11" xMax="553" yMax="914">
      <contour>
        <pt x="358" y="262" on="1"/>
        <pt x="358" y="360" on="1"/>
        <pt x="553" y="360" on="1"/>
        <pt x="553" y="12" on="1"/>
        <pt x="526" y="5" on="0"/>
        <pt x="361" y="-11" on="0"/>
        <pt x="324" y="-11" on="1"/>
        <pt x="168" y="-11" on="0"/>
        <pt x="50" y="161" on="0"/>
        <pt x="50" y="528" on="0"/>
        <pt x="171" y="696" on="0"/>
        <pt x="320" y="696" on="1"/>
        <pt x="408" y="696" on="0"/>
        <pt x="518" y="676" on="1"/>
        <pt x="553" y="669" on="1"/>
        <pt x="549" y="581" on="1"/>
        <pt x="428" y="597" on="0"/>
        <pt x="236" y="597" on="0"/>
        <pt x="165" y="489" on="0"/>
        <pt x="165" y="197" on="0"/>
        <pt x="232" y="86" on="0"/>
        <pt x="334" y="86" on="1"/>
        <pt x="407" y="86" on="0"/>
        <pt x="443" y="95" on="1"/>
        <pt x="443" y="262" on="1"/>
      </contour>
      <contour>
        <pt x="252" y="885" on="0"/>
        <pt x="293" y="849" on="0"/>
        <pt x="357" y="849" on="0"/>
        <pt x="398" y="885" on="0"/>
        <pt x="400" y="914" on="1"/>
        <pt x="499" y="914" on="1"/>
        <pt x="493" y="849" on="0"/>
        <pt x="403" y="771" on="0"/>
        <pt x="246" y="771" on="0"/>
        <pt x="156" y="849" on="0"/>
        <pt x="151" y="914" on="1"/>
        <pt x="250" y="914" on="1"/>
      </contour>
    </TTGlyph>
    <TTGlyph name="Gcircumflex" xMin="50" yMin="-10" xMax="553" yMax="918">
      <contour>
        <pt x="358" y="263" on="1"/>
        <pt x="358" y="361" on="1"/>
        <pt x="553" y="361" on="1"/>
        <pt x="553" y="13" on="1"/>
        <pt x="526" y="6" on="0"/>
        <pt x="361" y="-10" on="0"/>
        <pt x="324" y="-10" on="1"/>
        <pt x="168" y="-10" on="0"/>
        <pt x="50" y="162" on="0"/>
        <pt x="50" y="529" on="0"/>
        <pt x="171" y="697" on="0"/>
        <pt x="320" y="697" on="1"/>
        <pt x="418" y="697" on="0"/>
        <pt x="518" y="677" on="1"/>
        <pt x="553" y="670" on="1"/>
        <pt x="549" y="582" on="1"/>
        <pt x="428" y="598" on="0"/>
        <pt x="236" y="598" on="0"/>
        <pt x="165" y="490" on="0"/>
        <pt x="165" y="198" on="0"/>
        <pt x="232" y="87" on="0"/>
        <pt x="334" y="87" on="1"/>
        <pt x="407" y="87" on="0"/>
        <pt x="443" y="96" on="1"/>
        <pt x="443" y="263" on="1"/>
      </contour>
      <contour>
        <pt x="145" y="775" on="1"/>
        <pt x="279" y="918" on="1"/>
        <pt x="373" y="918" on="1"/>
        <pt x="507" y="775" on="1"/>
        <pt x="391" y="775" on="1"/>
        <pt x="327" y="842" on="1"/>
        <pt x="262" y="775" on="1"/>
      </contour>
    </TTGlyph>
    <TTGlyph name="Gcommaaccent" xMin="50" yMin="-300" xMax="553" yMax="696">
      <contour>
        <pt x="358" y="262" on="1"/>
        <pt x="358" y="360" on="1"/>
        <pt x="553" y="360" on="1"/>
        <pt x="553" y="12" on="1"/>
        <pt x="526" y="5" on="0"/>
        <pt x="361" y="-11" on="0"/>
        <pt x="324" y="-11" on="1"/>
        <pt x="168" y="-11" on="0"/>
        <pt x="50" y="161" on="0"/>
        <pt x="50" y="528" on="0"/>
        <pt x="171" y="696" on="0"/>
        <pt x="320" y="696" on="1"/>
        <pt x="408" y="696" on="0"/>
        <pt x="518" y="676" on="1"/>
        <pt x="553" y="669" on="1"/>
        <pt x="549" y="581" on="1"/>
        <pt x="428" y="597" on="0"/>
        <pt x="236" y="597" on="0"/>
        <pt x="165" y="489" on="0"/>
        <pt x="165" y="197" on="0"/>
        <pt x="232" y="86" on="0"/>
        <pt x="334" y="86" on="1"/>
        <pt x="407" y="86" on="0"/>
        <pt x="443" y="95" on="1"/>
        <pt x="443" y="262" on="1"/>
      </contour>
      <contour>
        <pt x="281" y="-77" on="1"/>
        <pt x="387" y="-77" on="1"/>
        <pt x="334" y="-300" on="1"/>
        <pt x="237" y="-300" on="1"/>
      </contour>
    </TTGlyph>
    <TTGlyph name="Gdotaccent" xMin="50" yMin="-11" xMax="553" yMax="896">
      <contour>
        <pt x="358" y="262" on="1"/>
        <pt x="358" y="360" on="1"/>
        <pt x="553" y="360" on="1"/>
        <pt x="553" y="12" on="1"/>
        <pt x="526" y="5" on="0"/>
        <pt x="361" y="-11" on="0"/>
        <pt x="324" y="-11" on="1"/>
        <pt x="168" y="-11" on="0"/>
        <pt x="50" y="161" on="0"/>
        <pt x="50" y="528" on="0"/>
        <pt x="171" y="696" on="0"/>
        <pt x="320" y="696" on="1"/>
        <pt x="408" y="696" on="0"/>
        <pt x="518" y="676" on="1"/>
        <pt x="553" y="669" on="1"/>
        <pt x="549" y="581" on="1"/>
        <pt x="428" y="597" on="0"/>
        <pt x="236" y="597" on="0"/>
        <pt x="165" y="489" on="0"/>
        <pt x="165" y="197" on="0"/>
        <pt x="232" y="86" on="0"/>
        <pt x="334" y="86" on="1"/>
        <pt x="407" y="86" on="0"/>
        <pt x="443" y="95" on="1"/>
        <pt x="443" y="262" on="1"/>
      </contour>
      <contour>
        <pt x="258" y="782" on="1"/>
        <pt x="258" y="896" on="1"/>
        <pt x="366" y="896" on="1"/>
        <pt x="366" y="782" on="1"/>
      </contour>
    </TTGlyph>
    <TTGlyph name="H" xMin="79" yMin="0" xMax="598" yMax="685">
      <contour>
        <pt x="486" y="0" on="1"/>
        <pt x="486" y="296" on="1"/>
        <pt x="190" y="296" on="1"/>
        <pt x="190" y="0" on="1"/>
        <pt x="79" y="0" on="1"/>
        <pt x="79" y="685" on="1"/>
        <pt x="190" y="685" on="1"/>
        <pt x="190" y="393" on="1"/>
        <pt x="486" y="393" on="1"/>
        <pt x="486" y="685" on="1"/>
        <pt x="598" y="685" on="1"/>
        <pt x="598" y="0" on="1"/>
      </contour>
    </TTGlyph>
    <TTGlyph name="Hbar" xMin="17" yMin="0" xMax="675" yMax="685">
      <contour>
        <pt x="17" y="495" on="1"/>
        <pt x="17" y="590" on="1"/>
        <pt x="83" y="590" on="1"/>
        <pt x="83" y="685" on="1"/>
        <pt x="194" y="685" on="1"/>
        <pt x="194" y="590" on="1"/>
        <pt x="490" y="590" on="1"/>
        <pt x="490" y="685" on="1"/>
        <pt x="602" y="685" on="1"/>
        <pt x="602" y="590" on="1"/>
        <pt x="675" y="590" on="1"/>
        <pt x="675" y="495" on="1"/>
        <pt x="602" y="495" on="1"/>
        <pt x="602" y="0" on="1"/>
        <pt x="490" y="0" on="1"/>
        <pt x="490" y="296" on="1"/>
        <pt x="194" y="296" on="1"/>
        <pt x="194" y="0" on="1"/>
        <pt x="83" y="0" on="1"/>
        <pt x="83" y="495" on="1"/>
      </contour>
      <contour>
        <pt x="194" y="393" on="1"/>
        <pt x="490" y="393" on="1"/>
        <pt x="490" y="495" on="1"/>
        <pt x="194" y="495" on="1"/>
      </contour>
    </TTGlyph>
    <TTGlyph name="Hcircumflex" xMin="79" yMin="0" xMax="598" yMax="919">
      <contour>
        <pt x="486" y="0" on="1"/>
        <pt x="486" y="296" on="1"/>
        <pt x="190" y="296" on="1"/>
        <pt x="190" y="0" on="1"/>
        <pt x="79" y="0" on="1"/>
        <pt x="79" y="685" on="1"/>
        <pt x="190" y="685" on="1"/>
        <pt x="190" y="393" on="1"/>
        <pt x="486" y="393" on="1"/>
        <pt x="486" y="685" on="1"/>
        <pt x="598" y="685" on="1"/>
        <pt x="598" y="0" on="1"/>
      </contour>
      <contour>
        <pt x="157" y="776" on="1"/>
        <pt x="291" y="919" on="1"/>
        <pt x="385" y="919" on="1"/>
        <pt x="519" y="776" on="1"/>
        <pt x="403" y="776" on="1"/>
        <pt x="339" y="843" on="1"/>
        <pt x="274" y="776" on="1"/>
      </contour>
    </TTGlyph>
    <TTGlyph name="I" xMin="79" yMin="0" xMax="190" yMax="685">
      <contour>
        <pt x="79" y="0" on="1"/>
        <pt x="79" y="685" on="1"/>
        <pt x="190" y="685" on="1"/>
        <pt x="190" y="0" on="1"/>
      </contour>
    </TTGlyph>
    <TTGlyph name="Iacute" xMin="10" yMin="0" xMax="281" yMax="939">
      <contour>
        <pt x="79" y="0" on="1"/>
        <pt x="79" y="685" on="1"/>
        <pt x="190" y="685" on="1"/>
        <pt x="190" y="0" on="1"/>
      </contour>
      <contour>
        <pt x="10" y="836" on="1"/>
        <pt x="246" y="939" on="1"/>
        <pt x="281" y="842" on="1"/>
        <pt x="38" y="760" on="1"/>
      </contour>
    </TTGlyph>
    <TTGlyph name="Ibreve" xMin="-26" yMin="0" xMax="322" yMax="914">
      <contour>
        <pt x="79" y="0" on="1"/>
        <pt x="79" y="685" on="1"/>
        <pt x="190" y="685" on="1"/>
        <pt x="190" y="0" on="1"/>
      </contour>
      <contour>
        <pt x="75" y="885" on="0"/>
        <pt x="116" y="849" on="0"/>
        <pt x="180" y="849" on="0"/>
        <pt x="221" y="885" on="0"/>
        <pt x="223" y="914" on="1"/>
        <pt x="322" y="914" on="1"/>
        <pt x="316" y="849" on="0"/>
        <pt x="226" y="771" on="0"/>
        <pt x="69" y="771" on="0"/>
        <pt x="-21" y="849" on="0"/>
        <pt x="-26" y="914" on="1"/>
        <pt x="73" y="914" on="1"/>
      </contour>
    </TTGlyph>
    <TTGlyph name="Icircumflex" xMin="-49" yMin="0" xMax="313" yMax="919">
      <contour>
        <pt x="79" y="0" on="1"/>
        <pt x="79" y="685" on="1"/>
        <pt x="190" y="685" on="1"/>
        <pt x="190" y="0" on="1"/>
      </contour>
      <contour>
        <pt x="-49" y="776" on="1"/>
        <pt x="85" y="919" on="1"/>
        <pt x="179" y="919" on="1"/>
        <pt x="313" y="776" on="1"/>
        <pt x="197" y="776" on="1"/>
        <pt x="133" y="843" on="1"/>
        <pt x="68" y="776" on="1"/>
      </contour>
    </TTGlyph>
    <TTGlyph name="Idieresis" xMin="-22" yMin="0" xMax="291" yMax="897">
      <contour>
        <pt x="79" y="0" on="1"/>
        <pt x="79" y="685" on="1"/>
        <pt x="190" y="685" on="1"/>
        <pt x="190" y="0" on="1"/>
      </contour>
      <contour>
        <pt x="-22" y="783" on="1"/>
        <pt x="-22" y="897" on="1"/>
        <pt x="82" y="897" on="1"/>
        <pt x="82" y="783" on="1"/>
      </contour>
      <contour>
        <pt x="187" y="783" on="1"/>
        <pt x="187" y="897" on="1"/>
        <pt x="291" y="897" on="1"/>
        <pt x="291" y="783" on="1"/>
      </contour>
    </TTGlyph>
    <TTGlyph name="Idotaccent" xMin="79" yMin="0" xMax="190" yMax="896">
      <contour>
        <pt x="79" y="0" on="1"/>
        <pt x="79" y="685" on="1"/>
        <pt x="190" y="685" on="1"/>
        <pt x="190" y="0" on="1"/>
      </contour>
      <contour>
        <pt x="80" y="782" on="1"/>
        <pt x="80" y="896" on="1"/>
        <pt x="188" y="896" on="1"/>
        <pt x="188" y="782" on="1"/>
      </contour>
    </TTGlyph>
    <TTGlyph name="Igrave" xMin="-23" yMin="0" xMax="248" yMax="939">
      <contour>
        <pt x="79" y="0" on="1"/>
        <pt x="79" y="685" on="1"/>
        <pt x="190" y="685" on="1"/>
        <pt x="190" y="0" on="1"/>
      </contour>
      <contour>
        <pt x="12" y="939" on="1"/>
        <pt x="248" y="836" on="1"/>
        <pt x="220" y="760" on="1"/>
        <pt x="-23" y="842" on="1"/>
      </contour>
    </TTGlyph>
    <TTGlyph name="Imacron" xMin="-29" yMin="0" xMax="303" yMax="876">
      <contour>
        <pt x="79" y="0" on="1"/>
        <pt x="79" y="685" on="1"/>
        <pt x="190" y="685" on="1"/>
        <pt x="190" y="0" on="1"/>
      </contour>
      <contour>
        <pt x="-29" y="795" on="1"/>
        <pt x="-29" y="876" on="1"/>
        <pt x="303" y="876" on="1"/>
        <pt x="303" y="795" on="1"/>
      </contour>
    </TTGlyph>
    <TTGlyph name="Iogonek" xMin="17" yMin="-212" xMax="211" yMax="685">
      <contour>
        <pt x="79" y="0" on="1"/>
        <pt x="79" y="685" on="1"/>
        <pt x="190" y="685" on="1"/>
        <pt x="190" y="0" on="1"/>
        <pt x="167" y="-17" on="0"/>
        <pt x="120" y="-75" on="0"/>
        <pt x="120" y="-107" on="0"/>
        <pt x="140" y="-128" on="0"/>
        <pt x="155" y="-128" on="1"/>
        <pt x="201" y="-123" on="1"/>
        <pt x="211" y="-202" on="1"/>
        <pt x="158" y="-212" on="0"/>
        <pt x="74" y="-212" on="0"/>
        <pt x="17" y="-162" on="0"/>
        <pt x="17" y="-119" on="1"/>
        <pt x="17" y="-56" on="0"/>
        <pt x="88" y="0" on="1"/>
      </contour>
    </TTGlyph>
    <TTGlyph name="Itilde" xMin="-50" yMin="0" xMax="314" yMax="923">
      <contour>
        <pt x="79" y="0" on="1"/>
        <pt x="79" y="685" on="1"/>
        <pt x="190" y="685" on="1"/>
        <pt x="190" y="0" on="1"/>
      </contour>
      <contour>
        <pt x="238" y="777" on="0"/>
        <pt x="190" y="777" on="0"/>
        <pt x="64" y="827" on="0"/>
        <pt x="51" y="827" on="1"/>
        <pt x="26" y="827" on="0"/>
        <pt x="-13" y="794" on="1"/>
        <pt x="-26" y="783" on="1"/>
        <pt x="-50" y="861" on="1"/>
        <pt x="-44" y="868" on="0"/>
        <pt x="-25" y="889" on="0"/>
        <pt x="28" y="923" on="0"/>
        <pt x="80" y="923" on="0"/>
        <pt x="203" y="873" on="0"/>
        <pt x="214" y="873" on="1"/>
        <pt x="236" y="873" on="0"/>
        <pt x="276" y="906" on="1"/>
        <pt x="290" y="917" on="1"/>
        <pt x="314" y="838" on="1"/>
        <pt x="299" y="817" on="0"/>
      </contour>
    </TTGlyph>
    <TTGlyph name="J" xMin="19" yMin="-71" xMax="222" yMax="685">
      <contour>
        <pt x="19" y="-71" on="1"/>
        <pt x="19" y="27" on="1"/>
        <pt x="72" y="27" on="0"/>
        <pt x="111" y="59" on="0"/>
        <pt x="111" y="114" on="1"/>
        <pt x="111" y="685" on="1"/>
        <pt x="221" y="685" on="1"/>
        <pt x="222" y="106" on="1"/>
        <pt x="222" y="-1" on="0"/>
        <pt x="132" y="-71" on="0"/>
      </contour>
    </TTGlyph>
    <TTGlyph name="Jcircumflex" xMin="-15" yMin="-71" xMax="347" yMax="918">
      <contour>
        <pt x="19" y="-71" on="1"/>
        <pt x="19" y="27" on="1"/>
        <pt x="72" y="27" on="0"/>
        <pt x="111" y="59" on="0"/>
        <pt x="111" y="114" on="1"/>
        <pt x="111" y="685" on="1"/>
        <pt x="221" y="685" on="1"/>
        <pt x="222" y="106" on="1"/>
        <pt x="222" y="-1" on="0"/>
        <pt x="132" y="-71" on="0"/>
      </contour>
      <contour>
        <pt x="-15" y="775" on="1"/>
        <pt x="119" y="918" on="1"/>
        <pt x="213" y="918" on="1"/>
        <pt x="347" y="775" on="1"/>
        <pt x="231" y="775" on="1"/>
        <pt x="167" y="842" on="1"/>
        <pt x="102" y="775" on="1"/>
      </contour>
    </TTGlyph>
    <TTGlyph name="K" xMin="79" yMin="0" xMax="566" yMax="685">
      <contour>
        <pt x="190" y="0" on="1"/>
        <pt x="79" y="0" on="1"/>
        <pt x="79" y="685" on="1"/>
        <pt x="190" y="685" on="1"/>
        <pt x="190" y="376" on="1"/>
        <pt x="292" y="384" on="1"/>
        <pt x="432" y="685" on="1"/>
        <pt x="559" y="685" on="1"/>
        <pt x="390" y="341" on="1"/>
        <pt x="566" y="0" on="1"/>
        <pt x="437" y="0" on="1"/>
        <pt x="292" y="286" on="1"/>
        <pt x="190" y="279" on="1"/>
      </contour>
    </TTGlyph>
    <TTGlyph name="Kcommaaccent" xMin="79" yMin="-300" xMax="566" yMax="693">
      <contour>
        <pt x="190" y="0" on="1"/>
        <pt x="79" y="0" on="1"/>
        <pt x="79" y="693" on="1"/>
        <pt x="190" y="693" on="1"/>
        <pt x="190" y="386" on="1"/>
        <pt x="290" y="393" on="1"/>
        <pt x="430" y="693" on="1"/>
        <pt x="559" y="693" on="1"/>
        <pt x="390" y="347" on="1"/>
        <pt x="566" y="0" on="1"/>
        <pt x="437" y="0" on="1"/>
        <pt x="292" y="286" on="1"/>
        <pt x="190" y="279" on="1"/>
      </contour>
      <contour>
        <pt x="253" y="-77" on="1"/>
        <pt x="359" y="-77" on="1"/>
        <pt x="306" y="-300" on="1"/>
        <pt x="210" y="-300" on="1"/>
      </contour>
    </TTGlyph>
    <TTGlyph name="L" xMin="79" yMin="0" xMax="463" yMax="685">
      <contour>
        <pt x="463" y="0" on="1"/>
        <pt x="79" y="0" on="1"/>
        <pt x="79" y="685" on="1"/>
        <pt x="190" y="685" on="1"/>
        <pt x="190" y="99" on="1"/>
        <pt x="463" y="99" on="1"/>
      </contour>
    </TTGlyph>
    <TTGlyph name="Lacute" xMin="79" yMin="0" xMax="463" yMax="939">
      <contour>
        <pt x="463" y="0" on="1"/>
        <pt x="79" y="0" on="1"/>
        <pt x="79" y="693" on="1"/>
        <pt x="190" y="693" on="1"/>
        <pt x="190" y="107" on="1"/>
        <pt x="463" y="107" on="1"/>
      </contour>
      <contour>
        <pt x="120" y="836" on="1"/>
        <pt x="356" y="939" on="1"/>
        <pt x="391" y="842" on="1"/>
        <pt x="148" y="760" on="1"/>
      </contour>
    </TTGlyph>
    <TTGlyph name="Lcaron" xMin="79" yMin="0" xMax="463" yMax="693">
      <contour>
        <pt x="451" y="693" on="1"/>
        <pt x="451" y="444" on="1"/>
        <pt x="346" y="444" on="1"/>
        <pt x="346" y="693" on="1"/>
      </contour>
      <contour>
        <pt x="463" y="0" on="1"/>
        <pt x="79" y="0" on="1"/>
        <pt x="79" y="685" on="1"/>
        <pt x="190" y="685" on="1"/>
        <pt x="190" y="99" on="1"/>
        <pt x="463" y="99" on="1"/>
      </contour>
    </TTGlyph>
    <TTGlyph name="Lcommaaccent" xMin="79" yMin="-300" xMax="463" yMax="685">
      <contour>
        <pt x="220" y="-77" on="1"/>
        <pt x="326" y="-77" on="1"/>
        <pt x="273" y="-300" on="1"/>
        <pt x="176" y="-300" on="1"/>
      </contour>
      <contour>
        <pt x="463" y="0" on="1"/>
        <pt x="79" y="0" on="1"/>
        <pt x="79" y="685" on="1"/>
        <pt x="190" y="685" on="1"/>
        <pt x="190" y="99" on="1"/>
        <pt x="463" y="99" on="1"/>
      </contour>
    </TTGlyph>
    <TTGlyph name="Lslash" xMin="-15" yMin="0" xMax="470" yMax="685">
      <contour>
        <pt x="470" y="0" on="1"/>
        <pt x="86" y="0" on="1"/>
        <pt x="86" y="240" on="1"/>
        <pt x="38" y="207" on="1"/>
        <pt x="-15" y="281" on="1"/>
        <pt x="86" y="351" on="1"/>
        <pt x="86" y="685" on="1"/>
        <pt x="197" y="685" on="1"/>
        <pt x="197" y="429" on="1"/>
        <pt x="315" y="512" on="1"/>
        <pt x="368" y="439" on="1"/>
        <pt x="197" y="318" on="1"/>
        <pt x="197" y="99" on="1"/>
        <pt x="470" y="99" on="1"/>
      </contour>
    </TTGlyph>
    <TTGlyph name="M" xMin="79" yMin="0" xMax="772" yMax="685">
      <contour>
        <pt x="79" y="0" on="1"/>
        <pt x="79" y="685" on="1"/>
        <pt x="272" y="685" on="1"/>
        <pt x="425" y="150" on="1"/>
        <pt x="578" y="685" on="1"/>
        <pt x="772" y="685" on="1"/>
        <pt x="772" y="0" on="1"/>
        <pt x="660" y="0" on="1"/>
        <pt x="660" y="562" on="1"/>
        <pt x="645" y="562" on="1"/>
        <pt x="483" y="28" on="1"/>
        <pt x="367" y="28" on="1"/>
        <pt x="205" y="562" on="1"/>
        <pt x="190" y="562" on="1"/>
        <pt x="190" y="0" on="1"/>
      </contour>
    </TTGlyph>
    <TTGlyph name="N" xMin="79" yMin="0" xMax="607" yMax="685">
      <contour>
        <pt x="79" y="0" on="1"/>
        <pt x="79" y="685" on="1"/>
        <pt x="273" y="685" on="1"/>
        <pt x="481" y="98" on="1"/>
        <pt x="496" y="98" on="1"/>
        <pt x="496" y="685" on="1"/>
        <pt x="607" y="685" on="1"/>
        <pt x="607" y="0" on="1"/>
        <pt x="417" y="0" on="1"/>
        <pt x="204" y="588" on="1"/>
        <pt x="190" y="588" on="1"/>
        <pt x="190" y="0" on="1"/>
      </contour>
    </TTGlyph>
    <TTGlyph name="Nacute" xMin="79" yMin="0" xMax="607" yMax="939">
      <contour>
        <pt x="79" y="0" on="1"/>
        <pt x="79" y="685" on="1"/>
        <pt x="273" y="685" on="1"/>
        <pt x="481" y="98" on="1"/>
        <pt x="496" y="98" on="1"/>
        <pt x="496" y="685" on="1"/>
        <pt x="607" y="685" on="1"/>
        <pt x="607" y="0" on="1"/>
        <pt x="417" y="0" on="1"/>
        <pt x="204" y="588" on="1"/>
        <pt x="190" y="588" on="1"/>
        <pt x="190" y="0" on="1"/>
      </contour>
      <contour>
        <pt x="210" y="836" on="1"/>
        <pt x="446" y="939" on="1"/>
        <pt x="481" y="842" on="1"/>
        <pt x="238" y="760" on="1"/>
      </contour>
    </TTGlyph>
    <TTGlyph name="Ncaron" xMin="79" yMin="0" xMax="607" yMax="918">
      <contour>
        <pt x="79" y="0" on="1"/>
        <pt x="79" y="685" on="1"/>
        <pt x="273" y="685" on="1"/>
        <pt x="481" y="98" on="1"/>
        <pt x="496" y="98" on="1"/>
        <pt x="496" y="685" on="1"/>
        <pt x="607" y="685" on="1"/>
        <pt x="607" y="0" on="1"/>
        <pt x="417" y="0" on="1"/>
        <pt x="204" y="588" on="1"/>
        <pt x="190" y="588" on="1"/>
        <pt x="190" y="0" on="1"/>
      </contour>
      <contour>
        <pt x="297" y="775" on="1"/>
        <pt x="163" y="918" on="1"/>
        <pt x="280" y="918" on="1"/>
        <pt x="345" y="852" on="1"/>
        <pt x="408" y="918" on="1"/>
        <pt x="525" y="918" on="1"/>
        <pt x="391" y="775" on="1"/>
      </contour>
    </TTGlyph>
    <TTGlyph name="Ncommaaccent" xMin="79" yMin="-300" xMax="607" yMax="685">
      <contour>
        <pt x="310" y="-77" on="1"/>
        <pt x="415" y="-77" on="1"/>
        <pt x="363" y="-300" on="1"/>
        <pt x="266" y="-300" on="1"/>
      </contour>
      <contour>
        <pt x="79" y="0" on="1"/>
        <pt x="79" y="685" on="1"/>
        <pt x="273" y="685" on="1"/>
        <pt x="481" y="98" on="1"/>
        <pt x="496" y="98" on="1"/>
        <pt x="496" y="685" on="1"/>
        <pt x="607" y="685" on="1"/>
        <pt x="607" y="0" on="1"/>
        <pt x="417" y="0" on="1"/>
        <pt x="204" y="588" on="1"/>
        <pt x="190" y="588" on="1"/>
        <pt x="190" y="0" on="1"/>
      </contour>
    </TTGlyph>
    <TTGlyph name="Ntilde" xMin="79" yMin="0" xMax="607" yMax="923">
      <contour>
        <pt x="79" y="0" on="1"/>
        <pt x="79" y="685" on="1"/>
        <pt x="273" y="685" on="1"/>
        <pt x="481" y="98" on="1"/>
        <pt x="496" y="98" on="1"/>
        <pt x="496" y="685" on="1"/>
        <pt x="607" y="685" on="1"/>
        <pt x="607" y="0" on="1"/>
        <pt x="417" y="0" on="1"/>
        <pt x="204" y="588" on="1"/>
        <pt x="190" y="588" on="1"/>
        <pt x="190" y="0" on="1"/>
      </contour>
      <contour>
        <pt x="445" y="777" on="0"/>
        <pt x="397" y="777" on="0"/>
        <pt x="271" y="827" on="0"/>
        <pt x="258" y="827" on="1"/>
        <pt x="233" y="827" on="0"/>
        <pt x="194" y="794" on="1"/>
        <pt x="181" y="783" on="1"/>
        <pt x="157" y="861" on="1"/>
        <pt x="163" y="868" on="0"/>
        <pt x="182" y="889" on="0"/>
        <pt x="235" y="923" on="0"/>
        <pt x="287" y="923" on="0"/>
        <pt x="410" y="873" on="0"/>
        <pt x="421" y="873" on="1"/>
        <pt x="443" y="873" on="0"/>
        <pt x="484" y="906" on="1"/>
        <pt x="497" y="917" on="1"/>
        <pt x="521" y="838" on="1"/>
        <pt x="506" y="817" on="0"/>
      </contour>
    </TTGlyph>
    <TTGlyph name="O" xMin="49" yMin="-11" xMax="606" yMax="696">
      <contour>
        <pt x="232" y="86" on="0"/>
        <pt x="424" y="86" on="0"/>
        <pt x="491" y="202" on="0"/>
        <pt x="491" y="475" on="0"/>
        <pt x="422" y="599" on="0"/>
        <pt x="234" y="599" on="0"/>
        <pt x="164" y="475" on="0"/>
        <pt x="164" y="204" on="0"/>
      </contour>
      <contour>
        <pt x="483" y="-11" on="0"/>
        <pt x="173" y="-11" on="0"/>
        <pt x="49" y="158" on="0"/>
        <pt x="49" y="520" on="0"/>
        <pt x="174" y="696" on="0"/>
        <pt x="482" y="696" on="0"/>
        <pt x="606" y="521" on="0"/>
        <pt x="606" y="157" on="0"/>
      </contour>
    </TTGlyph>
    <TTGlyph name="OE" xMin="51" yMin="-11" xMax="868" yMax="704">
      <contour>
        <pt x="868" y="0" on="1"/>
        <pt x="442" y="0" on="1"/>
        <pt x="370" y="-11" on="0"/>
        <pt x="234" y="-11" on="0"/>
        <pt x="131" y="32" on="0"/>
        <pt x="74" y="126" on="0"/>
        <pt x="51" y="251" on="0"/>
        <pt x="51" y="345" on="1"/>
        <pt x="51" y="538" on="0"/>
        <pt x="167" y="704" on="0"/>
        <pt x="313" y="704" on="1"/>
        <pt x="372" y="704" on="0"/>
        <pt x="440" y="693" on="1"/>
        <pt x="868" y="693" on="1"/>
        <pt x="868" y="586" on="1"/>
        <pt x="550" y="586" on="1"/>
        <pt x="550" y="405" on="1"/>
        <pt x="808" y="405" on="1"/>
        <pt x="808" y="299" on="1"/>
        <pt x="550" y="299" on="1"/>
        <pt x="550" y="107" on="1"/>
        <pt x="868" y="107" on="1"/>
      </contour>
      <contour>
        <pt x="331" y="98" on="1"/>
        <pt x="361" y="98" on="0"/>
        <pt x="440" y="105" on="1"/>
        <pt x="440" y="587" on="1"/>
        <pt x="358" y="594" on="0"/>
        <pt x="328" y="594" on="1"/>
        <pt x="234" y="594" on="0"/>
        <pt x="166" y="488" on="0"/>
        <pt x="166" y="204" on="0"/>
        <pt x="231" y="98" on="0"/>
      </contour>
    </TTGlyph>
    <TTGlyph name="Oacute" xMin="49" yMin="-11" xMax="606" yMax="939">
      <contour>
        <pt x="232" y="86" on="0"/>
        <pt x="424" y="86" on="0"/>
        <pt x="491" y="202" on="0"/>
        <pt x="491" y="475" on="0"/>
        <pt x="422" y="599" on="0"/>
        <pt x="234" y="599" on="0"/>
        <pt x="164" y="475" on="0"/>
        <pt x="164" y="204" on="0"/>
      </contour>
      <contour>
        <pt x="483" y="-11" on="0"/>
        <pt x="173" y="-11" on="0"/>
        <pt x="49" y="158" on="0"/>
        <pt x="49" y="520" on="0"/>
        <pt x="174" y="696" on="0"/>
        <pt x="482" y="696" on="0"/>
        <pt x="606" y="521" on="0"/>
        <pt x="606" y="157" on="0"/>
      </contour>
      <contour>
        <pt x="181" y="836" on="1"/>
        <pt x="417" y="939" on="1"/>
        <pt x="452" y="842" on="1"/>
        <pt x="209" y="760" on="1"/>
      </contour>
    </TTGlyph>
    <TTGlyph name="Obreve" xMin="49" yMin="-11" xMax="606" yMax="914">
      <contour>
        <pt x="232" y="86" on="0"/>
        <pt x="424" y="86" on="0"/>
        <pt x="491" y="202" on="0"/>
        <pt x="491" y="475" on="0"/>
        <pt x="422" y="599" on="0"/>
        <pt x="234" y="599" on="0"/>
        <pt x="164" y="475" on="0"/>
        <pt x="164" y="204" on="0"/>
      </contour>
      <contour>
        <pt x="483" y="-11" on="0"/>
        <pt x="173" y="-11" on="0"/>
        <pt x="49" y="158" on="0"/>
        <pt x="49" y="520" on="0"/>
        <pt x="174" y="696" on="0"/>
        <pt x="482" y="696" on="0"/>
        <pt x="606" y="521" on="0"/>
        <pt x="606" y="157" on="0"/>
      </contour>
      <contour>
        <pt x="256" y="885" on="0"/>
        <pt x="297" y="849" on="0"/>
        <pt x="361" y="849" on="0"/>
        <pt x="402" y="885" on="0"/>
        <pt x="404" y="914" on="1"/>
        <pt x="503" y="914" on="1"/>
        <pt x="497" y="849" on="0"/>
        <pt x="407" y="771" on="0"/>
        <pt x="250" y="771" on="0"/>
        <pt x="160" y="849" on="0"/>
        <pt x="155" y="914" on="1"/>
        <pt x="254" y="914" on="1"/>
      </contour>
    </TTGlyph>
    <TTGlyph name="Ocircumflex" xMin="49" yMin="-11" xMax="606" yMax="919">
      <contour>
        <pt x="232" y="86" on="0"/>
        <pt x="424" y="86" on="0"/>
        <pt x="491" y="202" on="0"/>
        <pt x="491" y="475" on="0"/>
        <pt x="422" y="599" on="0"/>
        <pt x="234" y="599" on="0"/>
        <pt x="164" y="475" on="0"/>
        <pt x="164" y="204" on="0"/>
      </contour>
      <contour>
        <pt x="483" y="-11" on="0"/>
        <pt x="173" y="-11" on="0"/>
        <pt x="49" y="158" on="0"/>
        <pt x="49" y="520" on="0"/>
        <pt x="174" y="696" on="0"/>
        <pt x="482" y="696" on="0"/>
        <pt x="606" y="521" on="0"/>
        <pt x="606" y="157" on="0"/>
      </contour>
      <contour>
        <pt x="148" y="776" on="1"/>
        <pt x="282" y="919" on="1"/>
        <pt x="376" y="919" on="1"/>
        <pt x="510" y="776" on="1"/>
        <pt x="394" y="776" on="1"/>
        <pt x="330" y="843" on="1"/>
        <pt x="265" y="776" on="1"/>
      </contour>
    </TTGlyph>
    <TTGlyph name="Odieresis" xMin="49" yMin="-11" xMax="606" yMax="897">
      <contour>
        <pt x="232" y="86" on="0"/>
        <pt x="424" y="86" on="0"/>
        <pt x="491" y="202" on="0"/>
        <pt x="491" y="475" on="0"/>
        <pt x="422" y="599" on="0"/>
        <pt x="234" y="599" on="0"/>
        <pt x="164" y="475" on="0"/>
        <pt x="164" y="204" on="0"/>
      </contour>
      <contour>
        <pt x="483" y="-11" on="0"/>
        <pt x="173" y="-11" on="0"/>
        <pt x="49" y="158" on="0"/>
        <pt x="49" y="520" on="0"/>
        <pt x="174" y="696" on="0"/>
        <pt x="482" y="696" on="0"/>
        <pt x="606" y="521" on="0"/>
        <pt x="606" y="157" on="0"/>
      </contour>
      <contour>
        <pt x="172" y="783" on="1"/>
        <pt x="172" y="897" on="1"/>
        <pt x="276" y="897" on="1"/>
        <pt x="276" y="783" on="1"/>
      </contour>
      <contour>
        <pt x="381" y="783" on="1"/>
        <pt x="381" y="897" on="1"/>
        <pt x="485" y="897" on="1"/>
        <pt x="485" y="783" on="1"/>
      </contour>
    </TTGlyph>
    <TTGlyph name="Ograve" xMin="49" yMin="-11" xMax="606" yMax="939">
      <contour>
        <pt x="232" y="86" on="0"/>
        <pt x="424" y="86" on="0"/>
        <pt x="491" y="202" on="0"/>
        <pt x="491" y="475" on="0"/>
        <pt x="422" y="599" on="0"/>
        <pt x="234" y="599" on="0"/>
        <pt x="164" y="475" on="0"/>
        <pt x="164" y="204" on="0"/>
      </contour>
      <contour>
        <pt x="483" y="-11" on="0"/>
        <pt x="173" y="-11" on="0"/>
        <pt x="49" y="158" on="0"/>
        <pt x="49" y="520" on="0"/>
        <pt x="174" y="696" on="0"/>
        <pt x="482" y="696" on="0"/>
        <pt x="606" y="521" on="0"/>
        <pt x="606" y="157" on="0"/>
      </contour>
      <contour>
        <pt x="214" y="939" on="1"/>
        <pt x="450" y="836" on="1"/>
        <pt x="422" y="760" on="1"/>
        <pt x="179" y="842" on="1"/>
      </contour>
    </TTGlyph>
    <TTGlyph name="Ohungarumlaut" xMin="49" yMin="-11" xMax="606" yMax="949">
      <contour>
        <pt x="232" y="86" on="0"/>
        <pt x="424" y="86" on="0"/>
        <pt x="491" y="202" on="0"/>
        <pt x="491" y="475" on="0"/>
        <pt x="422" y="599" on="0"/>
        <pt x="234" y="599" on="0"/>
        <pt x="164" y="475" on="0"/>
        <pt x="164" y="204" on="0"/>
      </contour>
      <contour>
        <pt x="483" y="-11" on="0"/>
        <pt x="173" y="-11" on="0"/>
        <pt x="49" y="158" on="0"/>
        <pt x="49" y="520" on="0"/>
        <pt x="174" y="696" on="0"/>
        <pt x="482" y="696" on="0"/>
        <pt x="606" y="521" on="0"/>
        <pt x="606" y="157" on="0"/>
      </contour>
      <contour>
        <pt x="358" y="779" on="1"/>
        <pt x="457" y="948" on="1"/>
        <pt x="547" y="909" on="1"/>
        <pt x="439" y="745" on="1"/>
      </contour>
      <contour>
        <pt x="154" y="780" on="1"/>
        <pt x="254" y="949" on="1"/>
        <pt x="343" y="910" on="1"/>
        <pt x="236" y="746" on="1"/>
      </contour>
    </TTGlyph>
    <TTGlyph name="Omacron" xMin="49" yMin="-11" xMax="606" yMax="876">
      <contour>
        <pt x="232" y="86" on="0"/>
        <pt x="424" y="86" on="0"/>
        <pt x="491" y="202" on="0"/>
        <pt x="491" y="475" on="0"/>
        <pt x="422" y="599" on="0"/>
        <pt x="234" y="599" on="0"/>
        <pt x="164" y="475" on="0"/>
        <pt x="164" y="204" on="0"/>
      </contour>
      <contour>
        <pt x="483" y="-11" on="0"/>
        <pt x="173" y="-11" on="0"/>
        <pt x="49" y="158" on="0"/>
        <pt x="49" y="520" on="0"/>
        <pt x="174" y="696" on="0"/>
        <pt x="482" y="696" on="0"/>
        <pt x="606" y="521" on="0"/>
        <pt x="606" y="157" on="0"/>
      </contour>
      <contour>
        <pt x="159" y="795" on="1"/>
        <pt x="159" y="876" on="1"/>
        <pt x="491" y="876" on="1"/>
        <pt x="491" y="795" on="1"/>
      </contour>
    </TTGlyph>
    <TTGlyph name="Omega" xMin="48" yMin="-9" xMax="512" yMax="671">
      <contour>
        <pt x="49" y="84" on="1"/>
        <pt x="148" y="84" on="1"/>
        <pt x="144" y="90" on="0"/>
        <pt x="130" y="110" on="0"/>
        <pt x="96" y="174" on="0"/>
        <pt x="83" y="208" on="1"/>
        <pt x="48" y="298" on="0"/>
        <pt x="48" y="381" on="1"/>
        <pt x="48" y="533" on="0"/>
        <pt x="153" y="671" on="0"/>
        <pt x="407" y="671" on="0"/>
        <pt x="512" y="533" on="0"/>
        <pt x="512" y="381" on="1"/>
        <pt x="512" y="293" on="0"/>
        <pt x="476" y="207" on="1"/>
        <pt x="445" y="131" on="0"/>
        <pt x="422" y="99" on="1"/>
        <pt x="412" y="84" on="1"/>
        <pt x="511" y="84" on="1"/>
        <pt x="511" y="-9" on="1"/>
        <pt x="308" y="-9" on="1"/>
        <pt x="308" y="72" on="1"/>
        <pt x="318" y="90" on="0"/>
        <pt x="348" y="150" on="0"/>
        <pt x="397" y="299" on="0"/>
        <pt x="397" y="353" on="1"/>
        <pt x="397" y="477" on="0"/>
        <pt x="353" y="574" on="0"/>
        <pt x="207" y="574" on="0"/>
        <pt x="163" y="477" on="0"/>
        <pt x="163" y="353" on="1"/>
        <pt x="163" y="299" on="0"/>
        <pt x="208" y="159" on="0"/>
        <pt x="230" y="116" on="1"/>
        <pt x="252" y="72" on="1"/>
        <pt x="252" y="-9" on="1"/>
        <pt x="49" y="-9" on="1"/>
      </contour>
    </TTGlyph>
    <TTGlyph name="Oslash" xMin="49" yMin="-122" xMax="606" yMax="805">
      <contour>
        <pt x="328" y="-11" on="1"/>
        <pt x="268" y="-11" on="0"/>
        <pt x="221" y="1" on="1"/>
        <pt x="164" y="-122" on="1"/>
        <pt x="84" y="-83" on="1"/>
        <pt x="142" y="41" on="1"/>
        <pt x="49" y="116" on="0"/>
        <pt x="49" y="339" on="1"/>
        <pt x="49" y="520" on="0"/>
        <pt x="174" y="696" on="0"/>
        <pt x="328" y="696" on="1"/>
        <pt x="389" y="696" on="0"/>
        <pt x="440" y="680" on="1"/>
        <pt x="498" y="805" on="1"/>
        <pt x="580" y="770" on="1"/>
        <pt x="518" y="637" on="1"/>
        <pt x="606" y="557" on="0"/>
        <pt x="606" y="339" on="1"/>
        <pt x="606" y="157" on="0"/>
        <pt x="483" y="-11" on="0"/>
      </contour>
      <contour>
        <pt x="234" y="599" on="0"/>
        <pt x="164" y="475" on="0"/>
        <pt x="164" y="207" on="0"/>
        <pt x="194" y="152" on="1"/>
        <pt x="397" y="588" on="1"/>
        <pt x="367" y="599" on="0"/>
        <pt x="328" y="599" on="1"/>
      </contour>
      <contour>
        <pt x="328" y="86" on="1"/>
        <pt x="424" y="86" on="0"/>
        <pt x="491" y="202" on="0"/>
        <pt x="491" y="463" on="0"/>
        <pt x="464" y="522" on="1"/>
        <pt x="265" y="94" on="1"/>
        <pt x="294" y="86" on="0"/>
      </contour>
    </TTGlyph>
    <TTGlyph name="Oslashacute" xMin="50" yMin="-122" xMax="607" yMax="939">
      <contour>
        <pt x="329" y="-11" on="1"/>
        <pt x="268" y="-11" on="0"/>
        <pt x="222" y="1" on="1"/>
        <pt x="165" y="-122" on="1"/>
        <pt x="85" y="-83" on="1"/>
        <pt x="143" y="41" on="1"/>
        <pt x="50" y="116" on="0"/>
        <pt x="50" y="339" on="1"/>
        <pt x="50" y="520" on="0"/>
        <pt x="175" y="696" on="0"/>
        <pt x="329" y="696" on="1"/>
        <pt x="390" y="696" on="0"/>
        <pt x="441" y="680" on="1"/>
        <pt x="499" y="805" on="1"/>
        <pt x="581" y="770" on="1"/>
        <pt x="519" y="637" on="1"/>
        <pt x="607" y="557" on="0"/>
        <pt x="607" y="339" on="1"/>
        <pt x="607" y="157" on="0"/>
        <pt x="484" y="-11" on="0"/>
      </contour>
      <contour>
        <pt x="235" y="599" on="0"/>
        <pt x="165" y="475" on="0"/>
        <pt x="165" y="207" on="0"/>
        <pt x="195" y="152" on="1"/>
        <pt x="398" y="588" on="1"/>
        <pt x="368" y="599" on="0"/>
        <pt x="329" y="599" on="1"/>
      </contour>
      <contour>
        <pt x="329" y="86" on="1"/>
        <pt x="425" y="86" on="0"/>
        <pt x="492" y="202" on="0"/>
        <pt x="492" y="463" on="0"/>
        <pt x="465" y="522" on="1"/>
        <pt x="266" y="94" on="1"/>
        <pt x="295" y="86" on="0"/>
      </contour>
      <contour>
        <pt x="187" y="836" on="1"/>
        <pt x="423" y="939" on="1"/>
        <pt x="458" y="842" on="1"/>
        <pt x="215" y="760" on="1"/>
      </contour>
    </TTGlyph>
    <TTGlyph name="Otilde" xMin="49" yMin="-11" xMax="606" yMax="923">
      <contour>
        <pt x="232" y="86" on="0"/>
        <pt x="424" y="86" on="0"/>
        <pt x="491" y="202" on="0"/>
        <pt x="491" y="475" on="0"/>
        <pt x="422" y="599" on="0"/>
        <pt x="234" y="599" on="0"/>
        <pt x="164" y="475" on="0"/>
        <pt x="164" y="204" on="0"/>
      </contour>
      <contour>
        <pt x="483" y="-11" on="0"/>
        <pt x="173" y="-11" on="0"/>
        <pt x="49" y="158" on="0"/>
        <pt x="49" y="520" on="0"/>
        <pt x="174" y="696" on="0"/>
        <pt x="482" y="696" on="0"/>
        <pt x="606" y="521" on="0"/>
        <pt x="606" y="157" on="0"/>
      </contour>
      <contour>
        <pt x="432" y="777" on="0"/>
        <pt x="384" y="777" on="0"/>
        <pt x="258" y="827" on="0"/>
        <pt x="245" y="827" on="1"/>
        <pt x="220" y="827" on="0"/>
        <pt x="181" y="794" on="1"/>
        <pt x="168" y="783" on="1"/>
        <pt x="144" y="861" on="1"/>
        <pt x="150" y="868" on="0"/>
        <pt x="169" y="889" on="0"/>
        <pt x="222" y="923" on="0"/>
        <pt x="274" y="923" on="0"/>
        <pt x="397" y="873" on="0"/>
        <pt x="408" y="873" on="1"/>
        <pt x="430" y="873" on="0"/>
        <pt x="470" y="906" on="1"/>
        <pt x="484" y="917" on="1"/>
        <pt x="508" y="838" on="1"/>
        <pt x="493" y="817" on="0"/>
      </contour>
    </TTGlyph>
    <TTGlyph name="P" xMin="79" yMin="0" xMax="563" yMax="685">
      <contour>
        <pt x="330" y="213" on="1"/>
        <pt x="190" y="213" on="1"/>
        <pt x="190" y="0" on="1"/>
        <pt x="79" y="0" on="1"/>
        <pt x="79" y="685" on="1"/>
        <pt x="330" y="685" on="1"/>
        <pt x="563" y="685" on="0"/>
        <pt x="563" y="455" on="1"/>
        <pt x="563" y="337" on="0"/>
        <pt x="446" y="213" on="0"/>
      </contour>
      <contour>
        <pt x="190" y="309" on="1"/>
        <pt x="329" y="309" on="1"/>
        <pt x="449" y="309" on="0"/>
        <pt x="449" y="455" on="1"/>
        <pt x="449" y="525" on="0"/>
        <pt x="391" y="589" on="0"/>
        <pt x="329" y="589" on="1"/>
        <pt x="190" y="589" on="1"/>
      </contour>
    </TTGlyph>
    <TTGlyph name="Q" xMin="49" yMin="-151" xMax="606" yMax="696">
      <contour>
        <pt x="328" y="-11" on="1"/>
        <pt x="172" y="-11" on="0"/>
        <pt x="49" y="157" on="0"/>
        <pt x="49" y="520" on="0"/>
        <pt x="174" y="696" on="0"/>
        <pt x="482" y="696" on="0"/>
        <pt x="606" y="521" on="0"/>
        <pt x="606" y="339" on="1"/>
        <pt x="606" y="219" on="0"/>
        <pt x="555" y="71" on="0"/>
        <pt x="497" y="32" on="1"/>
        <pt x="581" y="-103" on="1"/>
        <pt x="478" y="-151" on="1"/>
        <pt x="389" y="-5" on="1"/>
        <pt x="370" y="-11" on="0"/>
      </contour>
      <contour>
        <pt x="232" y="86" on="0"/>
        <pt x="424" y="86" on="0"/>
        <pt x="491" y="201" on="0"/>
        <pt x="491" y="475" on="0"/>
        <pt x="422" y="599" on="0"/>
        <pt x="234" y="599" on="0"/>
        <pt x="164" y="475" on="0"/>
        <pt x="164" y="203" on="0"/>
      </contour>
    </TTGlyph>
    <TTGlyph name="R" xMin="79" yMin="0" xMax="572" yMax="685">
      <contour>
        <pt x="190" y="244" on="1"/>
        <pt x="190" y="0" on="1"/>
        <pt x="79" y="0" on="1"/>
        <pt x="79" y="685" on="1"/>
        <pt x="339" y="685" on="1"/>
        <pt x="571" y="685" on="0"/>
        <pt x="571" y="467" on="1"/>
        <pt x="571" y="321" on="0"/>
        <pt x="459" y="269" on="1"/>
        <pt x="572" y="0" on="1"/>
        <pt x="450" y="0" on="1"/>
        <pt x="351" y="244" on="1"/>
      </contour>
      <contour>
        <pt x="457" y="466" on="1"/>
        <pt x="457" y="589" on="0"/>
        <pt x="339" y="589" on="1"/>
        <pt x="190" y="589" on="1"/>
        <pt x="190" y="340" on="1"/>
        <pt x="341" y="340" on="1"/>
        <pt x="401" y="340" on="0"/>
        <pt x="457" y="409" on="0"/>
      </contour>
    </TTGlyph>
    <TTGlyph name="Racute" xMin="79" yMin="0" xMax="572" yMax="939">
      <contour>
        <pt x="190" y="244" on="1"/>
        <pt x="190" y="0" on="1"/>
        <pt x="79" y="0" on="1"/>
        <pt x="79" y="685" on="1"/>
        <pt x="339" y="685" on="1"/>
        <pt x="571" y="685" on="0"/>
        <pt x="571" y="467" on="1"/>
        <pt x="571" y="321" on="0"/>
        <pt x="459" y="269" on="1"/>
        <pt x="572" y="0" on="1"/>
        <pt x="450" y="0" on="1"/>
        <pt x="351" y="244" on="1"/>
      </contour>
      <contour>
        <pt x="457" y="466" on="1"/>
        <pt x="457" y="589" on="0"/>
        <pt x="339" y="589" on="1"/>
        <pt x="190" y="589" on="1"/>
        <pt x="190" y="340" on="1"/>
        <pt x="341" y="340" on="1"/>
        <pt x="401" y="340" on="0"/>
        <pt x="457" y="409" on="0"/>
      </contour>
      <contour>
        <pt x="178" y="836" on="1"/>
        <pt x="414" y="939" on="1"/>
        <pt x="449" y="842" on="1"/>
        <pt x="206" y="760" on="1"/>
      </contour>
    </TTGlyph>
    <TTGlyph name="Rcaron" xMin="79" yMin="0" xMax="572" yMax="919">
      <contour>
        <pt x="190" y="244" on="1"/>
        <pt x="190" y="0" on="1"/>
        <pt x="79" y="0" on="1"/>
        <pt x="79" y="685" on="1"/>
        <pt x="339" y="685" on="1"/>
        <pt x="571" y="685" on="0"/>
        <pt x="571" y="467" on="1"/>
        <pt x="571" y="321" on="0"/>
        <pt x="459" y="269" on="1"/>
        <pt x="572" y="0" on="1"/>
        <pt x="450" y="0" on="1"/>
        <pt x="351" y="244" on="1"/>
      </contour>
      <contour>
        <pt x="457" y="466" on="1"/>
        <pt x="457" y="589" on="0"/>
        <pt x="339" y="589" on="1"/>
        <pt x="190" y="589" on="1"/>
        <pt x="190" y="340" on="1"/>
        <pt x="341" y="340" on="1"/>
        <pt x="401" y="340" on="0"/>
        <pt x="457" y="409" on="0"/>
      </contour>
      <contour>
        <pt x="253" y="776" on="1"/>
        <pt x="119" y="919" on="1"/>
        <pt x="236" y="919" on="1"/>
        <pt x="301" y="853" on="1"/>
        <pt x="364" y="919" on="1"/>
        <pt x="481" y="919" on="1"/>
        <pt x="347" y="776" on="1"/>
      </contour>
    </TTGlyph>
    <TTGlyph name="Rcommaaccent" xMin="79" yMin="-300" xMax="572" yMax="685">
      <contour>
        <pt x="226" y="-300" on="1"/>
        <pt x="269" y="-77" on="1"/>
        <pt x="375" y="-77" on="1"/>
        <pt x="323" y="-300" on="1"/>
      </contour>
      <contour>
        <pt x="190" y="244" on="1"/>
        <pt x="190" y="0" on="1"/>
        <pt x="79" y="0" on="1"/>
        <pt x="79" y="685" on="1"/>
        <pt x="339" y="685" on="1"/>
        <pt x="571" y="685" on="0"/>
        <pt x="571" y="467" on="1"/>
        <pt x="571" y="321" on="0"/>
        <pt x="459" y="269" on="1"/>
        <pt x="572" y="0" on="1"/>
        <pt x="450" y="0" on="1"/>
        <pt x="351" y="244" on="1"/>
      </contour>
      <contour>
        <pt x="457" y="466" on="1"/>
        <pt x="457" y="589" on="0"/>
        <pt x="339" y="589" on="1"/>
        <pt x="190" y="589" on="1"/>
        <pt x="190" y="340" on="1"/>
        <pt x="341" y="340" on="1"/>
        <pt x="401" y="340" on="0"/>
        <pt x="457" y="409" on="0"/>
      </contour>
    </TTGlyph>
    <TTGlyph name="S" xMin="42" yMin="-11" xMax="502" yMax="697">
      <contour>
        <pt x="280" y="599" on="1"/>
        <pt x="153" y="599" on="0"/>
        <pt x="153" y="510" on="1"/>
        <pt x="153" y="464" on="0"/>
        <pt x="213" y="425" on="0"/>
        <pt x="418" y="368" on="0"/>
        <pt x="502" y="289" on="0"/>
        <pt x="502" y="204" on="1"/>
        <pt x="502" y="96" on="0"/>
        <pt x="379" y="-11" on="0"/>
        <pt x="273" y="-11" on="1"/>
        <pt x="188" y="-11" on="0"/>
        <pt x="85" y="9" on="1"/>
        <pt x="49" y="16" on="1"/>
        <pt x="60" y="105" on="1"/>
        <pt x="195" y="87" on="0"/>
        <pt x="266" y="87" on="1"/>
        <pt x="390" y="87" on="0"/>
        <pt x="390" y="197" on="1"/>
        <pt x="390" y="240" on="0"/>
        <pt x="334" y="281" on="0"/>
        <pt x="138" y="330" on="0"/>
        <pt x="42" y="416" on="0"/>
        <pt x="42" y="602" on="0"/>
        <pt x="163" y="697" on="0"/>
        <pt x="270" y="697" on="1"/>
        <pt x="347" y="697" on="0"/>
        <pt x="452" y="679" on="1"/>
        <pt x="487" y="673" on="1"/>
        <pt x="478" y="583" on="1"/>
        <pt x="338" y="599" on="0"/>
      </contour>
    </TTGlyph>
    <TTGlyph name="Sacute" xMin="42" yMin="-11" xMax="502" yMax="939">
      <contour>
        <pt x="280" y="599" on="1"/>
        <pt x="153" y="599" on="0"/>
        <pt x="153" y="510" on="1"/>
        <pt x="153" y="464" on="0"/>
        <pt x="213" y="425" on="0"/>
        <pt x="418" y="368" on="0"/>
        <pt x="502" y="289" on="0"/>
        <pt x="502" y="204" on="1"/>
        <pt x="502" y="96" on="0"/>
        <pt x="379" y="-11" on="0"/>
        <pt x="273" y="-11" on="1"/>
        <pt x="188" y="-11" on="0"/>
        <pt x="85" y="9" on="1"/>
        <pt x="49" y="16" on="1"/>
        <pt x="60" y="105" on="1"/>
        <pt x="195" y="87" on="0"/>
        <pt x="266" y="87" on="1"/>
        <pt x="390" y="87" on="0"/>
        <pt x="390" y="197" on="1"/>
        <pt x="390" y="240" on="0"/>
        <pt x="334" y="281" on="0"/>
        <pt x="138" y="330" on="0"/>
        <pt x="42" y="416" on="0"/>
        <pt x="42" y="602" on="0"/>
        <pt x="163" y="697" on="0"/>
        <pt x="270" y="697" on="1"/>
        <pt x="347" y="697" on="0"/>
        <pt x="452" y="679" on="1"/>
        <pt x="487" y="673" on="1"/>
        <pt x="478" y="583" on="1"/>
        <pt x="338" y="599" on="0"/>
      </contour>
      <contour>
        <pt x="153" y="836" on="1"/>
        <pt x="389" y="939" on="1"/>
        <pt x="424" y="842" on="1"/>
        <pt x="181" y="760" on="1"/>
      </contour>
    </TTGlyph>
    <TTGlyph name="Scaron" xMin="42" yMin="-11" xMax="502" yMax="919">
      <contour>
        <pt x="280" y="599" on="1"/>
        <pt x="153" y="599" on="0"/>
        <pt x="153" y="510" on="1"/>
        <pt x="153" y="464" on="0"/>
        <pt x="213" y="425" on="0"/>
        <pt x="418" y="368" on="0"/>
        <pt x="502" y="289" on="0"/>
        <pt x="502" y="204" on="1"/>
        <pt x="502" y="96" on="0"/>
        <pt x="379" y="-11" on="0"/>
        <pt x="273" y="-11" on="1"/>
        <pt x="188" y="-11" on="0"/>
        <pt x="85" y="9" on="1"/>
        <pt x="49" y="16" on="1"/>
        <pt x="60" y="105" on="1"/>
        <pt x="195" y="87" on="0"/>
        <pt x="266" y="87" on="1"/>
        <pt x="390" y="87" on="0"/>
        <pt x="390" y="197" on="1"/>
        <pt x="390" y="240" on="0"/>
        <pt x="334" y="281" on="0"/>
        <pt x="138" y="330" on="0"/>
        <pt x="42" y="416" on="0"/>
        <pt x="42" y="602" on="0"/>
        <pt x="163" y="697" on="0"/>
        <pt x="270" y="697" on="1"/>
        <pt x="347" y="697" on="0"/>
        <pt x="452" y="679" on="1"/>
        <pt x="487" y="673" on="1"/>
        <pt x="478" y="583" on="1"/>
        <pt x="338" y="599" on="0"/>
      </contour>
      <contour>
        <pt x="242" y="776" on="1"/>
        <pt x="108" y="919" on="1"/>
        <pt x="225" y="919" on="1"/>
        <pt x="290" y="853" on="1"/>
        <pt x="353" y="919" on="1"/>
        <pt x="470" y="919" on="1"/>
        <pt x="336" y="776" on="1"/>
      </contour>
    </TTGlyph>
    <TTGlyph name="Scedilla" xMin="42" yMin="-231" xMax="502" yMax="697">
      <contour>
        <pt x="368" y="-43" on="0"/>
        <pt x="424" y="-77" on="0"/>
        <pt x="424" y="-179" on="0"/>
        <pt x="369" y="-231" on="0"/>
        <pt x="320" y="-231" on="1"/>
        <pt x="282" y="-231" on="0"/>
        <pt x="243" y="-224" on="1"/>
        <pt x="230" y="-221" on="1"/>
        <pt x="234" y="-156" on="1"/>
        <pt x="268" y="-158" on="0"/>
        <pt x="289" y="-158" on="1"/>
        <pt x="330" y="-158" on="0"/>
        <pt x="330" y="-127" on="1"/>
        <pt x="330" y="-112" on="0"/>
        <pt x="311" y="-100" on="0"/>
        <pt x="289" y="-100" on="1"/>
        <pt x="258" y="-100" on="1"/>
        <pt x="258" y="-11" on="1"/>
        <pt x="185" y="-9" on="0"/>
        <pt x="82" y="10" on="1"/>
        <pt x="49" y="16" on="1"/>
        <pt x="60" y="105" on="1"/>
        <pt x="195" y="87" on="0"/>
        <pt x="266" y="87" on="1"/>
        <pt x="390" y="87" on="0"/>
        <pt x="390" y="197" on="1"/>
        <pt x="390" y="240" on="0"/>
        <pt x="334" y="281" on="0"/>
        <pt x="138" y="330" on="0"/>
        <pt x="42" y="416" on="0"/>
        <pt x="42" y="602" on="0"/>
        <pt x="163" y="697" on="0"/>
        <pt x="270" y="697" on="1"/>
        <pt x="347" y="697" on="0"/>
        <pt x="452" y="679" on="1"/>
        <pt x="487" y="673" on="1"/>
        <pt x="478" y="583" on="1"/>
        <pt x="338" y="599" on="0"/>
        <pt x="280" y="599" on="1"/>
        <pt x="153" y="599" on="0"/>
        <pt x="153" y="510" on="1"/>
        <pt x="153" y="464" on="0"/>
        <pt x="213" y="425" on="0"/>
        <pt x="418" y="368" on="0"/>
        <pt x="502" y="289" on="0"/>
        <pt x="502" y="104" on="0"/>
        <pt x="397" y="-2" on="0"/>
        <pt x="305" y="-9" on="1"/>
        <pt x="305" y="-42" on="1"/>
      </contour>
    </TTGlyph>
    <TTGlyph name="Scircumflex" xMin="42" yMin="-11" xMax="502" yMax="918">
      <contour>
        <pt x="280" y="599" on="1"/>
        <pt x="153" y="599" on="0"/>
        <pt x="153" y="510" on="1"/>
        <pt x="153" y="464" on="0"/>
        <pt x="213" y="425" on="0"/>
        <pt x="418" y="368" on="0"/>
        <pt x="502" y="289" on="0"/>
        <pt x="502" y="204" on="1"/>
        <pt x="502" y="96" on="0"/>
        <pt x="379" y="-11" on="0"/>
        <pt x="273" y="-11" on="1"/>
        <pt x="188" y="-11" on="0"/>
        <pt x="85" y="9" on="1"/>
        <pt x="49" y="16" on="1"/>
        <pt x="60" y="105" on="1"/>
        <pt x="195" y="87" on="0"/>
        <pt x="266" y="87" on="1"/>
        <pt x="390" y="87" on="0"/>
        <pt x="390" y="197" on="1"/>
        <pt x="390" y="240" on="0"/>
        <pt x="334" y="281" on="0"/>
        <pt x="138" y="330" on="0"/>
        <pt x="42" y="416" on="0"/>
        <pt x="42" y="602" on="0"/>
        <pt x="163" y="697" on="0"/>
        <pt x="270" y="697" on="1"/>
        <pt x="347" y="697" on="0"/>
        <pt x="452" y="679" on="1"/>
        <pt x="487" y="673" on="1"/>
        <pt x="478" y="583" on="1"/>
        <pt x="338" y="599" on="0"/>
      </contour>
      <contour>
        <pt x="94" y="775" on="1"/>
        <pt x="228" y="918" on="1"/>
        <pt x="322" y="918" on="1"/>
        <pt x="456" y="775" on="1"/>
        <pt x="340" y="775" on="1"/>
        <pt x="276" y="842" on="1"/>
        <pt x="211" y="775" on="1"/>
      </contour>
    </TTGlyph>
    <TTGlyph name="Scommaaccent" xMin="42" yMin="-300" xMax="502" yMax="697">
      <contour>
        <pt x="230" y="-77" on="1"/>
        <pt x="336" y="-77" on="1"/>
        <pt x="283" y="-300" on="1"/>
        <pt x="186" y="-300" on="1"/>
      </contour>
      <contour>
        <pt x="280" y="599" on="1"/>
        <pt x="153" y="599" on="0"/>
        <pt x="153" y="510" on="1"/>
        <pt x="153" y="464" on="0"/>
        <pt x="213" y="425" on="0"/>
        <pt x="418" y="368" on="0"/>
        <pt x="502" y="289" on="0"/>
        <pt x="502" y="204" on="1"/>
        <pt x="502" y="96" on="0"/>
        <pt x="379" y="-11" on="0"/>
        <pt x="273" y="-11" on="1"/>
        <pt x="188" y="-11" on="0"/>
        <pt x="85" y="9" on="1"/>
        <pt x="49" y="16" on="1"/>
        <pt x="60" y="105" on="1"/>
        <pt x="195" y="87" on="0"/>
        <pt x="266" y="87" on="1"/>
        <pt x="390" y="87" on="0"/>
        <pt x="390" y="197" on="1"/>
        <pt x="390" y="240" on="0"/>
        <pt x="334" y="281" on="0"/>
        <pt x="138" y="330" on="0"/>
        <pt x="42" y="416" on="0"/>
        <pt x="42" y="602" on="0"/>
        <pt x="163" y="697" on="0"/>
        <pt x="270" y="697" on="1"/>
        <pt x="347" y="697" on="0"/>
        <pt x="452" y="679" on="1"/>
        <pt x="487" y="673" on="1"/>
        <pt x="478" y="583" on="1"/>
        <pt x="338" y="599" on="0"/>
      </contour>
    </TTGlyph>
    <TTGlyph name="T" xMin="13" yMin="0" xMax="513" yMax="685">
      <contour>
        <pt x="13" y="586" on="1"/>
        <pt x="13" y="685" on="1"/>
        <pt x="513" y="685" on="1"/>
        <pt x="513" y="586" on="1"/>
        <pt x="320" y="586" on="1"/>
        <pt x="320" y="0" on="1"/>
        <pt x="208" y="0" on="1"/>
        <pt x="208" y="586" on="1"/>
      </contour>
    </TTGlyph>
    <TTGlyph name="Tbar" xMin="14" yMin="0" xMax="514" yMax="685">
      <contour>
        <pt x="14" y="586" on="1"/>
        <pt x="14" y="685" on="1"/>
        <pt x="514" y="685" on="1"/>
        <pt x="514" y="586" on="1"/>
        <pt x="321" y="586" on="1"/>
        <pt x="321" y="368" on="1"/>
        <pt x="471" y="368" on="1"/>
        <pt x="471" y="274" on="1"/>
        <pt x="321" y="274" on="1"/>
        <pt x="321" y="0" on="1"/>
        <pt x="209" y="0" on="1"/>
        <pt x="209" y="274" on="1"/>
        <pt x="64" y="274" on="1"/>
        <pt x="64" y="368" on="1"/>
        <pt x="209" y="368" on="1"/>
        <pt x="209" y="586" on="1"/>
      </contour>
    </TTGlyph>
    <TTGlyph name="Tcaron" xMin="13" yMin="0" xMax="513" yMax="919">
      <contour>
        <pt x="13" y="586" on="1"/>
        <pt x="13" y="685" on="1"/>
        <pt x="513" y="685" on="1"/>
        <pt x="513" y="586" on="1"/>
        <pt x="320" y="586" on="1"/>
        <pt x="320" y="0" on="1"/>
        <pt x="208" y="0" on="1"/>
        <pt x="208" y="586" on="1"/>
      </contour>
      <contour>
        <pt x="217" y="776" on="1"/>
        <pt x="83" y="919" on="1"/>
        <pt x="200" y="919" on="1"/>
        <pt x="265" y="853" on="1"/>
        <pt x="328" y="919" on="1"/>
        <pt x="445" y="919" on="1"/>
        <pt x="311" y="776" on="1"/>
      </contour>
    </TTGlyph>
    <TTGlyph name="Tcommaaccent" xMin="13" yMin="-300" xMax="513" yMax="685">
      <contour>
        <pt x="233" y="-77" on="1"/>
        <pt x="339" y="-77" on="1"/>
        <pt x="286" y="-300" on="1"/>
        <pt x="189" y="-300" on="1"/>
      </contour>
      <contour>
        <pt x="13" y="586" on="1"/>
        <pt x="13" y="685" on="1"/>
        <pt x="513" y="685" on="1"/>
        <pt x="513" y="586" on="1"/>
        <pt x="320" y="586" on="1"/>
        <pt x="320" y="0" on="1"/>
        <pt x="208" y="0" on="1"/>
        <pt x="208" y="586" on="1"/>
      </contour>
    </TTGlyph>
    <TTGlyph name="Thorn" xMin="79" yMin="0" xMax="564" yMax="693">
      <contour>
        <pt x="329" y="216" on="1"/>
        <pt x="390" y="216" on="0"/>
        <pt x="451" y="290" on="0"/>
        <pt x="451" y="421" on="0"/>
        <pt x="391" y="482" on="0"/>
        <pt x="329" y="482" on="1"/>
        <pt x="190" y="482" on="1"/>
        <pt x="190" y="216" on="1"/>
      </contour>
      <contour>
        <pt x="330" y="108" on="1"/>
        <pt x="190" y="108" on="1"/>
        <pt x="190" y="0" on="1"/>
        <pt x="79" y="0" on="1"/>
        <pt x="79" y="693" on="1"/>
        <pt x="190" y="693" on="1"/>
        <pt x="190" y="588" on="1"/>
        <pt x="330" y="588" on="1"/>
        <pt x="564" y="588" on="0"/>
        <pt x="564" y="357" on="1"/>
        <pt x="564" y="238" on="0"/>
        <pt x="445" y="108" on="0"/>
      </contour>
    </TTGlyph>
    <TTGlyph name="U" xMin="73" yMin="-11" xMax="577" yMax="685">
      <contour>
        <pt x="185" y="219" on="1"/>
        <pt x="185" y="86" on="0"/>
        <pt x="465" y="86" on="0"/>
        <pt x="465" y="219" on="1"/>
        <pt x="465" y="685" on="1"/>
        <pt x="577" y="685" on="1"/>
        <pt x="577" y="221" on="1"/>
        <pt x="577" y="100" on="0"/>
        <pt x="450" y="-11" on="0"/>
        <pt x="199" y="-11" on="0"/>
        <pt x="73" y="100" on="0"/>
        <pt x="73" y="221" on="1"/>
        <pt x="73" y="685" on="1"/>
        <pt x="185" y="685" on="1"/>
      </contour>
    </TTGlyph>
    <TTGlyph name="Uacute" xMin="73" yMin="-11" xMax="577" yMax="939">
      <contour>
        <pt x="185" y="219" on="1"/>
        <pt x="185" y="86" on="0"/>
        <pt x="465" y="86" on="0"/>
        <pt x="465" y="219" on="1"/>
        <pt x="465" y="685" on="1"/>
        <pt x="577" y="685" on="1"/>
        <pt x="577" y="221" on="1"/>
        <pt x="577" y="100" on="0"/>
        <pt x="450" y="-11" on="0"/>
        <pt x="199" y="-11" on="0"/>
        <pt x="73" y="100" on="0"/>
        <pt x="73" y="221" on="1"/>
        <pt x="73" y="685" on="1"/>
        <pt x="185" y="685" on="1"/>
      </contour>
      <contour>
        <pt x="185" y="836" on="1"/>
        <pt x="421" y="939" on="1"/>
        <pt x="456" y="842" on="1"/>
        <pt x="213" y="760" on="1"/>
      </contour>
    </TTGlyph>
    <TTGlyph name="Ubreve" xMin="73" yMin="-11" xMax="577" yMax="914">
      <contour>
        <pt x="185" y="219" on="1"/>
        <pt x="185" y="86" on="0"/>
        <pt x="465" y="86" on="0"/>
        <pt x="465" y="219" on="1"/>
        <pt x="465" y="685" on="1"/>
        <pt x="577" y="685" on="1"/>
        <pt x="577" y="221" on="1"/>
        <pt x="577" y="100" on="0"/>
        <pt x="450" y="-11" on="0"/>
        <pt x="199" y="-11" on="0"/>
        <pt x="73" y="100" on="0"/>
        <pt x="73" y="221" on="1"/>
        <pt x="73" y="685" on="1"/>
        <pt x="185" y="685" on="1"/>
      </contour>
      <contour>
        <pt x="255" y="885" on="0"/>
        <pt x="296" y="849" on="0"/>
        <pt x="360" y="849" on="0"/>
        <pt x="401" y="885" on="0"/>
        <pt x="403" y="914" on="1"/>
        <pt x="502" y="914" on="1"/>
        <pt x="496" y="849" on="0"/>
        <pt x="406" y="771" on="0"/>
        <pt x="249" y="771" on="0"/>
        <pt x="159" y="849" on="0"/>
        <pt x="154" y="914" on="1"/>
        <pt x="253" y="914" on="1"/>
      </contour>
    </TTGlyph>
    <TTGlyph name="Ucircumflex" xMin="73" yMin="-11" xMax="577" yMax="919">
      <contour>
        <pt x="185" y="219" on="1"/>
        <pt x="185" y="86" on="0"/>
        <pt x="465" y="86" on="0"/>
        <pt x="465" y="219" on="1"/>
        <pt x="465" y="685" on="1"/>
        <pt x="577" y="685" on="1"/>
        <pt x="577" y="221" on="1"/>
        <pt x="577" y="100" on="0"/>
        <pt x="450" y="-11" on="0"/>
        <pt x="199" y="-11" on="0"/>
        <pt x="73" y="100" on="0"/>
        <pt x="73" y="221" on="1"/>
        <pt x="73" y="685" on="1"/>
        <pt x="185" y="685" on="1"/>
      </contour>
      <contour>
        <pt x="144" y="776" on="1"/>
        <pt x="278" y="919" on="1"/>
        <pt x="372" y="919" on="1"/>
        <pt x="506" y="776" on="1"/>
        <pt x="390" y="776" on="1"/>
        <pt x="326" y="843" on="1"/>
        <pt x="261" y="776" on="1"/>
      </contour>
    </TTGlyph>
    <TTGlyph name="Udieresis" xMin="73" yMin="-11" xMax="577" yMax="897">
      <contour>
        <pt x="185" y="219" on="1"/>
        <pt x="185" y="86" on="0"/>
        <pt x="465" y="86" on="0"/>
        <pt x="465" y="219" on="1"/>
        <pt x="465" y="685" on="1"/>
        <pt x="577" y="685" on="1"/>
        <pt x="577" y="221" on="1"/>
        <pt x="577" y="100" on="0"/>
        <pt x="450" y="-11" on="0"/>
        <pt x="199" y="-11" on="0"/>
        <pt x="73" y="100" on="0"/>
        <pt x="73" y="221" on="1"/>
        <pt x="73" y="685" on="1"/>
        <pt x="185" y="685" on="1"/>
      </contour>
      <contour>
        <pt x="169" y="783" on="1"/>
        <pt x="169" y="897" on="1"/>
        <pt x="273" y="897" on="1"/>
        <pt x="273" y="783" on="1"/>
      </contour>
      <contour>
        <pt x="378" y="783" on="1"/>
        <pt x="378" y="897" on="1"/>
        <pt x="482" y="897" on="1"/>
        <pt x="482" y="783" on="1"/>
      </contour>
    </TTGlyph>
    <TTGlyph name="Ugrave" xMin="73" yMin="-11" xMax="577" yMax="939">
      <contour>
        <pt x="185" y="219" on="1"/>
        <pt x="185" y="86" on="0"/>
        <pt x="465" y="86" on="0"/>
        <pt x="465" y="219" on="1"/>
        <pt x="465" y="685" on="1"/>
        <pt x="577" y="685" on="1"/>
        <pt x="577" y="221" on="1"/>
        <pt x="577" y="100" on="0"/>
        <pt x="450" y="-11" on="0"/>
        <pt x="199" y="-11" on="0"/>
        <pt x="73" y="100" on="0"/>
        <pt x="73" y="221" on="1"/>
        <pt x="73" y="685" on="1"/>
        <pt x="185" y="685" on="1"/>
      </contour>
      <contour>
        <pt x="219" y="939" on="1"/>
        <pt x="455" y="836" on="1"/>
        <pt x="427" y="760" on="1"/>
        <pt x="184" y="842" on="1"/>
      </contour>
    </TTGlyph>
    <TTGlyph name="Uhungarumlaut" xMin="73" yMin="-11" xMax="577" yMax="949">
      <contour>
        <pt x="185" y="219" on="1"/>
        <pt x="185" y="86" on="0"/>
        <pt x="465" y="86" on="0"/>
        <pt x="465" y="219" on="1"/>
        <pt x="465" y="685" on="1"/>
        <pt x="577" y="685" on="1"/>
        <pt x="577" y="221" on="1"/>
        <pt x="577" y="100" on="0"/>
        <pt x="450" y="-11" on="0"/>
        <pt x="199" y="-11" on="0"/>
        <pt x="73" y="100" on="0"/>
        <pt x="73" y="221" on="1"/>
        <pt x="73" y="685" on="1"/>
        <pt x="185" y="685" on="1"/>
      </contour>
      <contour>
        <pt x="357" y="779" on="1"/>
        <pt x="456" y="948" on="1"/>
        <pt x="546" y="909" on="1"/>
        <pt x="438" y="745" on="1"/>
      </contour>
      <contour>
        <pt x="153" y="780" on="1"/>
        <pt x="253" y="949" on="1"/>
        <pt x="342" y="910" on="1"/>
        <pt x="235" y="746" on="1"/>
      </contour>
    </TTGlyph>
    <TTGlyph name="Umacron" xMin="73" yMin="-11" xMax="577" yMax="876">
      <contour>
        <pt x="185" y="219" on="1"/>
        <pt x="185" y="86" on="0"/>
        <pt x="465" y="86" on="0"/>
        <pt x="465" y="219" on="1"/>
        <pt x="465" y="685" on="1"/>
        <pt x="577" y="685" on="1"/>
        <pt x="577" y="221" on="1"/>
        <pt x="577" y="100" on="0"/>
        <pt x="450" y="-11" on="0"/>
        <pt x="199" y="-11" on="0"/>
        <pt x="73" y="100" on="0"/>
        <pt x="73" y="221" on="1"/>
        <pt x="73" y="685" on="1"/>
        <pt x="185" y="685" on="1"/>
      </contour>
      <contour>
        <pt x="162" y="795" on="1"/>
        <pt x="162" y="876" on="1"/>
        <pt x="494" y="876" on="1"/>
        <pt x="494" y="795" on="1"/>
      </contour>
    </TTGlyph>
    <TTGlyph name="Uogonek" xMin="73" yMin="-212" xMax="577" yMax="685">
      <contour>
        <pt x="185" y="219" on="1"/>
        <pt x="185" y="86" on="0"/>
        <pt x="465" y="86" on="0"/>
        <pt x="465" y="219" on="1"/>
        <pt x="465" y="685" on="1"/>
        <pt x="577" y="685" on="1"/>
        <pt x="577" y="221" on="1"/>
        <pt x="577" y="35" on="0"/>
        <pt x="418" y="-1" on="1"/>
        <pt x="357" y="-56" on="0"/>
        <pt x="357" y="-90" on="1"/>
        <pt x="357" y="-107" on="0"/>
        <pt x="377" y="-128" on="0"/>
        <pt x="393" y="-128" on="1"/>
        <pt x="438" y="-123" on="1"/>
        <pt x="448" y="-202" on="1"/>
        <pt x="395" y="-212" on="0"/>
        <pt x="312" y="-212" on="0"/>
        <pt x="255" y="-162" on="0"/>
        <pt x="255" y="-65" on="0"/>
        <pt x="311" y="-11" on="1"/>
        <pt x="192" y="-8" on="0"/>
        <pt x="73" y="103" on="0"/>
        <pt x="73" y="221" on="1"/>
        <pt x="73" y="685" on="1"/>
        <pt x="185" y="685" on="1"/>
      </contour>
    </TTGlyph>
    <TTGlyph name="Uring" xMin="73" yMin="-11" xMax="577" yMax="959">
      <contour>
        <pt x="185" y="219" on="1"/>
        <pt x="185" y="86" on="0"/>
        <pt x="465" y="86" on="0"/>
        <pt x="465" y="219" on="1"/>
        <pt x="465" y="685" on="1"/>
        <pt x="577" y="685" on="1"/>
        <pt x="577" y="221" on="1"/>
        <pt x="577" y="100" on="0"/>
        <pt x="450" y="-11" on="0"/>
        <pt x="199" y="-11" on="0"/>
        <pt x="73" y="100" on="0"/>
        <pt x="73" y="221" on="1"/>
        <pt x="73" y="685" on="1"/>
        <pt x="185" y="685" on="1"/>
      </contour>
      <contour>
        <pt x="464" y="896" on="0"/>
        <pt x="464" y="788" on="0"/>
        <pt x="386" y="725" on="0"/>
        <pt x="269" y="725" on="0"/>
        <pt x="191" y="788" on="0"/>
        <pt x="191" y="896" on="0"/>
        <pt x="269" y="959" on="0"/>
        <pt x="386" y="959" on="0"/>
      </contour>
      <contour>
        <pt x="267" y="864" on="0"/>
        <pt x="267" y="820" on="0"/>
        <pt x="299" y="796" on="0"/>
        <pt x="355" y="796" on="0"/>
        <pt x="388" y="820" on="0"/>
        <pt x="388" y="864" on="0"/>
        <pt x="355" y="889" on="0"/>
        <pt x="299" y="889" on="0"/>
      </contour>
    </TTGlyph>
    <TTGlyph name="Utilde" xMin="73" yMin="-11" xMax="577" yMax="923">
      <contour>
        <pt x="185" y="219" on="1"/>
        <pt x="185" y="86" on="0"/>
        <pt x="465" y="86" on="0"/>
        <pt x="465" y="219" on="1"/>
        <pt x="465" y="685" on="1"/>
        <pt x="577" y="685" on="1"/>
        <pt x="577" y="221" on="1"/>
        <pt x="577" y="100" on="0"/>
        <pt x="450" y="-11" on="0"/>
        <pt x="199" y="-11" on="0"/>
        <pt x="73" y="100" on="0"/>
        <pt x="73" y="221" on="1"/>
        <pt x="73" y="685" on="1"/>
        <pt x="185" y="685" on="1"/>
      </contour>
      <contour>
        <pt x="427" y="777" on="0"/>
        <pt x="379" y="777" on="0"/>
        <pt x="253" y="827" on="0"/>
        <pt x="240" y="827" on="1"/>
        <pt x="215" y="827" on="0"/>
        <pt x="176" y="794" on="1"/>
        <pt x="163" y="783" on="1"/>
        <pt x="139" y="861" on="1"/>
        <pt x="145" y="868" on="0"/>
        <pt x="164" y="889" on="0"/>
        <pt x="217" y="923" on="0"/>
        <pt x="269" y="923" on="0"/>
        <pt x="392" y="873" on="0"/>
        <pt x="403" y="873" on="1"/>
        <pt x="425" y="873" on="0"/>
        <pt x="466" y="906" on="1"/>
        <pt x="479" y="917" on="1"/>
        <pt x="503" y="838" on="1"/>
        <pt x="488" y="817" on="0"/>
      </contour>
    </TTGlyph>
    <TTGlyph name="V" xMin="20" yMin="0" xMax="574" yMax="685">
      <contour>
        <pt x="458" y="685" on="1"/>
        <pt x="574" y="685" on="1"/>
        <pt x="406" y="0" on="1"/>
        <pt x="188" y="0" on="1"/>
        <pt x="20" y="685" on="1"/>
        <pt x="136" y="685" on="1"/>
        <pt x="272" y="98" on="1"/>
        <pt x="322" y="98" on="1"/>
      </contour>
    </TTGlyph>
    <TTGlyph name="W" xMin="24" yMin="0" xMax="887" yMax="685">
      <contour>
        <pt x="24" y="685" on="1"/>
        <pt x="141" y="685" on="1"/>
        <pt x="239" y="96" on="1"/>
        <pt x="260" y="96" on="1"/>
        <pt x="390" y="683" on="1"/>
        <pt x="520" y="683" on="1"/>
        <pt x="650" y="96" on="1"/>
        <pt x="672" y="96" on="1"/>
        <pt x="770" y="685" on="1"/>
        <pt x="887" y="685" on="1"/>
        <pt x="752" y="0" on="1"/>
        <pt x="573" y="0" on="1"/>
        <pt x="455" y="549" on="1"/>
        <pt x="338" y="0" on="1"/>
        <pt x="158" y="0" on="1"/>
      </contour>
    </TTGlyph>
    <TTGlyph name="Wacute" xMin="24" yMin="0" xMax="887" yMax="939">
      <contour>
        <pt x="24" y="685" on="1"/>
        <pt x="141" y="685" on="1"/>
        <pt x="239" y="96" on="1"/>
        <pt x="260" y="96" on="1"/>
        <pt x="390" y="683" on="1"/>
        <pt x="520" y="683" on="1"/>
        <pt x="650" y="96" on="1"/>
        <pt x="672" y="96" on="1"/>
        <pt x="770" y="685" on="1"/>
        <pt x="887" y="685" on="1"/>
        <pt x="752" y="0" on="1"/>
        <pt x="573" y="0" on="1"/>
        <pt x="455" y="549" on="1"/>
        <pt x="338" y="0" on="1"/>
        <pt x="158" y="0" on="1"/>
      </contour>
      <contour>
        <pt x="330" y="836" on="1"/>
        <pt x="566" y="939" on="1"/>
        <pt x="601" y="842" on="1"/>
        <pt x="358" y="760" on="1"/>
      </contour>
    </TTGlyph>
    <TTGlyph name="Wcircumflex" xMin="24" yMin="0" xMax="887" yMax="918">
      <contour>
        <pt x="24" y="685" on="1"/>
        <pt x="141" y="685" on="1"/>
        <pt x="239" y="96" on="1"/>
        <pt x="260" y="96" on="1"/>
        <pt x="390" y="683" on="1"/>
        <pt x="520" y="683" on="1"/>
        <pt x="650" y="96" on="1"/>
        <pt x="672" y="96" on="1"/>
        <pt x="770" y="685" on="1"/>
        <pt x="887" y="685" on="1"/>
        <pt x="752" y="0" on="1"/>
        <pt x="573" y="0" on="1"/>
        <pt x="455" y="549" on="1"/>
        <pt x="338" y="0" on="1"/>
        <pt x="158" y="0" on="1"/>
      </contour>
      <contour>
        <pt x="275" y="775" on="1"/>
        <pt x="409" y="918" on="1"/>
        <pt x="503" y="918" on="1"/>
        <pt x="637" y="775" on="1"/>
        <pt x="521" y="775" on="1"/>
        <pt x="457" y="842" on="1"/>
        <pt x="392" y="775" on="1"/>
      </contour>
    </TTGlyph>
    <TTGlyph name="Wdieresis" xMin="24" yMin="0" xMax="887" yMax="897">
      <contour>
        <pt x="24" y="685" on="1"/>
        <pt x="141" y="685" on="1"/>
        <pt x="239" y="96" on="1"/>
        <pt x="260" y="96" on="1"/>
        <pt x="390" y="683" on="1"/>
        <pt x="520" y="683" on="1"/>
        <pt x="650" y="96" on="1"/>
        <pt x="672" y="96" on="1"/>
        <pt x="770" y="685" on="1"/>
        <pt x="887" y="685" on="1"/>
        <pt x="752" y="0" on="1"/>
        <pt x="573" y="0" on="1"/>
        <pt x="455" y="549" on="1"/>
        <pt x="338" y="0" on="1"/>
        <pt x="158" y="0" on="1"/>
      </contour>
      <contour>
        <pt x="298" y="783" on="1"/>
        <pt x="298" y="897" on="1"/>
        <pt x="402" y="897" on="1"/>
        <pt x="402" y="783" on="1"/>
      </contour>
      <contour>
        <pt x="507" y="783" on="1"/>
        <pt x="507" y="897" on="1"/>
        <pt x="611" y="897" on="1"/>
        <pt x="611" y="783" on="1"/>
      </contour>
    </TTGlyph>
    <TTGlyph name="Wgrave" xMin="24" yMin="0" xMax="887" yMax="939">
      <contour>
        <pt x="24" y="685" on="1"/>
        <pt x="141" y="685" on="1"/>
        <pt x="239" y="96" on="1"/>
        <pt x="260" y="96" on="1"/>
        <pt x="390" y="683" on="1"/>
        <pt x="520" y="683" on="1"/>
        <pt x="650" y="96" on="1"/>
        <pt x="672" y="96" on="1"/>
        <pt x="770" y="685" on="1"/>
        <pt x="887" y="685" on="1"/>
        <pt x="752" y="0" on="1"/>
        <pt x="573" y="0" on="1"/>
        <pt x="455" y="549" on="1"/>
        <pt x="338" y="0" on="1"/>
        <pt x="158" y="0" on="1"/>
      </contour>
      <contour>
        <pt x="358" y="939" on="1"/>
        <pt x="594" y="836" on="1"/>
        <pt x="566" y="760" on="1"/>
        <pt x="323" y="842" on="1"/>
      </contour>
    </TTGlyph>
    <TTGlyph name="X" xMin="13" yMin="0" xMax="551" yMax="685">
      <contour>
        <pt x="138" y="685" on="1"/>
        <pt x="285" y="415" on="1"/>
        <pt x="434" y="685" on="1"/>
        <pt x="551" y="685" on="1"/>
        <pt x="348" y="337" on="1"/>
        <pt x="551" y="0" on="1"/>
        <pt x="427" y="0" on="1"/>
        <pt x="280" y="258" on="1"/>
        <pt x="130" y="0" on="1"/>
        <pt x="13" y="0" on="1"/>
        <pt x="217" y="331" on="1"/>
        <pt x="13" y="685" on="1"/>
      </contour>
    </TTGlyph>
    <TTGlyph name="Y" xMin="4" yMin="0" xMax="544" yMax="685">
      <contour>
        <pt x="331" y="0" on="1"/>
        <pt x="219" y="0" on="1"/>
        <pt x="219" y="282" on="1"/>
        <pt x="4" y="685" on="1"/>
        <pt x="129" y="685" on="1"/>
        <pt x="274" y="391" on="1"/>
        <pt x="420" y="685" on="1"/>
        <pt x="544" y="685" on="1"/>
        <pt x="331" y="282" on="1"/>
      </contour>
    </TTGlyph>
    <TTGlyph name="Yacute" xMin="4" yMin="0" xMax="544" yMax="939">
      <contour>
        <pt x="331" y="0" on="1"/>
        <pt x="219" y="0" on="1"/>
        <pt x="219" y="282" on="1"/>
        <pt x="4" y="685" on="1"/>
        <pt x="129" y="685" on="1"/>
        <pt x="274" y="391" on="1"/>
        <pt x="420" y="685" on="1"/>
        <pt x="544" y="685" on="1"/>
        <pt x="331" y="282" on="1"/>
      </contour>
      <contour>
        <pt x="148" y="836" on="1"/>
        <pt x="384" y="939" on="1"/>
        <pt x="419" y="842" on="1"/>
        <pt x="176" y="760" on="1"/>
      </contour>
    </TTGlyph>
    <TTGlyph name="Ycircumflex" xMin="4" yMin="0" xMax="544" yMax="919">
      <contour>
        <pt x="331" y="0" on="1"/>
        <pt x="219" y="0" on="1"/>
        <pt x="219" y="282" on="1"/>
        <pt x="4" y="685" on="1"/>
        <pt x="129" y="685" on="1"/>
        <pt x="274" y="391" on="1"/>
        <pt x="420" y="685" on="1"/>
        <pt x="544" y="685" on="1"/>
        <pt x="331" y="282" on="1"/>
      </contour>
      <contour>
        <pt x="95" y="776" on="1"/>
        <pt x="229" y="919" on="1"/>
        <pt x="323" y="919" on="1"/>
        <pt x="457" y="776" on="1"/>
        <pt x="341" y="776" on="1"/>
        <pt x="277" y="843" on="1"/>
        <pt x="212" y="776" on="1"/>
      </contour>
    </TTGlyph>
    <TTGlyph name="Ydieresis" xMin="4" yMin="0" xMax="544" yMax="897">
      <contour>
        <pt x="331" y="0" on="1"/>
        <pt x="219" y="0" on="1"/>
        <pt x="219" y="282" on="1"/>
        <pt x="4" y="685" on="1"/>
        <pt x="129" y="685" on="1"/>
        <pt x="274" y="391" on="1"/>
        <pt x="420" y="685" on="1"/>
        <pt x="544" y="685" on="1"/>
        <pt x="331" y="282" on="1"/>
      </contour>
      <contour>
        <pt x="116" y="783" on="1"/>
        <pt x="116" y="897" on="1"/>
        <pt x="220" y="897" on="1"/>
        <pt x="220" y="783" on="1"/>
      </contour>
      <contour>
        <pt x="325" y="783" on="1"/>
        <pt x="325" y="897" on="1"/>
        <pt x="429" y="897" on="1"/>
        <pt x="429" y="783" on="1"/>
      </contour>
    </TTGlyph>
    <TTGlyph name="Ygrave" xMin="4" yMin="0" xMax="544" yMax="939">
      <contour>
        <pt x="331" y="0" on="1"/>
        <pt x="219" y="0" on="1"/>
        <pt x="219" y="282" on="1"/>
        <pt x="4" y="685" on="1"/>
        <pt x="129" y="685" on="1"/>
        <pt x="274" y="391" on="1"/>
        <pt x="420" y="685" on="1"/>
        <pt x="544" y="685" on="1"/>
        <pt x="331" y="282" on="1"/>
      </contour>
      <contour>
        <pt x="175" y="939" on="1"/>
        <pt x="411" y="836" on="1"/>
        <pt x="383" y="760" on="1"/>
        <pt x="140" y="842" on="1"/>
      </contour>
    </TTGlyph>
    <TTGlyph name="Z" xMin="42" yMin="0" xMax="492" yMax="685">
      <contour>
        <pt x="42" y="588" on="1"/>
        <pt x="42" y="685" on="1"/>
        <pt x="492" y="685" on="1"/>
        <pt x="492" y="578" on="1"/>
        <pt x="174" y="116" on="1"/>
        <pt x="174" y="97" on="1"/>
        <pt x="492" y="97" on="1"/>
        <pt x="492" y="0" on="1"/>
        <pt x="42" y="0" on="1"/>
        <pt x="42" y="106" on="1"/>
        <pt x="359" y="568" on="1"/>
        <pt x="359" y="588" on="1"/>
      </contour>
    </TTGlyph>
    <TTGlyph name="Zacute" xMin="42" yMin="0" xMax="492" yMax="939">
      <contour>
        <pt x="42" y="588" on="1"/>
        <pt x="42" y="685" on="1"/>
        <pt x="492" y="685" on="1"/>
        <pt x="492" y="578" on="1"/>
        <pt x="174" y="116" on="1"/>
        <pt x="174" y="97" on="1"/>
        <pt x="492" y="97" on="1"/>
        <pt x="492" y="0" on="1"/>
        <pt x="42" y="0" on="1"/>
        <pt x="42" y="106" on="1"/>
        <pt x="359" y="568" on="1"/>
        <pt x="359" y="588" on="1"/>
      </contour>
      <contour>
        <pt x="135" y="836" on="1"/>
        <pt x="371" y="939" on="1"/>
        <pt x="406" y="842" on="1"/>
        <pt x="163" y="760" on="1"/>
      </contour>
    </TTGlyph>
    <TTGlyph name="Zcaron" xMin="42" yMin="0" xMax="492" yMax="919">
      <contour>
        <pt x="42" y="588" on="1"/>
        <pt x="42" y="685" on="1"/>
        <pt x="492" y="685" on="1"/>
        <pt x="492" y="578" on="1"/>
        <pt x="174" y="116" on="1"/>
        <pt x="174" y="97" on="1"/>
        <pt x="492" y="97" on="1"/>
        <pt x="492" y="0" on="1"/>
        <pt x="42" y="0" on="1"/>
        <pt x="42" y="106" on="1"/>
        <pt x="359" y="568" on="1"/>
        <pt x="359" y="588" on="1"/>
      </contour>
      <contour>
        <pt x="225" y="776" on="1"/>
        <pt x="91" y="919" on="1"/>
        <pt x="208" y="919" on="1"/>
        <pt x="273" y="853" on="1"/>
        <pt x="336" y="919" on="1"/>
        <pt x="453" y="919" on="1"/>
        <pt x="319" y="776" on="1"/>
      </contour>
    </TTGlyph>
    <TTGlyph name="Zdotaccent" xMin="42" yMin="0" xMax="492" yMax="896">
      <contour>
        <pt x="42" y="588" on="1"/>
        <pt x="42" y="685" on="1"/>
        <pt x="492" y="685" on="1"/>
        <pt x="492" y="578" on="1"/>
        <pt x="174" y="116" on="1"/>
        <pt x="174" y="97" on="1"/>
        <pt x="492" y="97" on="1"/>
        <pt x="492" y="0" on="1"/>
        <pt x="42" y="0" on="1"/>
        <pt x="42" y="106" on="1"/>
        <pt x="359" y="568" on="1"/>
        <pt x="359" y="588" on="1"/>
      </contour>
      <contour>
        <pt x="213" y="782" on="1"/>
        <pt x="213" y="896" on="1"/>
        <pt x="321" y="896" on="1"/>
        <pt x="321" y="782" on="1"/>
      </contour>
    </TTGlyph>
    <TTGlyph name="a" xMin="34" yMin="-11" xMax="480" yMax="511">
      <contour>
        <pt x="436" y="346" on="1"/>
        <pt x="436" y="118" on="1"/>
        <pt x="437" y="96" on="0"/>
        <pt x="458" y="75" on="0"/>
        <pt x="480" y="72" on="1"/>
        <pt x="477" y="-11" on="1"/>
        <pt x="391" y="-11" on="0"/>
        <pt x="344" y="26" on="1"/>
        <pt x="264" y="-11" on="0"/>
        <pt x="183" y="-11" on="1"/>
        <pt x="34" y="-11" on="0"/>
        <pt x="34" y="148" on="1"/>
        <pt x="34" y="224" on="0"/>
        <pt x="115" y="292" on="0"/>
        <pt x="199" y="299" on="1"/>
        <pt x="328" y="310" on="1"/>
        <pt x="328" y="346" on="1"/>
        <pt x="328" y="386" on="0"/>
        <pt x="293" y="418" on="0"/>
        <pt x="259" y="418" on="1"/>
        <pt x="195" y="418" on="0"/>
        <pt x="99" y="410" on="1"/>
        <pt x="67" y="408" on="1"/>
        <pt x="63" y="485" on="1"/>
        <pt x="172" y="511" on="0"/>
        <pt x="355" y="511" on="0"/>
        <pt x="436" y="432" on="0"/>
      </contour>
      <contour>
        <pt x="212" y="222" on="1"/>
        <pt x="143" y="216" on="0"/>
        <pt x="143" y="78" on="0"/>
        <pt x="204" y="78" on="1"/>
        <pt x="254" y="78" on="0"/>
        <pt x="310" y="94" on="1"/>
        <pt x="328" y="100" on="1"/>
        <pt x="328" y="233" on="1"/>
      </contour>
    </TTGlyph>
    <TTGlyph name="aacute" xMin="34" yMin="-11" xMax="480" yMax="748">
      <contour>
        <pt x="436" y="346" on="1"/>
        <pt x="436" y="118" on="1"/>
        <pt x="437" y="96" on="0"/>
        <pt x="458" y="75" on="0"/>
        <pt x="480" y="72" on="1"/>
        <pt x="477" y="-11" on="1"/>
        <pt x="391" y="-11" on="0"/>
        <pt x="344" y="26" on="1"/>
        <pt x="264" y="-11" on="0"/>
        <pt x="183" y="-11" on="1"/>
        <pt x="34" y="-11" on="0"/>
        <pt x="34" y="148" on="1"/>
        <pt x="34" y="224" on="0"/>
        <pt x="115" y="292" on="0"/>
        <pt x="199" y="299" on="1"/>
        <pt x="328" y="310" on="1"/>
        <pt x="328" y="346" on="1"/>
        <pt x="328" y="386" on="0"/>
        <pt x="293" y="418" on="0"/>
        <pt x="259" y="418" on="1"/>
        <pt x="195" y="418" on="0"/>
        <pt x="99" y="410" on="1"/>
        <pt x="67" y="408" on="1"/>
        <pt x="63" y="485" on="1"/>
        <pt x="172" y="511" on="0"/>
        <pt x="355" y="511" on="0"/>
        <pt x="436" y="432" on="0"/>
      </contour>
      <contour>
        <pt x="212" y="222" on="1"/>
        <pt x="143" y="216" on="0"/>
        <pt x="143" y="78" on="0"/>
        <pt x="204" y="78" on="1"/>
        <pt x="254" y="78" on="0"/>
        <pt x="310" y="94" on="1"/>
        <pt x="328" y="100" on="1"/>
        <pt x="328" y="233" on="1"/>
      </contour>
      <contour>
        <pt x="105" y="647" on="1"/>
        <pt x="341" y="748" on="1"/>
        <pt x="375" y="654" on="1"/>
        <pt x="131" y="576" on="1"/>
      </contour>
    </TTGlyph>
    <TTGlyph name="abreve" xMin="34" yMin="-11" xMax="479" yMax="741">
      <contour>
        <pt x="436" y="343" on="1"/>
        <pt x="436" y="131" on="1"/>
        <pt x="437" y="106" on="0"/>
        <pt x="456" y="85" on="0"/>
        <pt x="479" y="82" on="1"/>
        <pt x="476" y="-11" on="1"/>
        <pt x="422" y="-11" on="0"/>
        <pt x="368" y="5" on="0"/>
        <pt x="344" y="25" on="1"/>
        <pt x="320" y="16" on="1"/>
        <pt x="296" y="7" on="0"/>
        <pt x="213" y="-11" on="0"/>
        <pt x="177" y="-11" on="1"/>
        <pt x="108" y="-11" on="0"/>
        <pt x="34" y="73" on="0"/>
        <pt x="34" y="225" on="0"/>
        <pt x="114" y="293" on="0"/>
        <pt x="199" y="299" on="1"/>
        <pt x="328" y="310" on="1"/>
        <pt x="328" y="342" on="1"/>
        <pt x="328" y="373" on="0"/>
        <pt x="292" y="407" on="0"/>
        <pt x="262" y="407" on="1"/>
        <pt x="188" y="407" on="0"/>
        <pt x="69" y="397" on="1"/>
        <pt x="66" y="490" on="1"/>
        <pt x="100" y="495" on="1"/>
        <pt x="202" y="510" on="0"/>
        <pt x="268" y="510" on="1"/>
        <pt x="352" y="510" on="0"/>
        <pt x="436" y="431" on="0"/>
      </contour>
      <contour>
        <pt x="197" y="82" on="1"/>
        <pt x="254" y="82" on="0"/>
        <pt x="328" y="104" on="1"/>
        <pt x="328" y="226" on="1"/>
        <pt x="212" y="218" on="1"/>
        <pt x="143" y="214" on="0"/>
        <pt x="143" y="82" on="0"/>
      </contour>
      <contour>
        <pt x="191" y="684" on="0"/>
        <pt x="315" y="684" on="0"/>
        <pt x="320" y="741" on="1"/>
        <pt x="432" y="741" on="1"/>
        <pt x="427" y="672" on="0"/>
        <pt x="335" y="588" on="0"/>
        <pt x="171" y="588" on="0"/>
        <pt x="79" y="671" on="0"/>
        <pt x="73" y="741" on="1"/>
        <pt x="185" y="741" on="1"/>
      </contour>
    </TTGlyph>
    <TTGlyph name="acircumflex" xMin="34" yMin="-11" xMax="480" yMax="731">
      <contour>
        <pt x="436" y="346" on="1"/>
        <pt x="436" y="118" on="1"/>
        <pt x="437" y="96" on="0"/>
        <pt x="458" y="75" on="0"/>
        <pt x="480" y="72" on="1"/>
        <pt x="477" y="-11" on="1"/>
        <pt x="391" y="-11" on="0"/>
        <pt x="344" y="26" on="1"/>
        <pt x="264" y="-11" on="0"/>
        <pt x="183" y="-11" on="1"/>
        <pt x="34" y="-11" on="0"/>
        <pt x="34" y="148" on="1"/>
        <pt x="34" y="224" on="0"/>
        <pt x="115" y="292" on="0"/>
        <pt x="199" y="299" on="1"/>
        <pt x="328" y="310" on="1"/>
        <pt x="328" y="346" on="1"/>
        <pt x="328" y="386" on="0"/>
        <pt x="293" y="418" on="0"/>
        <pt x="259" y="418" on="1"/>
        <pt x="195" y="418" on="0"/>
        <pt x="99" y="410" on="1"/>
        <pt x="67" y="408" on="1"/>
        <pt x="63" y="485" on="1"/>
        <pt x="172" y="511" on="0"/>
        <pt x="355" y="511" on="0"/>
        <pt x="436" y="432" on="0"/>
      </contour>
      <contour>
        <pt x="212" y="222" on="1"/>
        <pt x="143" y="216" on="0"/>
        <pt x="143" y="78" on="0"/>
        <pt x="204" y="78" on="1"/>
        <pt x="254" y="78" on="0"/>
        <pt x="310" y="94" on="1"/>
        <pt x="328" y="100" on="1"/>
        <pt x="328" y="233" on="1"/>
      </contour>
      <contour>
        <pt x="88" y="585" on="1"/>
        <pt x="213" y="731" on="1"/>
        <pt x="282" y="731" on="1"/>
        <pt x="409" y="585" on="1"/>
        <pt x="307" y="585" on="1"/>
        <pt x="249" y="661" on="1"/>
        <pt x="191" y="585" on="1"/>
      </contour>
    </TTGlyph>
    <TTGlyph name="acute" xMin="14" yMin="576" xMax="284" yMax="748">
      <contour>
        <pt x="14" y="647" on="1"/>
        <pt x="250" y="748" on="1"/>
        <pt x="284" y="654" on="1"/>
        <pt x="40" y="576" on="1"/>
      </contour>
    </TTGlyph>
    <TTGlyph name="acute.cap" xMin="6" yMin="760" xMax="277" yMax="939">
      <contour>
        <pt x="6" y="836" on="1"/>
        <pt x="242" y="939" on="1"/>
        <pt x="277" y="842" on="1"/>
        <pt x="34" y="760" on="1"/>
      </contour>
    </TTGlyph>
    <TTGlyph name="adieresis" xMin="34" yMin="-11" xMax="480" yMax="721">
      <contour>
        <pt x="436" y="346" on="1"/>
        <pt x="436" y="118" on="1"/>
        <pt x="437" y="96" on="0"/>
        <pt x="458" y="75" on="0"/>
        <pt x="480" y="72" on="1"/>
        <pt x="477" y="-11" on="1"/>
        <pt x="391" y="-11" on="0"/>
        <pt x="344" y="26" on="1"/>
        <pt x="264" y="-11" on="0"/>
        <pt x="183" y="-11" on="1"/>
        <pt x="34" y="-11" on="0"/>
        <pt x="34" y="148" on="1"/>
        <pt x="34" y="224" on="0"/>
        <pt x="115" y="292" on="0"/>
        <pt x="199" y="299" on="1"/>
        <pt x="328" y="310" on="1"/>
        <pt x="328" y="346" on="1"/>
        <pt x="328" y="386" on="0"/>
        <pt x="293" y="418" on="0"/>
        <pt x="259" y="418" on="1"/>
        <pt x="195" y="418" on="0"/>
        <pt x="99" y="410" on="1"/>
        <pt x="67" y="408" on="1"/>
        <pt x="63" y="485" on="1"/>
        <pt x="172" y="511" on="0"/>
        <pt x="355" y="511" on="0"/>
        <pt x="436" y="432" on="0"/>
      </contour>
      <contour>
        <pt x="212" y="222" on="1"/>
        <pt x="143" y="216" on="0"/>
        <pt x="143" y="78" on="0"/>
        <pt x="204" y="78" on="1"/>
        <pt x="254" y="78" on="0"/>
        <pt x="310" y="94" on="1"/>
        <pt x="328" y="100" on="1"/>
        <pt x="328" y="233" on="1"/>
      </contour>
      <contour>
        <pt x="83" y="607" on="1"/>
        <pt x="83" y="721" on="1"/>
        <pt x="187" y="721" on="1"/>
        <pt x="187" y="607" on="1"/>
      </contour>
      <contour>
        <pt x="292" y="607" on="1"/>
        <pt x="292" y="721" on="1"/>
        <pt x="396" y="721" on="1"/>
        <pt x="396" y="607" on="1"/>
      </contour>
    </TTGlyph>
    <TTGlyph name="ae" xMin="34" yMin="-11" xMax="753" yMax="510">
      <contour>
        <pt x="706" y="94" on="1"/>
        <pt x="735" y="97" on="1"/>
        <pt x="737" y="12" on="1"/>
        <pt x="622" y="-11" on="0"/>
        <pt x="434" y="-11" on="0"/>
        <pt x="384" y="39" on="1"/>
        <pt x="357" y="27" on="1"/>
        <pt x="271" y="-11" on="0"/>
        <pt x="177" y="-11" on="1"/>
        <pt x="107" y="-11" on="0"/>
        <pt x="34" y="73" on="0"/>
        <pt x="34" y="228" on="0"/>
        <pt x="119" y="294" on="0"/>
        <pt x="211" y="301" on="1"/>
        <pt x="328" y="310" on="1"/>
        <pt x="328" y="342" on="1"/>
        <pt x="328" y="374" on="0"/>
        <pt x="293" y="407" on="0"/>
        <pt x="261" y="407" on="1"/>
        <pt x="186" y="407" on="0"/>
        <pt x="102" y="399" on="1"/>
        <pt x="70" y="396" on="1"/>
        <pt x="66" y="492" on="1"/>
        <pt x="193" y="510" on="0"/>
        <pt x="361" y="510" on="0"/>
        <pt x="400" y="458" on="1"/>
        <pt x="449" y="510" on="0"/>
        <pt x="549" y="510" on="1"/>
        <pt x="753" y="510" on="0"/>
        <pt x="753" y="282" on="1"/>
        <pt x="746" y="203" on="1"/>
        <pt x="436" y="203" on="1"/>
        <pt x="437" y="143" on="0"/>
        <pt x="489" y="88" on="0"/>
        <pt x="632" y="88" on="0"/>
      </contour>
      <contour>
        <pt x="197" y="82" on="1"/>
        <pt x="242" y="82" on="0"/>
        <pt x="332" y="105" on="0"/>
        <pt x="335" y="107" on="1"/>
        <pt x="327" y="154" on="0"/>
        <pt x="327" y="226" on="1"/>
        <pt x="212" y="218" on="1"/>
        <pt x="143" y="213" on="0"/>
        <pt x="143" y="82" on="0"/>
      </contour>
      <contour>
        <pt x="436" y="288" on="1"/>
        <pt x="646" y="288" on="1"/>
        <pt x="646" y="356" on="0"/>
        <pt x="598" y="414" on="0"/>
        <pt x="487" y="414" on="0"/>
        <pt x="436" y="354" on="0"/>
      </contour>
    </TTGlyph>
    <TTGlyph name="aeacute" xMin="34" yMin="-11" xMax="753" yMax="748">
      <contour>
        <pt x="706" y="94" on="1"/>
        <pt x="735" y="97" on="1"/>
        <pt x="737" y="12" on="1"/>
        <pt x="622" y="-11" on="0"/>
        <pt x="434" y="-11" on="0"/>
        <pt x="384" y="39" on="1"/>
        <pt x="357" y="27" on="1"/>
        <pt x="271" y="-11" on="0"/>
        <pt x="177" y="-11" on="1"/>
        <pt x="107" y="-11" on="0"/>
        <pt x="34" y="73" on="0"/>
        <pt x="34" y="228" on="0"/>
        <pt x="119" y="294" on="0"/>
        <pt x="211" y="301" on="1"/>
        <pt x="328" y="310" on="1"/>
        <pt x="328" y="342" on="1"/>
        <pt x="328" y="374" on="0"/>
        <pt x="293" y="407" on="0"/>
        <pt x="261" y="407" on="1"/>
        <pt x="186" y="407" on="0"/>
        <pt x="102" y="399" on="1"/>
        <pt x="70" y="396" on="1"/>
        <pt x="66" y="492" on="1"/>
        <pt x="193" y="510" on="0"/>
        <pt x="361" y="510" on="0"/>
        <pt x="400" y="458" on="1"/>
        <pt x="449" y="510" on="0"/>
        <pt x="549" y="510" on="1"/>
        <pt x="753" y="510" on="0"/>
        <pt x="753" y="282" on="1"/>
        <pt x="746" y="203" on="1"/>
        <pt x="436" y="203" on="1"/>
        <pt x="437" y="143" on="0"/>
        <pt x="489" y="88" on="0"/>
        <pt x="632" y="88" on="0"/>
      </contour>
      <contour>
        <pt x="197" y="82" on="1"/>
        <pt x="242" y="82" on="0"/>
        <pt x="332" y="105" on="0"/>
        <pt x="335" y="107" on="1"/>
        <pt x="327" y="154" on="0"/>
        <pt x="327" y="226" on="1"/>
        <pt x="212" y="218" on="1"/>
        <pt x="143" y="213" on="0"/>
        <pt x="143" y="82" on="0"/>
      </contour>
      <contour>
        <pt x="436" y="288" on="1"/>
        <pt x="646" y="288" on="1"/>
        <pt x="646" y="356" on="0"/>
        <pt x="598" y="414" on="0"/>
        <pt x="487" y="414" on="0"/>
        <pt x="436" y="354" on="0"/>
      </contour>
      <contour>
        <pt x="271" y="647" on="1"/>
        <pt x="507" y="748" on="1"/>
        <pt x="541" y="654" on="1"/>
        <pt x="297" y="576" on="1"/>
      </contour>
    </TTGlyph>
    <TTGlyph name="agrave" xMin="34" yMin="-11" xMax="480" yMax="748">
      <contour>
        <pt x="436" y="346" on="1"/>
        <pt x="436" y="118" on="1"/>
        <pt x="437" y="96" on="0"/>
        <pt x="458" y="75" on="0"/>
        <pt x="480" y="72" on="1"/>
        <pt x="477" y="-11" on="1"/>
        <pt x="391" y="-11" on="0"/>
        <pt x="344" y="26" on="1"/>
        <pt x="264" y="-11" on="0"/>
        <pt x="183" y="-11" on="1"/>
        <pt x="34" y="-11" on="0"/>
        <pt x="34" y="148" on="1"/>
        <pt x="34" y="224" on="0"/>
        <pt x="115" y="292" on="0"/>
        <pt x="199" y="299" on="1"/>
        <pt x="328" y="310" on="1"/>
        <pt x="328" y="346" on="1"/>
        <pt x="328" y="386" on="0"/>
        <pt x="293" y="418" on="0"/>
        <pt x="259" y="418" on="1"/>
        <pt x="195" y="418" on="0"/>
        <pt x="99" y="410" on="1"/>
        <pt x="67" y="408" on="1"/>
        <pt x="63" y="485" on="1"/>
        <pt x="172" y="511" on="0"/>
        <pt x="355" y="511" on="0"/>
        <pt x="436" y="432" on="0"/>
      </contour>
      <contour>
        <pt x="212" y="222" on="1"/>
        <pt x="143" y="216" on="0"/>
        <pt x="143" y="78" on="0"/>
        <pt x="204" y="78" on="1"/>
        <pt x="254" y="78" on="0"/>
        <pt x="310" y="94" on="1"/>
        <pt x="328" y="100" on="1"/>
        <pt x="328" y="233" on="1"/>
      </contour>
      <contour>
        <pt x="145" y="748" on="1"/>
        <pt x="381" y="647" on="1"/>
        <pt x="355" y="576" on="1"/>
        <pt x="111" y="654" on="1"/>
      </contour>
    </TTGlyph>
    <TTGlyph name="amacron" xMin="34" yMin="-11" xMax="480" yMax="691">
      <contour>
        <pt x="436" y="346" on="1"/>
        <pt x="436" y="118" on="1"/>
        <pt x="437" y="96" on="0"/>
        <pt x="458" y="75" on="0"/>
        <pt x="480" y="72" on="1"/>
        <pt x="477" y="-11" on="1"/>
        <pt x="391" y="-11" on="0"/>
        <pt x="344" y="26" on="1"/>
        <pt x="264" y="-11" on="0"/>
        <pt x="183" y="-11" on="1"/>
        <pt x="34" y="-11" on="0"/>
        <pt x="34" y="148" on="1"/>
        <pt x="34" y="224" on="0"/>
        <pt x="115" y="292" on="0"/>
        <pt x="199" y="299" on="1"/>
        <pt x="328" y="310" on="1"/>
        <pt x="328" y="346" on="1"/>
        <pt x="328" y="386" on="0"/>
        <pt x="293" y="418" on="0"/>
        <pt x="259" y="418" on="1"/>
        <pt x="195" y="418" on="0"/>
        <pt x="99" y="410" on="1"/>
        <pt x="67" y="408" on="1"/>
        <pt x="63" y="485" on="1"/>
        <pt x="172" y="511" on="0"/>
        <pt x="355" y="511" on="0"/>
        <pt x="436" y="432" on="0"/>
      </contour>
      <contour>
        <pt x="212" y="222" on="1"/>
        <pt x="143" y="216" on="0"/>
        <pt x="143" y="78" on="0"/>
        <pt x="204" y="78" on="1"/>
        <pt x="254" y="78" on="0"/>
        <pt x="310" y="94" on="1"/>
        <pt x="328" y="100" on="1"/>
        <pt x="328" y="233" on="1"/>
      </contour>
      <contour>
        <pt x="109" y="609" on="1"/>
        <pt x="109" y="691" on="1"/>
        <pt x="391" y="691" on="1"/>
        <pt x="391" y="609" on="1"/>
      </contour>
    </TTGlyph>
    <TTGlyph name="ampersand" xMin="38" yMin="-11" xMax="681" yMax="707">
      <contour>
        <pt x="123" y="627" on="0"/>
        <pt x="226" y="707" on="0"/>
        <pt x="408" y="707" on="0"/>
        <pt x="506" y="626" on="0"/>
        <pt x="506" y="483" on="0"/>
        <pt x="442" y="401" on="0"/>
        <pt x="361" y="354" on="1"/>
        <pt x="483" y="233" on="1"/>
        <pt x="490" y="252" on="0"/>
        <pt x="504" y="345" on="0"/>
        <pt x="506" y="376" on="1"/>
        <pt x="611" y="374" on="1"/>
        <pt x="597" y="252" on="0"/>
        <pt x="562" y="169" on="1"/>
        <pt x="681" y="60" on="1"/>
        <pt x="619" y="-11" on="1"/>
        <pt x="506" y="87" on="1"/>
        <pt x="473" y="41" on="0"/>
        <pt x="363" y="-11" on="0"/>
        <pt x="297" y="-11" on="1"/>
        <pt x="156" y="-11" on="0"/>
        <pt x="38" y="95" on="0"/>
        <pt x="38" y="199" on="1"/>
        <pt x="38" y="282" on="0"/>
        <pt x="108" y="373" on="0"/>
        <pt x="186" y="402" on="1"/>
        <pt x="147" y="447" on="0"/>
        <pt x="123" y="509" on="0"/>
        <pt x="123" y="558" on="1"/>
      </contour>
      <contour>
        <pt x="285" y="86" on="1"/>
        <pt x="333" y="86" on="0"/>
        <pt x="413" y="119" on="0"/>
        <pt x="432" y="148" on="1"/>
        <pt x="243" y="337" on="1"/>
        <pt x="193" y="318" on="0"/>
        <pt x="148" y="258" on="0"/>
        <pt x="148" y="208" on="1"/>
        <pt x="148" y="86" on="0"/>
      </contour>
      <contour>
        <pt x="233" y="536" on="1"/>
        <pt x="233" y="487" on="0"/>
        <pt x="278" y="439" on="1"/>
        <pt x="300" y="416" on="1"/>
        <pt x="353" y="446" on="0"/>
        <pt x="396" y="498" on="0"/>
        <pt x="396" y="539" on="1"/>
        <pt x="396" y="615" on="0"/>
        <pt x="233" y="615" on="0"/>
      </contour>
    </TTGlyph>
    <TTGlyph name="aogonek" xMin="34" yMin="-212" xMax="480" yMax="511">
      <contour>
        <pt x="436" y="346" on="1"/>
        <pt x="436" y="118" on="1"/>
        <pt x="437" y="96" on="0"/>
        <pt x="458" y="75" on="0"/>
        <pt x="480" y="72" on="1"/>
        <pt x="477" y="-11" on="1"/>
        <pt x="452" y="-11" on="0"/>
        <pt x="441" y="-10" on="1"/>
        <pt x="389" y="-62" on="0"/>
        <pt x="389" y="-90" on="1"/>
        <pt x="389" y="-107" on="0"/>
        <pt x="409" y="-128" on="0"/>
        <pt x="425" y="-128" on="1"/>
        <pt x="470" y="-123" on="1"/>
        <pt x="480" y="-202" on="1"/>
        <pt x="427" y="-212" on="0"/>
        <pt x="344" y="-212" on="0"/>
        <pt x="287" y="-162" on="0"/>
        <pt x="287" y="-87" on="0"/>
        <pt x="328" y="-23" on="0"/>
        <pt x="348" y="-6" on="1"/>
        <pt x="368" y="10" on="1"/>
        <pt x="355" y="17" on="0"/>
        <pt x="344" y="26" on="1"/>
        <pt x="264" y="-11" on="0"/>
        <pt x="183" y="-11" on="1"/>
        <pt x="34" y="-11" on="0"/>
        <pt x="34" y="148" on="1"/>
        <pt x="34" y="224" on="0"/>
        <pt x="115" y="292" on="0"/>
        <pt x="199" y="299" on="1"/>
        <pt x="328" y="310" on="1"/>
        <pt x="328" y="346" on="1"/>
        <pt x="328" y="386" on="0"/>
        <pt x="293" y="418" on="0"/>
        <pt x="259" y="418" on="1"/>
        <pt x="195" y="418" on="0"/>
        <pt x="99" y="410" on="1"/>
        <pt x="67" y="408" on="1"/>
        <pt x="63" y="485" on="1"/>
        <pt x="172" y="511" on="0"/>
        <pt x="355" y="511" on="0"/>
        <pt x="436" y="432" on="0"/>
      </contour>
      <contour>
        <pt x="212" y="222" on="1"/>
        <pt x="143" y="216" on="0"/>
        <pt x="143" y="78" on="0"/>
        <pt x="204" y="78" on="1"/>
        <pt x="254" y="78" on="0"/>
        <pt x="310" y="94" on="1"/>
        <pt x="328" y="100" on="1"/>
        <pt x="328" y="233" on="1"/>
      </contour>
    </TTGlyph>
    <TTGlyph name="approxequal" xMin="62" yMin="62" xMax="497" yMax="416">
      <contour>
        <pt x="409" y="267" on="0"/>
        <pt x="354" y="267" on="0"/>
        <pt x="198" y="318" on="0"/>
        <pt x="160" y="318" on="0"/>
        <pt x="106" y="297" on="0"/>
        <pt x="89" y="286" on="1"/>
        <pt x="72" y="276" on="1"/>
        <pt x="62" y="364" on="1"/>
        <pt x="124" y="416" on="0"/>
        <pt x="183" y="416" on="1"/>
        <pt x="212" y="416" on="0"/>
        <pt x="362" y="365" on="0"/>
        <pt x="382" y="365" on="1"/>
        <pt x="418" y="365" on="0"/>
        <pt x="471" y="396" on="1"/>
        <pt x="488" y="406" on="1"/>
        <pt x="497" y="319" on="1"/>
        <pt x="479" y="301" on="0"/>
      </contour>
      <contour>
        <pt x="409" y="62" on="0"/>
        <pt x="354" y="62" on="0"/>
        <pt x="198" y="113" on="0"/>
        <pt x="160" y="113" on="0"/>
        <pt x="106" y="92" on="0"/>
        <pt x="89" y="82" on="1"/>
        <pt x="72" y="71" on="1"/>
        <pt x="62" y="159" on="1"/>
        <pt x="124" y="211" on="0"/>
        <pt x="183" y="211" on="1"/>
        <pt x="212" y="211" on="0"/>
        <pt x="362" y="160" on="0"/>
        <pt x="402" y="160" on="0"/>
        <pt x="454" y="180" on="0"/>
        <pt x="471" y="190" on="1"/>
        <pt x="488" y="201" on="1"/>
        <pt x="497" y="114" on="1"/>
        <pt x="479" y="96" on="0"/>
      </contour>
    </TTGlyph>
    <TTGlyph name="aring" xMin="34" yMin="-11" xMax="480" yMax="752">
      <contour>
        <pt x="436" y="346" on="1"/>
        <pt x="436" y="118" on="1"/>
        <pt x="437" y="96" on="0"/>
        <pt x="458" y="75" on="0"/>
        <pt x="480" y="72" on="1"/>
        <pt x="477" y="-11" on="1"/>
        <pt x="391" y="-11" on="0"/>
        <pt x="344" y="26" on="1"/>
        <pt x="264" y="-11" on="0"/>
        <pt x="183" y="-11" on="1"/>
        <pt x="34" y="-11" on="0"/>
        <pt x="34" y="148" on="1"/>
        <pt x="34" y="224" on="0"/>
        <pt x="115" y="292" on="0"/>
        <pt x="199" y="299" on="1"/>
        <pt x="328" y="310" on="1"/>
        <pt x="328" y="346" on="1"/>
        <pt x="328" y="386" on="0"/>
        <pt x="293" y="418" on="0"/>
        <pt x="259" y="418" on="1"/>
        <pt x="195" y="418" on="0"/>
        <pt x="99" y="410" on="1"/>
        <pt x="67" y="408" on="1"/>
        <pt x="63" y="485" on="1"/>
        <pt x="172" y="511" on="0"/>
        <pt x="355" y="511" on="0"/>
        <pt x="436" y="432" on="0"/>
      </contour>
      <contour>
        <pt x="212" y="222" on="1"/>
        <pt x="143" y="216" on="0"/>
        <pt x="143" y="78" on="0"/>
        <pt x="204" y="78" on="1"/>
        <pt x="254" y="78" on="0"/>
        <pt x="310" y="94" on="1"/>
        <pt x="328" y="100" on="1"/>
        <pt x="328" y="233" on="1"/>
      </contour>
      <contour>
        <pt x="213" y="530" on="0"/>
        <pt x="149" y="593" on="0"/>
        <pt x="149" y="688" on="0"/>
        <pt x="213" y="752" on="0"/>
        <pt x="307" y="752" on="0"/>
        <pt x="372" y="687" on="0"/>
        <pt x="372" y="593" on="0"/>
        <pt x="307" y="530" on="0"/>
      </contour>
      <contour>
        <pt x="239" y="691" on="0"/>
        <pt x="211" y="662" on="0"/>
        <pt x="211" y="619" on="0"/>
        <pt x="239" y="590" on="0"/>
        <pt x="282" y="590" on="0"/>
        <pt x="310" y="619" on="0"/>
        <pt x="310" y="662" on="0"/>
        <pt x="282" y="691" on="0"/>
      </contour>
    </TTGlyph>
    <TTGlyph name="aringacute" xMin="34" yMin="-11" xMax="480" yMax="941">
      <contour>
        <pt x="436" y="346" on="1"/>
        <pt x="436" y="118" on="1"/>
        <pt x="437" y="96" on="0"/>
        <pt x="458" y="75" on="0"/>
        <pt x="480" y="72" on="1"/>
        <pt x="477" y="-11" on="1"/>
        <pt x="391" y="-11" on="0"/>
        <pt x="344" y="26" on="1"/>
        <pt x="264" y="-11" on="0"/>
        <pt x="183" y="-11" on="1"/>
        <pt x="34" y="-11" on="0"/>
        <pt x="34" y="148" on="1"/>
        <pt x="34" y="224" on="0"/>
        <pt x="115" y="292" on="0"/>
        <pt x="199" y="299" on="1"/>
        <pt x="328" y="310" on="1"/>
        <pt x="328" y="346" on="1"/>
        <pt x="328" y="386" on="0"/>
        <pt x="293" y="418" on="0"/>
        <pt x="259" y="418" on="1"/>
        <pt x="195" y="418" on="0"/>
        <pt x="99" y="410" on="1"/>
        <pt x="67" y="408" on="1"/>
        <pt x="63" y="485" on="1"/>
        <pt x="172" y="511" on="0"/>
        <pt x="355" y="511" on="0"/>
        <pt x="436" y="432" on="0"/>
      </contour>
      <contour>
        <pt x="212" y="222" on="1"/>
        <pt x="143" y="216" on="0"/>
        <pt x="143" y="78" on="0"/>
        <pt x="204" y="78" on="1"/>
        <pt x="254" y="78" on="0"/>
        <pt x="310" y="94" on="1"/>
        <pt x="328" y="100" on="1"/>
        <pt x="328" y="233" on="1"/>
      </contour>
      <contour>
        <pt x="202" y="530" on="0"/>
        <pt x="138" y="593" on="0"/>
        <pt x="138" y="688" on="0"/>
        <pt x="202" y="752" on="0"/>
        <pt x="296" y="752" on="0"/>
        <pt x="361" y="687" on="0"/>
        <pt x="361" y="593" on="0"/>
        <pt x="296" y="530" on="0"/>
      </contour>
      <contour>
        <pt x="228" y="691" on="0"/>
        <pt x="200" y="662" on="0"/>
        <pt x="200" y="619" on="0"/>
        <pt x="228" y="590" on="0"/>
        <pt x="271" y="590" on="0"/>
        <pt x="299" y="619" on="0"/>
        <pt x="299" y="662" on="0"/>
        <pt x="271" y="691" on="0"/>
      </contour>
      <contour>
        <pt x="118" y="840" on="1"/>
        <pt x="354" y="941" on="1"/>
        <pt x="388" y="847" on="1"/>
        <pt x="144" y="769" on="1"/>
      </contour>
    </TTGlyph>
    <TTGlyph name="asciicircum" xMin="37" yMin="316" xMax="514" yMax="660">
      <contour>
        <pt x="400" y="316" on="1"/>
        <pt x="276" y="554" on="1"/>
        <pt x="151" y="316" on="1"/>
        <pt x="37" y="316" on="1"/>
        <pt x="227" y="660" on="1"/>
        <pt x="321" y="660" on="1"/>
        <pt x="514" y="316" on="1"/>
      </contour>
    </TTGlyph>
    <TTGlyph name="asciitilde" xMin="64" yMin="181" xMax="496" yMax="330">
      <contour>
        <pt x="409" y="181" on="0"/>
        <pt x="354" y="181" on="0"/>
        <pt x="199" y="232" on="0"/>
        <pt x="161" y="232" on="0"/>
        <pt x="108" y="211" on="0"/>
        <pt x="91" y="200" on="1"/>
        <pt x="74" y="190" on="1"/>
        <pt x="64" y="278" on="1"/>
        <pt x="126" y="330" on="0"/>
        <pt x="184" y="330" on="1"/>
        <pt x="212" y="330" on="0"/>
        <pt x="362" y="279" on="0"/>
        <pt x="382" y="279" on="1"/>
        <pt x="417" y="279" on="0"/>
        <pt x="470" y="310" on="1"/>
        <pt x="487" y="320" on="1"/>
        <pt x="496" y="233" on="1"/>
        <pt x="478" y="215" on="0"/>
      </contour>
    </TTGlyph>
    <TTGlyph name="asterisk" xMin="46" yMin="363" xMax="382" yMax="713">
      <contour>
        <pt x="382" y="504" on="1"/>
        <pt x="255" y="504" on="1"/>
        <pt x="294" y="382" on="1"/>
        <pt x="232" y="363" on="1"/>
        <pt x="191" y="486" on="1"/>
        <pt x="86" y="407" on="1"/>
        <pt x="46" y="458" on="1"/>
        <pt x="153" y="537" on="1"/>
        <pt x="49" y="611" on="1"/>
        <pt x="88" y="665" on="1"/>
        <pt x="191" y="590" on="1"/>
        <pt x="231" y="713" on="1"/>
        <pt x="295" y="692" on="1"/>
        <pt x="256" y="568" on="1"/>
        <pt x="382" y="568" on="1"/>
      </contour>
    </TTGlyph>
    <TTGlyph name="at" xMin="44" yMin="-206" xMax="939" yMax="726">
      <contour>
        <pt x="939" y="305" on="1"/>
        <pt x="939" y="295" on="1"/>
        <pt x="939" y="130" on="0"/>
        <pt x="847" y="-3" on="0"/>
        <pt x="754" y="-3" on="1"/>
        <pt x="709" y="-3" on="0"/>
        <pt x="646" y="26" on="0"/>
        <pt x="637" y="40" on="1"/>
        <pt x="628" y="55" on="1"/>
        <pt x="540" y="-2" on="0"/>
        <pt x="381" y="-2" on="0"/>
        <pt x="286" y="109" on="0"/>
        <pt x="286" y="378" on="0"/>
        <pt x="374" y="502" on="0"/>
        <pt x="482" y="502" on="1"/>
        <pt x="522" y="502" on="0"/>
        <pt x="568" y="484" on="1"/>
        <pt x="584" y="477" on="1"/>
        <pt x="584" y="491" on="1"/>
        <pt x="692" y="491" on="1"/>
        <pt x="692" y="307" on="1"/>
        <pt x="692" y="155" on="0"/>
        <pt x="702" y="122" on="1"/>
        <pt x="705" y="110" on="0"/>
        <pt x="721" y="92" on="0"/>
        <pt x="738" y="88" on="0"/>
        <pt x="780" y="88" on="0"/>
        <pt x="796" y="102" on="1"/>
        <pt x="830" y="133" on="0"/>
        <pt x="830" y="295" on="1"/>
        <pt x="830" y="306" on="1"/>
        <pt x="830" y="477" on="0"/>
        <pt x="675" y="631" on="0"/>
        <pt x="329" y="631" on="0"/>
        <pt x="152" y="445" on="0"/>
        <pt x="152" y="62" on="0"/>
        <pt x="315" y="-111" on="0"/>
        <pt x="503" y="-111" on="1"/>
        <pt x="646" y="-102" on="1"/>
        <pt x="651" y="-197" on="1"/>
        <pt x="559" y="-206" on="0"/>
        <pt x="503" y="-206" on="1"/>
        <pt x="388" y="-206" on="0"/>
        <pt x="224" y="-161" on="0"/>
        <pt x="164" y="-108" on="1"/>
        <pt x="44" y="-3" on="0"/>
        <pt x="44" y="261" on="1"/>
        <pt x="44" y="496" on="0"/>
        <pt x="285" y="726" on="0"/>
        <pt x="504" y="726" on="1"/>
        <pt x="939" y="726" on="0"/>
      </contour>
      <contour>
        <pt x="477" y="93" on="1"/>
        <pt x="519" y="93" on="0"/>
        <pt x="591" y="127" on="1"/>
        <pt x="584" y="167" on="0"/>
        <pt x="584" y="262" on="1"/>
        <pt x="584" y="392" on="1"/>
        <pt x="534" y="407" on="0"/>
        <pt x="504" y="407" on="1"/>
        <pt x="440" y="407" on="0"/>
        <pt x="396" y="334" on="0"/>
        <pt x="396" y="248" on="1"/>
        <pt x="396" y="93" on="0"/>
      </contour>
    </TTGlyph>
    <TTGlyph name="at.cap" xMin="42" yMin="-182" xMax="937" yMax="750">
      <contour>
        <pt x="937" y="329" on="1"/>
        <pt x="937" y="319" on="1"/>
        <pt x="937" y="154" on="0"/>
        <pt x="845" y="21" on="0"/>
        <pt x="752" y="21" on="1"/>
        <pt x="707" y="21" on="0"/>
        <pt x="644" y="50" on="0"/>
        <pt x="635" y="64" on="1"/>
        <pt x="626" y="79" on="1"/>
        <pt x="538" y="22" on="0"/>
        <pt x="379" y="22" on="0"/>
        <pt x="284" y="133" on="0"/>
        <pt x="284" y="402" on="0"/>
        <pt x="372" y="526" on="0"/>
        <pt x="480" y="526" on="1"/>
        <pt x="520" y="526" on="0"/>
        <pt x="566" y="508" on="1"/>
        <pt x="582" y="501" on="1"/>
        <pt x="582" y="515" on="1"/>
        <pt x="690" y="515" on="1"/>
        <pt x="690" y="331" on="1"/>
        <pt x="690" y="179" on="0"/>
        <pt x="700" y="146" on="1"/>
        <pt x="703" y="134" on="0"/>
        <pt x="719" y="116" on="0"/>
        <pt x="736" y="112" on="0"/>
        <pt x="778" y="112" on="0"/>
        <pt x="794" y="126" on="1"/>
        <pt x="828" y="157" on="0"/>
        <pt x="828" y="319" on="1"/>
        <pt x="828" y="330" on="1"/>
        <pt x="828" y="501" on="0"/>
        <pt x="673" y="655" on="0"/>
        <pt x="327" y="655" on="0"/>
        <pt x="150" y="469" on="0"/>
        <pt x="150" y="86" on="0"/>
        <pt x="313" y="-87" on="0"/>
        <pt x="501" y="-87" on="1"/>
        <pt x="644" y="-78" on="1"/>
        <pt x="649" y="-173" on="1"/>
        <pt x="557" y="-182" on="0"/>
        <pt x="501" y="-182" on="1"/>
        <pt x="386" y="-182" on="0"/>
        <pt x="222" y="-137" on="0"/>
        <pt x="162" y="-84" on="1"/>
        <pt x="42" y="21" on="0"/>
        <pt x="42" y="285" on="1"/>
        <pt x="42" y="520" on="0"/>
        <pt x="283" y="750" on="0"/>
        <pt x="502" y="750" on="1"/>
        <pt x="937" y="750" on="0"/>
      </contour>
      <contour>
        <pt x="475" y="117" on="1"/>
        <pt x="517" y="117" on="0"/>
        <pt x="589" y="151" on="1"/>
        <pt x="582" y="191" on="0"/>
        <pt x="582" y="286" on="1"/>
        <pt x="582" y="416" on="1"/>
        <pt x="532" y="431" on="0"/>
        <pt x="502" y="431" on="1"/>
        <pt x="438" y="431" on="0"/>
        <pt x="394" y="358" on="0"/>
        <pt x="394" y="272" on="1"/>
        <pt x="394" y="117" on="0"/>
      </contour>
    </TTGlyph>
    <TTGlyph name="atilde" xMin="34" yMin="-11" xMax="480" yMax="722">
      <contour>
        <pt x="436" y="346" on="1"/>
        <pt x="436" y="118" on="1"/>
        <pt x="437" y="96" on="0"/>
        <pt x="458" y="75" on="0"/>
        <pt x="480" y="72" on="1"/>
        <pt x="477" y="-11" on="1"/>
        <pt x="391" y="-11" on="0"/>
        <pt x="344" y="26" on="1"/>
        <pt x="264" y="-11" on="0"/>
        <pt x="183" y="-11" on="1"/>
        <pt x="34" y="-11" on="0"/>
        <pt x="34" y="148" on="1"/>
        <pt x="34" y="224" on="0"/>
        <pt x="115" y="292" on="0"/>
        <pt x="199" y="299" on="1"/>
        <pt x="328" y="310" on="1"/>
        <pt x="328" y="346" on="1"/>
        <pt x="328" y="386" on="0"/>
        <pt x="293" y="418" on="0"/>
        <pt x="259" y="418" on="1"/>
        <pt x="195" y="418" on="0"/>
        <pt x="99" y="410" on="1"/>
        <pt x="67" y="408" on="1"/>
        <pt x="63" y="485" on="1"/>
        <pt x="172" y="511" on="0"/>
        <pt x="355" y="511" on="0"/>
        <pt x="436" y="432" on="0"/>
      </contour>
      <contour>
        <pt x="212" y="222" on="1"/>
        <pt x="143" y="216" on="0"/>
        <pt x="143" y="78" on="0"/>
        <pt x="204" y="78" on="1"/>
        <pt x="254" y="78" on="0"/>
        <pt x="310" y="94" on="1"/>
        <pt x="328" y="100" on="1"/>
        <pt x="328" y="233" on="1"/>
      </contour>
      <contour>
        <pt x="368" y="629" on="0"/>
        <pt x="317" y="597" on="0"/>
        <pt x="275" y="597" on="0"/>
        <pt x="178" y="637" on="0"/>
        <pt x="164" y="637" on="1"/>
        <pt x="140" y="637" on="0"/>
        <pt x="101" y="612" on="1"/>
        <pt x="88" y="603" on="1"/>
        <pt x="64" y="666" on="1"/>
        <pt x="80" y="682" on="1"/>
        <pt x="89" y="691" on="0"/>
        <pt x="141" y="722" on="0"/>
        <pt x="184" y="722" on="0"/>
        <pt x="281" y="682" on="0"/>
        <pt x="293" y="682" on="1"/>
        <pt x="315" y="682" on="0"/>
        <pt x="356" y="709" on="1"/>
        <pt x="369" y="718" on="1"/>
        <pt x="393" y="654" on="1"/>
        <pt x="378" y="638" on="1"/>
      </contour>
    </TTGlyph>
    <TTGlyph name="b" xMin="66" yMin="-11" xMax="493" yMax="708">
      <contour>
        <pt x="299" y="511" on="1"/>
        <pt x="402" y="511" on="0"/>
        <pt x="493" y="396" on="0"/>
        <pt x="493" y="104" on="0"/>
        <pt x="385" y="-11" on="0"/>
        <pt x="249" y="-11" on="1"/>
        <pt x="202" y="-11" on="0"/>
        <pt x="100" y="-2" on="1"/>
        <pt x="66" y="1" on="1"/>
        <pt x="66" y="708" on="1"/>
        <pt x="174" y="708" on="1"/>
        <pt x="174" y="481" on="1"/>
        <pt x="243" y="511" on="0"/>
      </contour>
      <contour>
        <pt x="249" y="86" on="1"/>
        <pt x="329" y="86" on="0"/>
        <pt x="382" y="161" on="0"/>
        <pt x="382" y="341" on="0"/>
        <pt x="337" y="414" on="0"/>
        <pt x="286" y="414" on="1"/>
        <pt x="238" y="414" on="0"/>
        <pt x="190" y="399" on="1"/>
        <pt x="174" y="394" on="1"/>
        <pt x="174" y="90" on="1"/>
        <pt x="229" y="86" on="0"/>
      </contour>
    </TTGlyph>
    <TTGlyph name="backslash" xMin="31" yMin="-27" xMax="440" yMax="712">
      <contour>
        <pt x="440" y="13" on="1"/>
        <pt x="345" y="-27" on="1"/>
        <pt x="31" y="670" on="1"/>
        <pt x="125" y="712" on="1"/>
      </contour>
    </TTGlyph>
    <TTGlyph name="bar" xMin="72" yMin="-215" xMax="180" yMax="708">
      <contour>
        <pt x="72" y="-215" on="1"/>
        <pt x="72" y="708" on="1"/>
        <pt x="180" y="708" on="1"/>
        <pt x="180" y="-215" on="1"/>
      </contour>
    </TTGlyph>
    <TTGlyph name="braceleft" xMin="19" yMin="-131" xMax="320" yMax="758">
      <contour>
        <pt x="228" y="575" on="1"/>
        <pt x="235" y="450" on="1"/>
        <pt x="235" y="387" on="0"/>
        <pt x="193" y="331" on="0"/>
        <pt x="126" y="313" on="1"/>
        <pt x="192" y="296" on="0"/>
        <pt x="235" y="235" on="0"/>
        <pt x="235" y="171" on="1"/>
        <pt x="228" y="54" on="1"/>
        <pt x="228" y="11" on="0"/>
        <pt x="266" y="-36" on="0"/>
        <pt x="318" y="-39" on="1"/>
        <pt x="318" y="-131" on="1"/>
        <pt x="211" y="-127" on="0"/>
        <pt x="122" y="-48" on="0"/>
        <pt x="122" y="42" on="1"/>
        <pt x="129" y="163" on="1"/>
        <pt x="129" y="240" on="0"/>
        <pt x="19" y="270" on="1"/>
        <pt x="19" y="355" on="1"/>
        <pt x="76" y="368" on="0"/>
        <pt x="129" y="417" on="0"/>
        <pt x="129" y="456" on="1"/>
        <pt x="122" y="583" on="1"/>
        <pt x="122" y="677" on="0"/>
        <pt x="211" y="754" on="0"/>
        <pt x="319" y="758" on="1"/>
        <pt x="320" y="666" on="1"/>
        <pt x="267" y="662" on="0"/>
        <pt x="228" y="618" on="0"/>
      </contour>
    </TTGlyph>
    <TTGlyph name="braceleft.cap" xMin="19" yMin="-101" xMax="320" yMax="788">
      <contour>
        <pt x="228" y="605" on="1"/>
        <pt x="235" y="480" on="1"/>
        <pt x="235" y="417" on="0"/>
        <pt x="193" y="361" on="0"/>
        <pt x="126" y="343" on="1"/>
        <pt x="192" y="326" on="0"/>
        <pt x="235" y="265" on="0"/>
        <pt x="235" y="201" on="1"/>
        <pt x="228" y="84" on="1"/>
        <pt x="228" y="41" on="0"/>
        <pt x="266" y="-6" on="0"/>
        <pt x="318" y="-9" on="1"/>
        <pt x="318" y="-101" on="1"/>
        <pt x="211" y="-97" on="0"/>
        <pt x="122" y="-18" on="0"/>
        <pt x="122" y="72" on="1"/>
        <pt x="129" y="193" on="1"/>
        <pt x="129" y="270" on="0"/>
        <pt x="19" y="300" on="1"/>
        <pt x="19" y="385" on="1"/>
        <pt x="76" y="398" on="0"/>
        <pt x="129" y="447" on="0"/>
        <pt x="129" y="486" on="1"/>
        <pt x="122" y="613" on="1"/>
        <pt x="122" y="707" on="0"/>
        <pt x="211" y="784" on="0"/>
        <pt x="319" y="788" on="1"/>
        <pt x="320" y="696" on="1"/>
        <pt x="267" y="692" on="0"/>
        <pt x="228" y="648" on="0"/>
      </contour>
    </TTGlyph>
    <TTGlyph name="braceright" xMin="37" yMin="-131" xMax="338" yMax="758">
      <contour>
        <pt x="129" y="54" on="1"/>
        <pt x="122" y="171" on="1"/>
        <pt x="122" y="235" on="0"/>
        <pt x="165" y="296" on="0"/>
        <pt x="231" y="313" on="1"/>
        <pt x="164" y="331" on="0"/>
        <pt x="122" y="387" on="0"/>
        <pt x="122" y="450" on="1"/>
        <pt x="129" y="575" on="1"/>
        <pt x="129" y="618" on="0"/>
        <pt x="90" y="662" on="0"/>
        <pt x="37" y="666" on="1"/>
        <pt x="38" y="758" on="1"/>
        <pt x="146" y="754" on="0"/>
        <pt x="235" y="677" on="0"/>
        <pt x="235" y="583" on="1"/>
        <pt x="228" y="456" on="1"/>
        <pt x="228" y="417" on="0"/>
        <pt x="281" y="368" on="0"/>
        <pt x="338" y="355" on="1"/>
        <pt x="338" y="270" on="1"/>
        <pt x="228" y="240" on="0"/>
        <pt x="228" y="163" on="1"/>
        <pt x="235" y="42" on="1"/>
        <pt x="235" y="-48" on="0"/>
        <pt x="146" y="-127" on="0"/>
        <pt x="39" y="-131" on="1"/>
        <pt x="39" y="-39" on="1"/>
        <pt x="91" y="-36" on="0"/>
        <pt x="129" y="11" on="0"/>
      </contour>
    </TTGlyph>
    <TTGlyph name="braceright.cap" xMin="37" yMin="-104" xMax="338" yMax="785">
      <contour>
        <pt x="129" y="79" on="1"/>
        <pt x="122" y="204" on="1"/>
        <pt x="122" y="267" on="0"/>
        <pt x="164" y="323" on="0"/>
        <pt x="231" y="341" on="1"/>
        <pt x="165" y="358" on="0"/>
        <pt x="122" y="419" on="0"/>
        <pt x="122" y="483" on="1"/>
        <pt x="129" y="600" on="1"/>
        <pt x="129" y="643" on="0"/>
        <pt x="91" y="690" on="0"/>
        <pt x="39" y="693" on="1"/>
        <pt x="39" y="785" on="1"/>
        <pt x="146" y="781" on="0"/>
        <pt x="235" y="702" on="0"/>
        <pt x="235" y="612" on="1"/>
        <pt x="228" y="491" on="1"/>
        <pt x="228" y="414" on="0"/>
        <pt x="338" y="384" on="1"/>
        <pt x="338" y="299" on="1"/>
        <pt x="281" y="286" on="0"/>
        <pt x="228" y="237" on="0"/>
        <pt x="228" y="198" on="1"/>
        <pt x="235" y="71" on="1"/>
        <pt x="235" y="-23" on="0"/>
        <pt x="146" y="-100" on="0"/>
        <pt x="38" y="-104" on="1"/>
        <pt x="37" y="-12" on="1"/>
        <pt x="90" y="-8" on="0"/>
        <pt x="129" y="36" on="0"/>
      </contour>
    </TTGlyph>
    <TTGlyph name="bracketleft" xMin="73" yMin="-123" xMax="306" yMax="749">
      <contour>
        <pt x="306" y="749" on="1"/>
        <pt x="306" y="652" on="1"/>
        <pt x="183" y="652" on="1"/>
        <pt x="183" y="-26" on="1"/>
        <pt x="306" y="-26" on="1"/>
        <pt x="306" y="-123" on="1"/>
        <pt x="73" y="-123" on="1"/>
        <pt x="73" y="749" on="1"/>
      </contour>
    </TTGlyph>
    <TTGlyph name="bracketleft.cap" xMin="73" yMin="-93" xMax="306" yMax="779">
      <contour>
        <pt x="306" y="779" on="1"/>
        <pt x="306" y="682" on="1"/>
        <pt x="183" y="682" on="1"/>
        <pt x="183" y="4" on="1"/>
        <pt x="306" y="4" on="1"/>
        <pt x="306" y="-93" on="1"/>
        <pt x="73" y="-93" on="1"/>
        <pt x="73" y="779" on="1"/>
      </contour>
    </TTGlyph>
    <TTGlyph name="bracketright" xMin="38" yMin="-123" xMax="271" yMax="749">
      <contour>
        <pt x="38" y="652" on="1"/>
        <pt x="38" y="749" on="1"/>
        <pt x="271" y="749" on="1"/>
        <pt x="271" y="-123" on="1"/>
        <pt x="38" y="-123" on="1"/>
        <pt x="38" y="-26" on="1"/>
        <pt x="161" y="-26" on="1"/>
        <pt x="161" y="652" on="1"/>
      </contour>
    </TTGlyph>
    <TTGlyph name="bracketright.cap" xMin="38" yMin="-93" xMax="271" yMax="779">
      <contour>
        <pt x="38" y="682" on="1"/>
        <pt x="38" y="779" on="1"/>
        <pt x="271" y="779" on="1"/>
        <pt x="271" y="-93" on="1"/>
        <pt x="38" y="-93" on="1"/>
        <pt x="38" y="4" on="1"/>
        <pt x="161" y="4" on="1"/>
        <pt x="161" y="682" on="1"/>
      </contour>
    </TTGlyph>
    <TTGlyph name="breve" xMin="-19" yMin="579" xMax="296" yMax="728">
      <contour>
        <pt x="68" y="694" on="0"/>
        <pt x="107" y="654" on="0"/>
        <pt x="172" y="654" on="0"/>
        <pt x="210" y="695" on="0"/>
        <pt x="212" y="728" on="1"/>
        <pt x="296" y="728" on="1"/>
        <pt x="290" y="665" on="0"/>
        <pt x="207" y="579" on="0"/>
        <pt x="71" y="579" on="0"/>
        <pt x="-13" y="665" on="0"/>
        <pt x="-19" y="728" on="1"/>
        <pt x="65" y="728" on="1"/>
      </contour>
    </TTGlyph>
    <TTGlyph name="breve.cap" xMin="-26" yMin="771" xMax="322" yMax="914">
      <contour>
        <pt x="75" y="885" on="0"/>
        <pt x="116" y="849" on="0"/>
        <pt x="180" y="849" on="0"/>
        <pt x="221" y="885" on="0"/>
        <pt x="223" y="914" on="1"/>
        <pt x="322" y="914" on="1"/>
        <pt x="316" y="849" on="0"/>
        <pt x="226" y="771" on="0"/>
        <pt x="69" y="771" on="0"/>
        <pt x="-21" y="849" on="0"/>
        <pt x="-26" y="914" on="1"/>
        <pt x="73" y="914" on="1"/>
      </contour>
    </TTGlyph>
    <TTGlyph name="brokenbar" xMin="74" yMin="-215" xMax="182" yMax="708">
      <contour>
        <pt x="74" y="708" on="1"/>
        <pt x="182" y="708" on="1"/>
        <pt x="182" y="335" on="1"/>
        <pt x="74" y="335" on="1"/>
      </contour>
      <contour>
        <pt x="74" y="164" on="1"/>
        <pt x="182" y="164" on="1"/>
        <pt x="182" y="-215" on="1"/>
        <pt x="74" y="-215" on="1"/>
      </contour>
    </TTGlyph>
    <TTGlyph name="bullet" xMin="105" yMin="103" xMax="355" yMax="385">
      <contour>
        <pt x="105" y="103" on="1"/>
        <pt x="105" y="385" on="1"/>
        <pt x="355" y="385" on="1"/>
        <pt x="355" y="103" on="1"/>
      </contour>
    </TTGlyph>
    <TTGlyph name="c" xMin="44" yMin="-11" xMax="403" yMax="511">
      <contour>
        <pt x="253" y="511" on="1"/>
        <pt x="306" y="511" on="0"/>
        <pt x="378" y="497" on="1"/>
        <pt x="403" y="492" on="1"/>
        <pt x="399" y="406" on="1"/>
        <pt x="320" y="414" on="0"/>
        <pt x="282" y="414" on="1"/>
        <pt x="206" y="414" on="0"/>
        <pt x="154" y="346" on="0"/>
        <pt x="154" y="158" on="0"/>
        <pt x="204" y="86" on="0"/>
        <pt x="283" y="86" on="1"/>
        <pt x="400" y="94" on="1"/>
        <pt x="403" y="7" on="1"/>
        <pt x="302" y="-11" on="0"/>
        <pt x="251" y="-11" on="1"/>
        <pt x="137" y="-11" on="0"/>
        <pt x="44" y="112" on="0"/>
        <pt x="44" y="392" on="0"/>
        <pt x="142" y="511" on="0"/>
      </contour>
    </TTGlyph>
    <TTGlyph name="cacute" xMin="44" yMin="-11" xMax="403" yMax="748">
      <contour>
        <pt x="253" y="511" on="1"/>
        <pt x="306" y="511" on="0"/>
        <pt x="378" y="497" on="1"/>
        <pt x="403" y="492" on="1"/>
        <pt x="399" y="406" on="1"/>
        <pt x="320" y="414" on="0"/>
        <pt x="282" y="414" on="1"/>
        <pt x="206" y="414" on="0"/>
        <pt x="154" y="346" on="0"/>
        <pt x="154" y="158" on="0"/>
        <pt x="204" y="86" on="0"/>
        <pt x="283" y="86" on="1"/>
        <pt x="400" y="94" on="1"/>
        <pt x="403" y="7" on="1"/>
        <pt x="302" y="-11" on="0"/>
        <pt x="251" y="-11" on="1"/>
        <pt x="137" y="-11" on="0"/>
        <pt x="44" y="112" on="0"/>
        <pt x="44" y="392" on="0"/>
        <pt x="142" y="511" on="0"/>
      </contour>
      <contour>
        <pt x="110" y="647" on="1"/>
        <pt x="346" y="748" on="1"/>
        <pt x="380" y="654" on="1"/>
        <pt x="136" y="576" on="1"/>
      </contour>
    </TTGlyph>
    <TTGlyph name="caron" xMin="-19" yMin="585" xMax="302" yMax="731">
      <contour>
        <pt x="106" y="585" on="1"/>
        <pt x="-19" y="731" on="1"/>
        <pt x="83" y="731" on="1"/>
        <pt x="142" y="656" on="1"/>
        <pt x="200" y="731" on="1"/>
        <pt x="302" y="731" on="1"/>
        <pt x="175" y="585" on="1"/>
      </contour>
    </TTGlyph>
    <TTGlyph name="caron.cap" xMin="-41" yMin="776" xMax="321" yMax="919">
      <contour>
        <pt x="93" y="776" on="1"/>
        <pt x="-41" y="919" on="1"/>
        <pt x="76" y="919" on="1"/>
        <pt x="141" y="853" on="1"/>
        <pt x="204" y="919" on="1"/>
        <pt x="321" y="919" on="1"/>
        <pt x="187" y="776" on="1"/>
      </contour>
    </TTGlyph>
    <TTGlyph name="ccaron" xMin="44" yMin="-11" xMax="403" yMax="731">
      <contour>
        <pt x="253" y="511" on="1"/>
        <pt x="306" y="511" on="0"/>
        <pt x="378" y="497" on="1"/>
        <pt x="403" y="492" on="1"/>
        <pt x="399" y="406" on="1"/>
        <pt x="320" y="414" on="0"/>
        <pt x="282" y="414" on="1"/>
        <pt x="206" y="414" on="0"/>
        <pt x="154" y="346" on="0"/>
        <pt x="154" y="158" on="0"/>
        <pt x="204" y="86" on="0"/>
        <pt x="283" y="86" on="1"/>
        <pt x="400" y="94" on="1"/>
        <pt x="403" y="7" on="1"/>
        <pt x="302" y="-11" on="0"/>
        <pt x="251" y="-11" on="1"/>
        <pt x="137" y="-11" on="0"/>
        <pt x="44" y="112" on="0"/>
        <pt x="44" y="392" on="0"/>
        <pt x="142" y="511" on="0"/>
      </contour>
      <contour>
        <pt x="205" y="585" on="1"/>
        <pt x="80" y="731" on="1"/>
        <pt x="182" y="731" on="1"/>
        <pt x="241" y="656" on="1"/>
        <pt x="299" y="731" on="1"/>
        <pt x="401" y="731" on="1"/>
        <pt x="274" y="585" on="1"/>
      </contour>
    </TTGlyph>
    <TTGlyph name="ccedilla" xMin="44" yMin="-231" xMax="403" yMax="511">
      <contour>
        <pt x="315" y="-43" on="0"/>
        <pt x="371" y="-77" on="0"/>
        <pt x="371" y="-179" on="0"/>
        <pt x="316" y="-231" on="0"/>
        <pt x="267" y="-231" on="1"/>
        <pt x="229" y="-231" on="0"/>
        <pt x="190" y="-224" on="1"/>
        <pt x="177" y="-221" on="1"/>
        <pt x="181" y="-156" on="1"/>
        <pt x="215" y="-158" on="0"/>
        <pt x="236" y="-158" on="1"/>
        <pt x="277" y="-158" on="0"/>
        <pt x="277" y="-127" on="1"/>
        <pt x="277" y="-112" on="0"/>
        <pt x="258" y="-100" on="0"/>
        <pt x="236" y="-100" on="1"/>
        <pt x="205" y="-100" on="1"/>
        <pt x="205" y="-8" on="1"/>
        <pt x="117" y="3" on="0"/>
        <pt x="44" y="126" on="0"/>
        <pt x="44" y="392" on="0"/>
        <pt x="142" y="511" on="0"/>
        <pt x="253" y="511" on="1"/>
        <pt x="306" y="511" on="0"/>
        <pt x="378" y="497" on="1"/>
        <pt x="403" y="492" on="1"/>
        <pt x="399" y="406" on="1"/>
        <pt x="320" y="414" on="0"/>
        <pt x="282" y="414" on="1"/>
        <pt x="206" y="414" on="0"/>
        <pt x="154" y="346" on="0"/>
        <pt x="154" y="158" on="0"/>
        <pt x="204" y="86" on="0"/>
        <pt x="283" y="86" on="1"/>
        <pt x="400" y="94" on="1"/>
        <pt x="403" y="7" on="1"/>
        <pt x="303" y="-11" on="0"/>
        <pt x="252" y="-11" on="1"/>
        <pt x="252" y="-42" on="1"/>
      </contour>
    </TTGlyph>
    <TTGlyph name="ccircumflex" xMin="44" yMin="-11" xMax="403" yMax="731">
      <contour>
        <pt x="253" y="511" on="1"/>
        <pt x="306" y="511" on="0"/>
        <pt x="378" y="497" on="1"/>
        <pt x="403" y="492" on="1"/>
        <pt x="399" y="406" on="1"/>
        <pt x="320" y="414" on="0"/>
        <pt x="282" y="414" on="1"/>
        <pt x="206" y="414" on="0"/>
        <pt x="154" y="346" on="0"/>
        <pt x="154" y="158" on="0"/>
        <pt x="204" y="86" on="0"/>
        <pt x="283" y="86" on="1"/>
        <pt x="400" y="94" on="1"/>
        <pt x="403" y="7" on="1"/>
        <pt x="302" y="-11" on="0"/>
        <pt x="251" y="-11" on="1"/>
        <pt x="137" y="-11" on="0"/>
        <pt x="44" y="112" on="0"/>
        <pt x="44" y="392" on="0"/>
        <pt x="142" y="511" on="0"/>
      </contour>
      <contour>
        <pt x="66" y="585" on="1"/>
        <pt x="191" y="731" on="1"/>
        <pt x="260" y="731" on="1"/>
        <pt x="387" y="585" on="1"/>
        <pt x="285" y="585" on="1"/>
        <pt x="227" y="661" on="1"/>
        <pt x="169" y="585" on="1"/>
      </contour>
    </TTGlyph>
    <TTGlyph name="cdotaccent" xMin="44" yMin="-11" xMax="403" yMax="693">
      <contour>
        <pt x="253" y="511" on="1"/>
        <pt x="306" y="511" on="0"/>
        <pt x="378" y="497" on="1"/>
        <pt x="403" y="492" on="1"/>
        <pt x="399" y="406" on="1"/>
        <pt x="320" y="414" on="0"/>
        <pt x="282" y="414" on="1"/>
        <pt x="206" y="414" on="0"/>
        <pt x="154" y="346" on="0"/>
        <pt x="154" y="158" on="0"/>
        <pt x="204" y="86" on="0"/>
        <pt x="283" y="86" on="1"/>
        <pt x="400" y="94" on="1"/>
        <pt x="403" y="7" on="1"/>
        <pt x="302" y="-11" on="0"/>
        <pt x="251" y="-11" on="1"/>
        <pt x="137" y="-11" on="0"/>
        <pt x="44" y="112" on="0"/>
        <pt x="44" y="392" on="0"/>
        <pt x="142" y="511" on="0"/>
      </contour>
      <contour>
        <pt x="200" y="579" on="1"/>
        <pt x="200" y="693" on="1"/>
        <pt x="308" y="693" on="1"/>
        <pt x="308" y="579" on="1"/>
      </contour>
    </TTGlyph>
    <TTGlyph name="cedilla" xMin="35" yMin="-231" xMax="229" yMax="1">
      <contour>
        <pt x="173" y="-43" on="0"/>
        <pt x="229" y="-77" on="0"/>
        <pt x="229" y="-179" on="0"/>
        <pt x="174" y="-231" on="0"/>
        <pt x="125" y="-231" on="1"/>
        <pt x="87" y="-231" on="0"/>
        <pt x="48" y="-224" on="1"/>
        <pt x="35" y="-221" on="1"/>
        <pt x="39" y="-156" on="1"/>
        <pt x="73" y="-158" on="0"/>
        <pt x="94" y="-158" on="1"/>
        <pt x="135" y="-158" on="0"/>
        <pt x="135" y="-127" on="1"/>
        <pt x="135" y="-112" on="0"/>
        <pt x="116" y="-100" on="0"/>
        <pt x="94" y="-100" on="1"/>
        <pt x="63" y="-100" on="1"/>
        <pt x="63" y="1" on="1"/>
        <pt x="110" y="1" on="1"/>
        <pt x="110" y="-42" on="1"/>
      </contour>
    </TTGlyph>
    <TTGlyph name="cent" xMin="93" yMin="-78" xMax="453" yMax="576">
      <contour>
        <pt x="274" y="-78" on="1"/>
        <pt x="274" y="32" on="1"/>
        <pt x="183" y="37" on="0"/>
        <pt x="93" y="139" on="0"/>
        <pt x="93" y="249" on="1"/>
        <pt x="93" y="455" on="0"/>
        <pt x="273" y="468" on="1"/>
        <pt x="273" y="576" on="1"/>
        <pt x="364" y="576" on="1"/>
        <pt x="364" y="464" on="1"/>
        <pt x="452" y="452" on="1"/>
        <pt x="449" y="369" on="1"/>
        <pt x="370" y="374" on="0"/>
        <pt x="327" y="374" on="1"/>
        <pt x="259" y="374" on="0"/>
        <pt x="204" y="316" on="0"/>
        <pt x="204" y="181" on="0"/>
        <pt x="259" y="126" on="0"/>
        <pt x="330" y="126" on="1"/>
        <pt x="450" y="131" on="1"/>
        <pt x="453" y="48" on="1"/>
        <pt x="405" y="38" on="0"/>
        <pt x="364" y="36" on="1"/>
        <pt x="364" y="-78" on="1"/>
      </contour>
    </TTGlyph>
    <TTGlyph name="circumflex" xMin="-22" yMin="585" xMax="299" yMax="731">
      <contour>
        <pt x="-22" y="585" on="1"/>
        <pt x="103" y="731" on="1"/>
        <pt x="172" y="731" on="1"/>
        <pt x="299" y="585" on="1"/>
        <pt x="197" y="585" on="1"/>
        <pt x="139" y="661" on="1"/>
        <pt x="81" y="585" on="1"/>
      </contour>
    </TTGlyph>
    <TTGlyph name="circumflex.cap" xMin="37" yMin="776" xMax="399" yMax="919">
      <contour>
        <pt x="37" y="776" on="1"/>
        <pt x="171" y="919" on="1"/>
        <pt x="265" y="919" on="1"/>
        <pt x="399" y="776" on="1"/>
        <pt x="283" y="776" on="1"/>
        <pt x="219" y="843" on="1"/>
        <pt x="154" y="776" on="1"/>
      </contour>
    </TTGlyph>
    <TTGlyph name="colon" xMin="61" yMin="0" xMax="178" yMax="447">
      <contour>
        <pt x="61" y="303" on="1"/>
        <pt x="61" y="447" on="1"/>
        <pt x="178" y="447" on="1"/>
        <pt x="178" y="303" on="1"/>
      </contour>
      <contour>
        <pt x="61" y="0" on="1"/>
        <pt x="61" y="144" on="1"/>
        <pt x="178" y="144" on="1"/>
        <pt x="178" y="0" on="1"/>
      </contour>
    </TTGlyph>
    <TTGlyph name="comma" xMin="26" yMin="-123" xMax="194" yMax="124">
      <contour>
        <pt x="26" y="-123" on="1"/>
        <pt x="74" y="124" on="1"/>
        <pt x="194" y="124" on="1"/>
        <pt x="114" y="-123" on="1"/>
      </contour>
    </TTGlyph>
    <TTGlyph name="commaaccent" xMin="7" yMin="-300" xMax="157" yMax="-77">
      <contour>
        <pt x="7" y="-300" on="1"/>
        <pt x="51" y="-77" on="1"/>
        <pt x="157" y="-77" on="1"/>
        <pt x="104" y="-300" on="1"/>
      </contour>
    </TTGlyph>
    <TTGlyph name="copyright" xMin="52" yMin="155" xMax="592" yMax="713">
      <contour>
        <pt x="205" y="155" on="0"/>
        <pt x="52" y="316" on="0"/>
        <pt x="52" y="554" on="0"/>
        <pt x="205" y="713" on="0"/>
        <pt x="442" y="713" on="0"/>
        <pt x="592" y="551" on="0"/>
        <pt x="592" y="314" on="0"/>
        <pt x="442" y="155" on="0"/>
      </contour>
      <contour>
        <pt x="106" y="528" on="0"/>
        <pt x="106" y="340" on="0"/>
        <pt x="229" y="208" on="0"/>
        <pt x="414" y="208" on="0"/>
        <pt x="538" y="339" on="0"/>
        <pt x="538" y="528" on="0"/>
        <pt x="413" y="661" on="0"/>
        <pt x="230" y="661" on="0"/>
      </contour>
      <contour>
        <pt x="331" y="595" on="1"/>
        <pt x="369" y="595" on="0"/>
        <pt x="410" y="582" on="1"/>
        <pt x="404" y="510" on="1"/>
        <pt x="368" y="517" on="0"/>
        <pt x="309" y="517" on="0"/>
        <pt x="290" y="482" on="0"/>
        <pt x="290" y="391" on="0"/>
        <pt x="310" y="351" on="0"/>
        <pt x="336" y="351" on="1"/>
        <pt x="404" y="357" on="1"/>
        <pt x="410" y="288" on="1"/>
        <pt x="378" y="272" on="0"/>
        <pt x="261" y="272" on="0"/>
        <pt x="205" y="345" on="0"/>
        <pt x="205" y="523" on="0"/>
        <pt x="263" y="595" on="0"/>
      </contour>
    </TTGlyph>
    <TTGlyph name="currency" xMin="42" yMin="14" xMax="518" yMax="490">
      <contour>
        <pt x="371" y="86" on="1"/>
        <pt x="328" y="62" on="0"/>
        <pt x="231" y="62" on="0"/>
        <pt x="188" y="86" on="1"/>
        <pt x="117" y="14" on="1"/>
        <pt x="42" y="89" on="1"/>
        <pt x="114" y="160" on="1"/>
        <pt x="90" y="200" on="0"/>
        <pt x="90" y="300" on="0"/>
        <pt x="114" y="343" on="1"/>
        <pt x="42" y="415" on="1"/>
        <pt x="117" y="490" on="1"/>
        <pt x="188" y="418" on="1"/>
        <pt x="231" y="442" on="0"/>
        <pt x="328" y="442" on="0"/>
        <pt x="371" y="418" on="1"/>
        <pt x="443" y="490" on="1"/>
        <pt x="518" y="415" on="1"/>
        <pt x="446" y="343" on="1"/>
        <pt x="470" y="300" on="0"/>
        <pt x="470" y="203" on="0"/>
        <pt x="446" y="160" on="1"/>
        <pt x="518" y="89" on="1"/>
        <pt x="443" y="14" on="1"/>
      </contour>
      <contour>
        <pt x="240" y="154" on="0"/>
        <pt x="320" y="154" on="0"/>
        <pt x="378" y="212" on="0"/>
        <pt x="378" y="292" on="0"/>
        <pt x="320" y="350" on="0"/>
        <pt x="240" y="350" on="0"/>
        <pt x="182" y="292" on="0"/>
        <pt x="182" y="212" on="0"/>
      </contour>
    </TTGlyph>
    <TTGlyph name="d" xMin="43" yMin="-11" xMax="474" yMax="708">
      <contour>
        <pt x="474" y="708" on="1"/>
        <pt x="474" y="0" on="1"/>
        <pt x="366" y="0" on="1"/>
        <pt x="366" y="26" on="1"/>
        <pt x="293" y="-11" on="0"/>
        <pt x="232" y="-11" on="1"/>
        <pt x="134" y="-11" on="0"/>
        <pt x="43" y="107" on="0"/>
        <pt x="43" y="385" on="0"/>
        <pt x="144" y="511" on="0"/>
        <pt x="251" y="511" on="1"/>
        <pt x="287" y="511" on="0"/>
        <pt x="365" y="498" on="1"/>
        <pt x="365" y="708" on="1"/>
      </contour>
      <contour>
        <pt x="348" y="104" on="1"/>
        <pt x="365" y="111" on="1"/>
        <pt x="365" y="407" on="1"/>
        <pt x="305" y="417" on="0"/>
        <pt x="254" y="417" on="1"/>
        <pt x="153" y="417" on="0"/>
        <pt x="153" y="249" on="1"/>
        <pt x="153" y="157" on="0"/>
        <pt x="200" y="86" on="0"/>
        <pt x="302" y="86" on="0"/>
      </contour>
    </TTGlyph>
    <TTGlyph name="dagger" xMin="31" yMin="-73" xMax="449" yMax="685">
      <contour>
        <pt x="31" y="407" on="1"/>
        <pt x="31" y="500" on="1"/>
        <pt x="185" y="500" on="1"/>
        <pt x="185" y="685" on="1"/>
        <pt x="294" y="685" on="1"/>
        <pt x="294" y="500" on="1"/>
        <pt x="449" y="500" on="1"/>
        <pt x="449" y="407" on="1"/>
        <pt x="294" y="407" on="1"/>
        <pt x="286" y="-73" on="1"/>
        <pt x="193" y="-73" on="1"/>
        <pt x="185" y="407" on="1"/>
      </contour>
    </TTGlyph>
    <TTGlyph name="daggerdbl" xMin="49" yMin="-73" xMax="467" yMax="685">
      <contour>
        <pt x="204" y="-73" on="1"/>
        <pt x="204" y="112" on="1"/>
        <pt x="49" y="112" on="1"/>
        <pt x="49" y="205" on="1"/>
        <pt x="204" y="205" on="1"/>
        <pt x="204" y="407" on="1"/>
        <pt x="49" y="407" on="1"/>
        <pt x="49" y="500" on="1"/>
        <pt x="204" y="500" on="1"/>
        <pt x="204" y="685" on="1"/>
        <pt x="312" y="685" on="1"/>
        <pt x="312" y="500" on="1"/>
        <pt x="466" y="500" on="1"/>
        <pt x="466" y="407" on="1"/>
        <pt x="312" y="407" on="1"/>
        <pt x="312" y="205" on="1"/>
        <pt x="467" y="205" on="1"/>
        <pt x="467" y="112" on="1"/>
        <pt x="312" y="112" on="1"/>
        <pt x="312" y="-73" on="1"/>
      </contour>
    </TTGlyph>
    <TTGlyph name="dcaron" xMin="43" yMin="-11" xMax="682" yMax="708">
      <contour>
        <pt x="576" y="680" on="1"/>
        <pt x="682" y="680" on="1"/>
        <pt x="629" y="458" on="1"/>
        <pt x="533" y="458" on="1"/>
      </contour>
      <contour>
        <pt x="474" y="708" on="1"/>
        <pt x="474" y="0" on="1"/>
        <pt x="366" y="0" on="1"/>
        <pt x="366" y="26" on="1"/>
        <pt x="293" y="-11" on="0"/>
        <pt x="232" y="-11" on="1"/>
        <pt x="134" y="-11" on="0"/>
        <pt x="43" y="107" on="0"/>
        <pt x="43" y="385" on="0"/>
        <pt x="144" y="511" on="0"/>
        <pt x="251" y="511" on="1"/>
        <pt x="287" y="511" on="0"/>
        <pt x="365" y="498" on="1"/>
        <pt x="365" y="708" on="1"/>
      </contour>
      <contour>
        <pt x="348" y="104" on="1"/>
        <pt x="365" y="111" on="1"/>
        <pt x="365" y="407" on="1"/>
        <pt x="305" y="417" on="0"/>
        <pt x="254" y="417" on="1"/>
        <pt x="153" y="417" on="0"/>
        <pt x="153" y="249" on="1"/>
        <pt x="153" y="157" on="0"/>
        <pt x="200" y="86" on="0"/>
        <pt x="302" y="86" on="0"/>
      </contour>
    </TTGlyph>
    <TTGlyph name="dcroat" xMin="43" yMin="-11" xMax="474" yMax="716">
      <contour>
        <pt x="155" y="622" on="1"/>
        <pt x="155" y="716" on="1"/>
        <pt x="466" y="716" on="1"/>
        <pt x="466" y="708" on="1"/>
        <pt x="474" y="708" on="1"/>
        <pt x="474" y="0" on="1"/>
        <pt x="366" y="0" on="1"/>
        <pt x="366" y="26" on="1"/>
        <pt x="293" y="-11" on="0"/>
        <pt x="232" y="-11" on="1"/>
        <pt x="134" y="-11" on="0"/>
        <pt x="43" y="107" on="0"/>
        <pt x="43" y="385" on="0"/>
        <pt x="144" y="511" on="0"/>
        <pt x="251" y="511" on="1"/>
        <pt x="287" y="511" on="0"/>
        <pt x="365" y="498" on="1"/>
        <pt x="365" y="622" on="1"/>
      </contour>
      <contour>
        <pt x="348" y="104" on="1"/>
        <pt x="365" y="111" on="1"/>
        <pt x="365" y="407" on="1"/>
        <pt x="305" y="417" on="0"/>
        <pt x="254" y="417" on="1"/>
        <pt x="153" y="417" on="0"/>
        <pt x="153" y="249" on="1"/>
        <pt x="153" y="157" on="0"/>
        <pt x="200" y="86" on="0"/>
        <pt x="302" y="86" on="0"/>
      </contour>
    </TTGlyph>
    <TTGlyph name="degree" xMin="134" yMin="405" xMax="426" yMax="696">
      <contour>
        <pt x="134" y="485" on="0"/>
        <pt x="134" y="615" on="0"/>
        <pt x="215" y="696" on="0"/>
        <pt x="345" y="696" on="0"/>
        <pt x="426" y="615" on="0"/>
        <pt x="426" y="485" on="0"/>
        <pt x="345" y="405" on="0"/>
        <pt x="215" y="405" on="0"/>
      </contour>
      <contour>
        <pt x="198" y="587" on="0"/>
        <pt x="198" y="513" on="0"/>
        <pt x="243" y="467" on="0"/>
        <pt x="317" y="467" on="0"/>
        <pt x="364" y="513" on="0"/>
        <pt x="364" y="587" on="0"/>
        <pt x="317" y="634" on="0"/>
        <pt x="243" y="634" on="0"/>
      </contour>
    </TTGlyph>
    <TTGlyph name="dieresis" xMin="-22" yMin="607" xMax="291" yMax="721">
      <contour>
        <pt x="-22" y="607" on="1"/>
        <pt x="-22" y="721" on="1"/>
        <pt x="82" y="721" on="1"/>
        <pt x="82" y="607" on="1"/>
      </contour>
      <contour>
        <pt x="187" y="607" on="1"/>
        <pt x="187" y="721" on="1"/>
        <pt x="291" y="721" on="1"/>
        <pt x="291" y="607" on="1"/>
      </contour>
    </TTGlyph>
    <TTGlyph name="dieresis.cap" xMin="-33" yMin="783" xMax="280" yMax="897">
      <contour>
        <pt x="-33" y="783" on="1"/>
        <pt x="-33" y="897" on="1"/>
        <pt x="71" y="897" on="1"/>
        <pt x="71" y="783" on="1"/>
      </contour>
      <contour>
        <pt x="176" y="783" on="1"/>
        <pt x="176" y="897" on="1"/>
        <pt x="280" y="897" on="1"/>
        <pt x="280" y="783" on="1"/>
      </contour>
    </TTGlyph>
    <TTGlyph name="divide" xMin="105" yMin="23" xMax="455" yMax="428">
      <contour>
        <pt x="105" y="241" on="1"/>
        <pt x="105" y="351" on="1"/>
        <pt x="173" y="351" on="1"/>
        <pt x="173" y="428" on="1"/>
        <pt x="386" y="428" on="1"/>
        <pt x="386" y="351" on="1"/>
        <pt x="455" y="351" on="1"/>
        <pt x="455" y="241" on="1"/>
      </contour>
      <contour>
        <pt x="225" y="23" on="1"/>
        <pt x="225" y="141" on="1"/>
        <pt x="333" y="141" on="1"/>
        <pt x="333" y="23" on="1"/>
      </contour>
    </TTGlyph>
    <TTGlyph name="dollar" xMin="59" yMin="-127" xMax="503" yMax="805">
      <contour>
        <pt x="503" y="196" on="1"/>
        <pt x="503" y="92" on="0"/>
        <pt x="384" y="-11" on="0"/>
        <pt x="282" y="-11" on="1"/>
        <pt x="274" y="-11" on="1"/>
        <pt x="260" y="-127" on="1"/>
        <pt x="196" y="-124" on="0"/>
        <pt x="196" y="-120" on="1"/>
        <pt x="210" y="-7" on="1"/>
        <pt x="146" y="-1" on="0"/>
        <pt x="86" y="11" on="1"/>
        <pt x="66" y="15" on="1"/>
        <pt x="77" y="101" on="1"/>
        <pt x="156" y="90" on="0"/>
        <pt x="222" y="86" on="1"/>
        <pt x="249" y="293" on="1"/>
        <pt x="145" y="321" on="0"/>
        <pt x="59" y="403" on="0"/>
        <pt x="59" y="579" on="0"/>
        <pt x="176" y="671" on="0"/>
        <pt x="279" y="671" on="1"/>
        <pt x="297" y="671" on="1"/>
        <pt x="314" y="805" on="1"/>
        <pt x="378" y="805" on="1"/>
        <pt x="360" y="666" on="1"/>
        <pt x="488" y="648" on="1"/>
        <pt x="479" y="562" on="1"/>
        <pt x="408" y="570" on="0"/>
        <pt x="349" y="574" on="1"/>
        <pt x="324" y="381" on="1"/>
        <pt x="425" y="352" on="0"/>
        <pt x="503" y="276" on="0"/>
      </contour>
      <contour>
        <pt x="166" y="491" on="1"/>
        <pt x="166" y="454" on="0"/>
        <pt x="207" y="416" on="0"/>
        <pt x="262" y="398" on="1"/>
        <pt x="285" y="577" on="1"/>
        <pt x="166" y="575" on="0"/>
      </contour>
      <contour>
        <pt x="395" y="190" on="1"/>
        <pt x="395" y="224" on="0"/>
        <pt x="358" y="262" on="0"/>
        <pt x="311" y="276" on="1"/>
        <pt x="286" y="84" on="1"/>
        <pt x="395" y="88" on="0"/>
      </contour>
    </TTGlyph>
    <TTGlyph name="dotaccent" xMin="73" yMin="579" xMax="181" yMax="693">
      <contour>
        <pt x="73" y="579" on="1"/>
        <pt x="73" y="693" on="1"/>
        <pt x="181" y="693" on="1"/>
        <pt x="181" y="579" on="1"/>
      </contour>
    </TTGlyph>
    <TTGlyph name="dotaccent.cap" xMin="73" yMin="782" xMax="181" yMax="896">
      <contour>
        <pt x="73" y="782" on="1"/>
        <pt x="73" y="896" on="1"/>
        <pt x="181" y="896" on="1"/>
        <pt x="181" y="782" on="1"/>
      </contour>
    </TTGlyph>
    <TTGlyph name="dotlessi" xMin="66" yMin="0" xMax="175" yMax="500">
      <contour>
        <pt x="66" y="0" on="1"/>
        <pt x="66" y="500" on="1"/>
        <pt x="175" y="500" on="1"/>
        <pt x="175" y="0" on="1"/>
      </contour>
    </TTGlyph>
    <TTGlyph name="dotlessj" xMin="-41" yMin="-227" xMax="175" yMax="500">
      <contour>
        <pt x="67" y="19" on="1"/>
        <pt x="67" y="500" on="1"/>
        <pt x="175" y="500" on="1"/>
        <pt x="175" y="18" on="1"/>
        <pt x="175" y="-80" on="0"/>
        <pt x="106" y="-174" on="0"/>
        <pt x="2" y="-227" on="1"/>
        <pt x="-41" y="-146" on="1"/>
        <pt x="29" y="-102" on="0"/>
        <pt x="67" y="-46" on="0"/>
      </contour>
    </TTGlyph>
    <TTGlyph name="e" xMin="42" yMin="-11" xMax="469" yMax="511">
      <contour>
        <pt x="422" y="90" on="1"/>
        <pt x="450" y="93" on="1"/>
        <pt x="452" y="12" on="1"/>
        <pt x="338" y="-11" on="0"/>
        <pt x="250" y="-11" on="1"/>
        <pt x="139" y="-11" on="0"/>
        <pt x="42" y="111" on="0"/>
        <pt x="42" y="245" on="1"/>
        <pt x="42" y="511" on="0"/>
        <pt x="259" y="511" on="1"/>
        <pt x="469" y="511" on="0"/>
        <pt x="469" y="282" on="1"/>
        <pt x="462" y="204" on="1"/>
        <pt x="152" y="204" on="1"/>
        <pt x="153" y="142" on="0"/>
        <pt x="205" y="84" on="0"/>
        <pt x="347" y="84" on="0"/>
      </contour>
      <contour>
        <pt x="362" y="288" on="1"/>
        <pt x="362" y="362" on="0"/>
        <pt x="315" y="421" on="0"/>
        <pt x="203" y="421" on="0"/>
        <pt x="152" y="359" on="0"/>
        <pt x="151" y="288" on="1"/>
      </contour>
    </TTGlyph>
    <TTGlyph name="eacute" xMin="42" yMin="-11" xMax="469" yMax="748">
      <contour>
        <pt x="422" y="90" on="1"/>
        <pt x="450" y="93" on="1"/>
        <pt x="452" y="12" on="1"/>
        <pt x="338" y="-11" on="0"/>
        <pt x="250" y="-11" on="1"/>
        <pt x="139" y="-11" on="0"/>
        <pt x="42" y="111" on="0"/>
        <pt x="42" y="245" on="1"/>
        <pt x="42" y="511" on="0"/>
        <pt x="259" y="511" on="1"/>
        <pt x="469" y="511" on="0"/>
        <pt x="469" y="282" on="1"/>
        <pt x="462" y="204" on="1"/>
        <pt x="152" y="204" on="1"/>
        <pt x="153" y="142" on="0"/>
        <pt x="205" y="84" on="0"/>
        <pt x="347" y="84" on="0"/>
      </contour>
      <contour>
        <pt x="362" y="288" on="1"/>
        <pt x="362" y="362" on="0"/>
        <pt x="315" y="421" on="0"/>
        <pt x="203" y="421" on="0"/>
        <pt x="152" y="359" on="0"/>
        <pt x="151" y="288" on="1"/>
      </contour>
      <contour>
        <pt x="122" y="647" on="1"/>
        <pt x="358" y="748" on="1"/>
        <pt x="392" y="654" on="1"/>
        <pt x="148" y="576" on="1"/>
      </contour>
    </TTGlyph>
    <TTGlyph name="ebreve" xMin="42" yMin="-11" xMax="469" yMax="728">
      <contour>
        <pt x="422" y="90" on="1"/>
        <pt x="450" y="93" on="1"/>
        <pt x="452" y="12" on="1"/>
        <pt x="338" y="-11" on="0"/>
        <pt x="250" y="-11" on="1"/>
        <pt x="139" y="-11" on="0"/>
        <pt x="42" y="111" on="0"/>
        <pt x="42" y="245" on="1"/>
        <pt x="42" y="511" on="0"/>
        <pt x="259" y="511" on="1"/>
        <pt x="469" y="511" on="0"/>
        <pt x="469" y="282" on="1"/>
        <pt x="462" y="204" on="1"/>
        <pt x="152" y="204" on="1"/>
        <pt x="153" y="142" on="0"/>
        <pt x="205" y="84" on="0"/>
        <pt x="347" y="84" on="0"/>
      </contour>
      <contour>
        <pt x="362" y="288" on="1"/>
        <pt x="362" y="362" on="0"/>
        <pt x="315" y="421" on="0"/>
        <pt x="203" y="421" on="0"/>
        <pt x="152" y="359" on="0"/>
        <pt x="151" y="288" on="1"/>
      </contour>
      <contour>
        <pt x="187" y="694" on="0"/>
        <pt x="226" y="654" on="0"/>
        <pt x="291" y="654" on="0"/>
        <pt x="329" y="695" on="0"/>
        <pt x="331" y="728" on="1"/>
        <pt x="415" y="728" on="1"/>
        <pt x="409" y="665" on="0"/>
        <pt x="326" y="579" on="0"/>
        <pt x="190" y="579" on="0"/>
        <pt x="106" y="665" on="0"/>
        <pt x="100" y="728" on="1"/>
        <pt x="184" y="728" on="1"/>
      </contour>
    </TTGlyph>
    <TTGlyph name="ecaron" xMin="42" yMin="-11" xMax="469" yMax="731">
      <contour>
        <pt x="422" y="90" on="1"/>
        <pt x="450" y="93" on="1"/>
        <pt x="452" y="12" on="1"/>
        <pt x="338" y="-11" on="0"/>
        <pt x="250" y="-11" on="1"/>
        <pt x="139" y="-11" on="0"/>
        <pt x="42" y="111" on="0"/>
        <pt x="42" y="245" on="1"/>
        <pt x="42" y="511" on="0"/>
        <pt x="259" y="511" on="1"/>
        <pt x="469" y="511" on="0"/>
        <pt x="469" y="282" on="1"/>
        <pt x="462" y="204" on="1"/>
        <pt x="152" y="204" on="1"/>
        <pt x="153" y="142" on="0"/>
        <pt x="205" y="84" on="0"/>
        <pt x="347" y="84" on="0"/>
      </contour>
      <contour>
        <pt x="362" y="288" on="1"/>
        <pt x="362" y="362" on="0"/>
        <pt x="315" y="421" on="0"/>
        <pt x="203" y="421" on="0"/>
        <pt x="152" y="359" on="0"/>
        <pt x="151" y="288" on="1"/>
      </contour>
      <contour>
        <pt x="218" y="585" on="1"/>
        <pt x="93" y="731" on="1"/>
        <pt x="195" y="731" on="1"/>
        <pt x="254" y="656" on="1"/>
        <pt x="312" y="731" on="1"/>
        <pt x="414" y="731" on="1"/>
        <pt x="287" y="585" on="1"/>
      </contour>
    </TTGlyph>
    <TTGlyph name="ecircumflex" xMin="42" yMin="-11" xMax="469" yMax="731">
      <contour>
        <pt x="422" y="90" on="1"/>
        <pt x="450" y="93" on="1"/>
        <pt x="452" y="12" on="1"/>
        <pt x="338" y="-11" on="0"/>
        <pt x="250" y="-11" on="1"/>
        <pt x="139" y="-11" on="0"/>
        <pt x="42" y="111" on="0"/>
        <pt x="42" y="245" on="1"/>
        <pt x="42" y="511" on="0"/>
        <pt x="259" y="511" on="1"/>
        <pt x="469" y="511" on="0"/>
        <pt x="469" y="282" on="1"/>
        <pt x="462" y="204" on="1"/>
        <pt x="152" y="204" on="1"/>
        <pt x="153" y="142" on="0"/>
        <pt x="205" y="84" on="0"/>
        <pt x="347" y="84" on="0"/>
      </contour>
      <contour>
        <pt x="362" y="288" on="1"/>
        <pt x="362" y="362" on="0"/>
        <pt x="315" y="421" on="0"/>
        <pt x="203" y="421" on="0"/>
        <pt x="152" y="359" on="0"/>
        <pt x="151" y="288" on="1"/>
      </contour>
      <contour>
        <pt x="99" y="585" on="1"/>
        <pt x="224" y="731" on="1"/>
        <pt x="293" y="731" on="1"/>
        <pt x="420" y="585" on="1"/>
        <pt x="318" y="585" on="1"/>
        <pt x="260" y="661" on="1"/>
        <pt x="202" y="585" on="1"/>
      </contour>
    </TTGlyph>
    <TTGlyph name="edieresis" xMin="42" yMin="-11" xMax="469" yMax="721">
      <contour>
        <pt x="422" y="90" on="1"/>
        <pt x="450" y="93" on="1"/>
        <pt x="452" y="12" on="1"/>
        <pt x="338" y="-11" on="0"/>
        <pt x="250" y="-11" on="1"/>
        <pt x="139" y="-11" on="0"/>
        <pt x="42" y="111" on="0"/>
        <pt x="42" y="245" on="1"/>
        <pt x="42" y="511" on="0"/>
        <pt x="259" y="511" on="1"/>
        <pt x="469" y="511" on="0"/>
        <pt x="469" y="282" on="1"/>
        <pt x="462" y="204" on="1"/>
        <pt x="152" y="204" on="1"/>
        <pt x="153" y="142" on="0"/>
        <pt x="205" y="84" on="0"/>
        <pt x="347" y="84" on="0"/>
      </contour>
      <contour>
        <pt x="362" y="288" on="1"/>
        <pt x="362" y="362" on="0"/>
        <pt x="315" y="421" on="0"/>
        <pt x="203" y="421" on="0"/>
        <pt x="152" y="359" on="0"/>
        <pt x="151" y="288" on="1"/>
      </contour>
      <contour>
        <pt x="100" y="607" on="1"/>
        <pt x="100" y="721" on="1"/>
        <pt x="204" y="721" on="1"/>
        <pt x="204" y="607" on="1"/>
      </contour>
      <contour>
        <pt x="309" y="607" on="1"/>
        <pt x="309" y="721" on="1"/>
        <pt x="413" y="721" on="1"/>
        <pt x="413" y="607" on="1"/>
      </contour>
    </TTGlyph>
    <TTGlyph name="edotaccent" xMin="42" yMin="-11" xMax="469" yMax="693">
      <contour>
        <pt x="422" y="90" on="1"/>
        <pt x="450" y="93" on="1"/>
        <pt x="452" y="12" on="1"/>
        <pt x="338" y="-11" on="0"/>
        <pt x="250" y="-11" on="1"/>
        <pt x="139" y="-11" on="0"/>
        <pt x="42" y="111" on="0"/>
        <pt x="42" y="245" on="1"/>
        <pt x="42" y="511" on="0"/>
        <pt x="259" y="511" on="1"/>
        <pt x="469" y="511" on="0"/>
        <pt x="469" y="282" on="1"/>
        <pt x="462" y="204" on="1"/>
        <pt x="152" y="204" on="1"/>
        <pt x="153" y="142" on="0"/>
        <pt x="205" y="84" on="0"/>
        <pt x="347" y="84" on="0"/>
      </contour>
      <contour>
        <pt x="362" y="288" on="1"/>
        <pt x="362" y="362" on="0"/>
        <pt x="315" y="421" on="0"/>
        <pt x="203" y="421" on="0"/>
        <pt x="152" y="359" on="0"/>
        <pt x="151" y="288" on="1"/>
      </contour>
      <contour>
        <pt x="201" y="579" on="1"/>
        <pt x="201" y="693" on="1"/>
        <pt x="309" y="693" on="1"/>
        <pt x="309" y="579" on="1"/>
      </contour>
    </TTGlyph>
    <TTGlyph name="egrave" xMin="42" yMin="-11" xMax="469" yMax="748">
      <contour>
        <pt x="422" y="90" on="1"/>
        <pt x="450" y="93" on="1"/>
        <pt x="452" y="12" on="1"/>
        <pt x="338" y="-11" on="0"/>
        <pt x="250" y="-11" on="1"/>
        <pt x="139" y="-11" on="0"/>
        <pt x="42" y="111" on="0"/>
        <pt x="42" y="245" on="1"/>
        <pt x="42" y="511" on="0"/>
        <pt x="259" y="511" on="1"/>
        <pt x="469" y="511" on="0"/>
        <pt x="469" y="282" on="1"/>
        <pt x="462" y="204" on="1"/>
        <pt x="152" y="204" on="1"/>
        <pt x="153" y="142" on="0"/>
        <pt x="205" y="84" on="0"/>
        <pt x="347" y="84" on="0"/>
      </contour>
      <contour>
        <pt x="362" y="288" on="1"/>
        <pt x="362" y="362" on="0"/>
        <pt x="315" y="421" on="0"/>
        <pt x="203" y="421" on="0"/>
        <pt x="152" y="359" on="0"/>
        <pt x="151" y="288" on="1"/>
      </contour>
      <contour>
        <pt x="149" y="748" on="1"/>
        <pt x="385" y="647" on="1"/>
        <pt x="359" y="576" on="1"/>
        <pt x="115" y="654" on="1"/>
      </contour>
    </TTGlyph>
    <TTGlyph name="eight" xMin="30" yMin="-11" xMax="529" yMax="671">
      <contour>
        <pt x="168" y="671" on="0"/>
        <pt x="388" y="671" on="0"/>
        <pt x="519" y="580" on="0"/>
        <pt x="519" y="495" on="1"/>
        <pt x="519" y="435" on="0"/>
        <pt x="482" y="374" on="0"/>
        <pt x="431" y="342" on="1"/>
        <pt x="482" y="309" on="0"/>
        <pt x="529" y="240" on="0"/>
        <pt x="529" y="179" on="1"/>
        <pt x="529" y="79" on="0"/>
        <pt x="391" y="-11" on="0"/>
        <pt x="278" y="-11" on="1"/>
        <pt x="30" y="-11" on="0"/>
        <pt x="30" y="168" on="1"/>
        <pt x="30" y="235" on="0"/>
        <pt x="76" y="307" on="0"/>
        <pt x="126" y="342" on="1"/>
        <pt x="79" y="373" on="0"/>
        <pt x="41" y="440" on="0"/>
        <pt x="41" y="496" on="1"/>
        <pt x="41" y="580" on="0"/>
      </contour>
      <contour>
        <pt x="149" y="192" on="1"/>
        <pt x="149" y="89" on="0"/>
        <pt x="410" y="89" on="0"/>
        <pt x="410" y="194" on="1"/>
        <pt x="410" y="263" on="0"/>
        <pt x="326" y="289" on="1"/>
        <pt x="230" y="289" on="1"/>
        <pt x="149" y="263" on="0"/>
      </contour>
      <contour>
        <pt x="400" y="479" on="1"/>
        <pt x="400" y="571" on="0"/>
        <pt x="160" y="571" on="0"/>
        <pt x="160" y="479" on="1"/>
        <pt x="160" y="419" on="0"/>
        <pt x="230" y="384" on="1"/>
        <pt x="326" y="384" on="1"/>
        <pt x="400" y="419" on="0"/>
      </contour>
    </TTGlyph>
    <TTGlyph name="eight.dnom" xMin="16" yMin="-10" xMax="264" yMax="322">
      <contour>
        <pt x="21" y="322" on="0"/>
        <pt x="259" y="322" on="0"/>
        <pt x="259" y="235" on="1"/>
        <pt x="259" y="205" on="0"/>
        <pt x="236" y="166" on="0"/>
        <pt x="225" y="163" on="1"/>
        <pt x="238" y="160" on="0"/>
        <pt x="264" y="124" on="0"/>
        <pt x="264" y="92" on="1"/>
        <pt x="264" y="37" on="0"/>
        <pt x="201" y="-10" on="0"/>
        <pt x="78" y="-10" on="0"/>
        <pt x="16" y="35" on="0"/>
        <pt x="16" y="90" on="1"/>
        <pt x="16" y="121" on="0"/>
        <pt x="43" y="159" on="0"/>
        <pt x="55" y="164" on="1"/>
        <pt x="44" y="168" on="0"/>
        <pt x="21" y="203" on="0"/>
        <pt x="21" y="235" on="1"/>
      </contour>
      <contour>
        <pt x="106" y="61" on="0"/>
        <pt x="174" y="61" on="0"/>
        <pt x="174" y="93" on="1"/>
        <pt x="174" y="116" on="0"/>
        <pt x="150" y="129" on="1"/>
        <pt x="130" y="129" on="1"/>
        <pt x="106" y="115" on="0"/>
        <pt x="106" y="92" on="1"/>
      </contour>
      <contour>
        <pt x="172" y="251" on="0"/>
        <pt x="108" y="251" on="0"/>
        <pt x="108" y="224" on="1"/>
        <pt x="108" y="203" on="0"/>
        <pt x="130" y="191" on="1"/>
        <pt x="150" y="191" on="1"/>
        <pt x="172" y="202" on="0"/>
        <pt x="172" y="224" on="1"/>
      </contour>
    </TTGlyph>
</ttFont>
